{
.appVersion = "3134";
.formatVersion = 3;
DisplayStrings = (
"Aa Bb Cc Dd Ee Ff Gg Hh Ii Jj Kk Ll Mm Nn Oo Pp Qq Rr Tt Ss Uu Vv Ww Xx Yy Zz
!@#&?.
1234567890"
);
customParameters = (
{
name = vendorID;
value = AMMP;
},
{
name = panose;
value = (
0,
0,
7,
0,
0,
0,
0,
0,
0,
0
);
},
{
name = unicodeRanges;
value = (
0,
1,
2,
29
);
},
{
name = codePageRanges;
value = (
"1252",
"1250",
"1254",
"1257",
"1258",
"bit 29"
);
},
{
name = blueScale;
value = 0.037;
},
{
name = glyphOrder;
value = (
.notdef,
space,
A,
Aacute,
Abreve,
uni1EAE,
uni1EB6,
uni1EB0,
uni1EB2,
uni1EB4,
uni01CD,
Acircumflex,
uni1EA4,
uni1EAC,
uni1EA6,
uni1EA8,
uni1EAA,
Adieresis,
uni1EA0,
Agrave,
uni1EA2,
Amacron,
Aogonek,
Aring,
Atilde,
AE,
B,
C,
Cacute,
Ccaron,
Ccedilla,
Cdotaccent,
D,
Eth,
Dcaron,
Dcroat,
E,
Eacute,
Ecaron,
Ecircumflex,
uni1EBE,
uni1EC6,
uni1EC0,
uni1EC2,
uni1EC4,
Edieresis,
Edotaccent,
uni1EB8,
Egrave,
uni1EBA,
Emacron,
Eogonek,
uni1EBC,
F,
G,
Gbreve,
uni0122,
Gdotaccent,
H,
Hbar,
I,
Iacute,
uni01CF,
Icircumflex,
Idieresis,
Idotaccent,
uni1ECA,
Igrave,
uni1EC8,
Imacron,
Iogonek,
Itilde,
J,
K,
uni0136,
L,
Lacute,
Lcaron,
uni013B,
Lslash,
M,
N,
Nacute,
Ncaron,
uni0145,
Eng,
Ntilde,
O,
Oacute,
uni01D1,
Ocircumflex,
uni1ED0,
uni1ED8,
uni1ED2,
uni1ED4,
uni1ED6,
Odieresis,
uni1ECC,
Ograve,
uni1ECE,
Ohorn,
uni1EDA,
uni1EE2,
uni1EDC,
uni1EDE,
uni1EE0,
Ohungarumlaut,
Omacron,
Oslash,
Otilde,
OE,
P,
Thorn,
Q,
R,
Racute,
Rcaron,
uni0156,
S,
Sacute,
Scaron,
Scedilla,
uni0218,
uni1E9E,
T,
Tbar,
Tcaron,
uni0162,
uni021A,
U,
Uacute,
uni01D3,
Ucircumflex,
Udieresis,
uni01D7,
uni01D9,
uni01DB,
uni01D5,
uni1EE4,
Ugrave,
uni1EE6,
Uhorn,
uni1EE8,
uni1EF0,
uni1EEA,
uni1EEC,
uni1EEE,
Uhungarumlaut,
Umacron,
Uogonek,
Uring,
Utilde,
V,
W,
Wacute,
Wcircumflex,
Wdieresis,
Wgrave,
X,
Y,
Yacute,
Ycircumflex,
Ydieresis,
uni1EF4,
Ygrave,
uni1EF6,
uni1EF8,
Z,
Zacute,
Zcaron,
Zdotaccent,
uni1EB6.ss03,
uni1EAC.ss03,
Adieresis.ss03,
uni1EA0.ss03,
Cdotaccent.ss03,
uni1EC6.ss03,
Edieresis.ss03,
Edotaccent.ss03,

glyphs = (
{
glyphname = .notdef;
lastChange = "2022-12-26 08:52:03 +0000";
layers = (
{
hints = (
{
horizontal = 1;
place = (-123, -86);
place = (-123, -86);
type = Stem;
},
{
horizontal = 1;
place = (312, -85);
place = (312, -85);
type = Stem;
},
{
place = (-30, -86);
place = (-30, -86);
type = Stem;
},
{
place = (340, -85);
place = (340, -85);
type = Stem;
}
);
layerId = m01;
shapes = (
{
closed = 1;
nodes = (
(-30,0,l),
(378,0,l),
(462,473,l),
(54,473,l)
);
},
{
closed = 1;
nodes = (
(14,37,l),
(84,435,l),
(417,435,l),
(347,37,l)
);
}
);
width = 593;
}
);
note = ".notdef";
},
{
glyphname = A;
kernLeft = A;
kernRight = A;
lastChange = "2022-12-26 08:52:03 +0000";
layers = (
{
hints = (
{
horizontal = 1;
place = (-123, 21);
target = up;
type = BottomGhost;
},
{
horizontal = 1;
place = (35, -26);
place = (35, -26);
type = Stem;
},
{
horizontal = 1;
place = (574, -20);
target = down;
type = TopGhost;
},
{
place = (-108, 504);
place = (-108, 504);
type = Stem;
}
);
layerId = m01;
shapes = (
{
closed = 1;
nodes = (
(381,647,ls),
(374,681,o),
(352,697,o),
(316,697,cs),
(287,697,l),
(-108,0,l),
(8,0,l),
(94,158,l),
(373,158,l),
(402,0,l),
(519,0,l)
);
},
{
closed = 1;
nodes = (
(146,255,l),
(301,541,l),
(355,255,l)
);
}
);
width = 657;
}
);
note = A;
unicode = 65;
},
{
glyphname = Aacute;
kernLeft = A;
kernRight = A;
lastChange = "2022-12-26 08:52:03 +0000";
layers = (
{
hints = (
{
horizontal = 1;
place = (-123, 21);
target = up;
type = BottomGhost;
},
{
horizontal = 1;
place = (35, -26);
place = (35, -26);
type = Stem;
},
{
horizontal = 1;
place = (574, -20);
target = down;
type = TopGhost;
},
{
horizontal = 1;
place = (636, 19);
place = (636, 19);
type = Stem;
},
{
place = (-108, 504);
place = (-108, 504);
type = Stem;
}
);
layerId = m01;
shapes = (
{
closed = 1;
nodes = (
(547,901,l),
(436,901,l),
(301,759,l),
(378,759,l)
);
},
{
closed = 1;
nodes = (
(402,0,l),
(519,0,l),
(370,697,l),
(287,697,l),
(-108,0,l),
(8,0,l),
(94,158,l),
(373,158,l)
);
},
{
closed = 1;
nodes = (
(146,255,l),
(301,541,l),
(355,255,l)
);
}
);
width = 657;
}
);
note = Aacute;
unicode = 193;
},
{
glyphname = Abreve;
kernLeft = A;
kernRight = A;
lastChange = "2022-12-26 08:52:03 +0000";
layers = (
{
hints = (
{
horizontal = 1;
place = (-123, 21);
target = up;
type = BottomGhost;
},
{
horizontal = 1;
place = (35, -26);
place = (35, -26);
type = Stem;
},
{
horizontal = 1;
place = (574, -20);
target = down;
type = TopGhost;
},
{
horizontal = 1;
place = (646, -63);
place = (646, -63);
type = Stem;
},
{
place = (52, -50);
place = (52, -50);
type = Stem;
},
{
place = (287, -50);
place = (287, -50);
type = Stem;
}
);
layerId = m01;
shapes = (
{
closed = 1;
nodes = (
(443,769,o),
(503,812,o),
(519,901,c),
(446,901,l),
(438,855,o),
(400,829,o),
(352,829,cs),
(306,829,o),
(276,853,o),
(284,901,c),
(211,901,l),
(196,815,o),
(236,769,o),
(342,769,cs)
);
},
{
closed = 1;
nodes = (
(402,0,l),
(519,0,l),
(370,697,l),
(287,697,l),
(-108,0,l),
(8,0,l),
(94,158,l),
(373,158,l)
);
},
{
closed = 1;
nodes = (
(146,255,l),
(301,541,l),
(355,255,l)
);
}
);
width = 657;
}
);
note = Abreve;
unicode = 258;
},
{
glyphname = uni1EAE;
kernLeft = A;
kernRight = A;
lastChange = "2022-12-26 08:52:03 +0000";
layers = (
{
hints = (
{
horizontal = 1;
place = (-123, 21);
target = up;
type = BottomGhost;
},
{
horizontal = 1;
place = (35, -26);
place = (35, -26);
type = Stem;
},
{
horizontal = 1;
place = (574, -20);
target = down;
type = TopGhost;
},
{
horizontal = 1;
place = (646, -63);
place = (646, -63);
type = Stem;
},
{
horizontal = 1;
place = (840, 19);
place = (840, 19);
type = Stem;
},
{
place = (52, -50);
place = (52, -50);
type = Stem;
},
{
place = (287, -50);
place = (287, -50);
type = Stem;
}
);
layerId = m01;
shapes = (
{
closed = 1;
nodes = (
(583,1105,l),
(472,1105,l),
(337,963,l),
(414,963,l)
);
},
{
closed = 1;
nodes = (
(443,769,o),
(503,812,o),
(519,901,c),
(446,901,l),
(438,855,o),
(400,829,o),
(352,829,cs),
(306,829,o),
(276,853,o),
(284,901,c),
(211,901,l),
(196,815,o),
(236,769,o),
(342,769,cs)
);
},
{
closed = 1;
nodes = (
(402,0,l),
(519,0,l),
(370,697,l),
(287,697,l),
(-108,0,l),
(8,0,l),
(94,158,l),
(373,158,l)
);
},
{
closed = 1;
nodes = (
(146,255,l),
(301,541,l),
(355,255,l)
);
}
);
width = 657;
}
);
note = uni1EAE;
unicode = 7854;
},
{
glyphname = uni1EB6;
kernLeft = A;
kernRight = A;
lastChange = "2022-12-26 08:52:03 +0000";
layers = (
{
hints = (
{
horizontal = 1;
place = (-296, -15);
place = (-296, -15);
type = Stem;
},
{
horizontal = 1;
place = (-123, 21);
target = up;
type = BottomGhost;
},
{
horizontal = 1;
place = (35, -26);
place = (35, -26);
type = Stem;
},
{
horizontal = 1;
place = (574, -20);
target = down;
type = TopGhost;
},
{
horizontal = 1;
place = (646, -63);
place = (646, -63);
type = Stem;
},
{
place = (52, -50);
place = (52, -50);
type = Stem;
},
{
place = (151, -13);
place = (151, -13);
type = Stem;
},
{
place = (287, -50);
place = (287, -50);
type = Stem;
}
);
layerId = m01;
shapes = (
{
closed = 1;
nodes = (
(443,769,o),
(503,812,o),
(519,901,c),
(446,901,l),
(438,855,o),
(400,829,o),
(352,829,cs),
(306,829,o),
(276,853,o),
(284,901,c),
(211,901,l),
(196,815,o),
(236,769,o),
(342,769,cs)
);
},
{
closed = 1;
nodes = (
(519,0,l),
(370,697,l),
(287,697,l),
(-108,0,l),
(8,0,l),
(94,158,l),
(373,158,l),
(402,0,l)
);
},
{
closed = 1;
nodes = (
(146,255,l),
(301,541,l),
(355,255,l)
);
},
{
closed = 1;
nodes = (
(121,-173,l),
(231,-173,l),
(250,-65,l),
(140,-65,l)
);
}
);
width = 657;
}
);
note = uni1EB6;
unicode = 7862;
},
{
glyphname = uni1EB0;
kernLeft = A;
kernRight = A;
lastChange = "2022-12-26 08:52:03 +0000";
layers = (
{
hints = (
{
horizontal = 1;
place = (-123, 21);
target = up;
type = BottomGhost;
},
{
horizontal = 1;
place = (35, -26);
place = (35, -26);
type = Stem;
},
{
horizontal = 1;
place = (574, -20);
target = down;
type = TopGhost;
},
{
horizontal = 1;
place = (646, -63);
place = (646, -63);
type = Stem;
},
{
horizontal = 1;
place = (840, 19);
place = (840, 19);
type = Stem;
},
{
place = (52, -50);
place = (52, -50);
type = Stem;
},
{
place = (287, -50);
place = (287, -50);
type = Stem;
}
);
layerId = m01;
shapes = (
{
closed = 1;
nodes = (
(415,963,l),
(336,1105,l),
(226,1105,l),
(337,963,l)
);
},
{
closed = 1;
nodes = (
(211,901,l),
(196,815,o),
(236,769,o),
(342,769,cs),
(443,769,o),
(503,812,o),
(519,901,c),
(446,901,l),
(438,855,o),
(400,829,o),
(352,829,cs),
(306,829,o),
(276,853,o),
(284,901,c)
);
},
{
closed = 1;
nodes = (
(402,0,l),
(519,0,l),
(370,697,l),
(287,697,l),
(-108,0,l),
(8,0,l),
(94,158,l),
(373,158,l)
);
},
{
closed = 1;
nodes = (
(146,255,l),
(301,541,l),
(355,255,l)
);
}
);
width = 657;
}
);
note = uni1EB0;
unicode = 7856;
},
{
glyphname = uni1EB2;
kernLeft = A;
kernRight = A;
lastChange = "2022-12-26 08:52:03 +0000";
layers = (
{
hints = (
{
horizontal = 1;
place = (-123, 21);
target = up;
type = BottomGhost;
},
{
horizontal = 1;
place = (35, -26);
place = (35, -26);
type = Stem;
},
{
horizontal = 1;
place = (574, -20);
target = down;
type = TopGhost;
},
{
horizontal = 1;
place = (646, -63);
place = (646, -63);
type = Stem;
},
{
horizontal = 1;
place = (946, -66);
place = (946, -66);
type = Stem;
},
{
place = (52, -50);
place = (52, -50);
type = Stem;
},
{
place = (251, -57);
place = (251, -57);
type = Stem;
},
{
place = (287, -50);
place = (287, -50);
type = Stem;
}
);
layerId = m01;
shapes = (
{
closed = 1;
nodes = (
(427,996,o),
(391,990,o),
(358,986,c),
(363,940,l),
(414,949,o),
(486,960,o),
(499,1029,cs),
(510,1092,o),
(456,1126,o),
(370,1126,cs),
(355,1126,l),
(345,1069,l),
(360,1069,ls),
(400,1069,o),
(439,1064,o),
(432,1028,cs)
);
},
{
closed = 1;
nodes = (
(443,769,o),
(503,812,o),
(519,901,c),
(446,901,l),
(438,855,o),
(400,829,o),
(352,829,cs),
(306,829,o),
(276,853,o),
(284,901,c),
(211,901,l),
(196,815,o),
(236,769,o),
(342,769,cs)
);
},
{
closed = 1;
nodes = (
(402,0,l),
(519,0,l),
(370,697,l),
(287,697,l),
(-108,0,l),
(8,0,l),
(94,158,l),
(373,158,l)
);
},
{
closed = 1;
nodes = (
(146,255,l),
(301,541,l),
(355,255,l)
);
}
);
width = 657;
}
);
note = uni1EB2;
unicode = 7858;
},
{
glyphname = uni1EB4;
kernLeft = A;
kernRight = A;
lastChange = "2022-12-26 08:52:03 +0000";
layers = (
{
hints = (
{
horizontal = 1;
place = (-123, 21);
target = up;
type = BottomGhost;
},
{
horizontal = 1;
place = (35, -26);
place = (35, -26);
type = Stem;
},
{
horizontal = 1;
place = (574, -20);
target = down;
type = TopGhost;
},
{
horizontal = 1;
place = (646, -63);
place = (646, -63);
type = Stem;
},
{
horizontal = 1;
place = (921, -59);
place = (921, -59);
type = Stem;
},
{
place = (41, -63);
place = (41, -63);
type = Stem;
},
{
place = (306, -60);
place = (306, -60);
type = Stem;
},
{
horizontal = 1;
place = (846, -59);
place = (846, -59);
type = Stem;
},
{
place = (52, -50);
place = (52, -50);
type = Stem;
},
{
place = (287, -50);
place = (287, -50);
type = Stem;
}
);
layerId = m01;
shapes = (
{
closed = 1;
nodes = (
(365,1044,o),
(362,969,o),
(441,969,cs),
(501,969,o),
(549,1018,o),
(564,1105,c),
(501,1105,l),
(493,1059,o),
(473,1033,o),
(453,1033,cs),
(412,1033,o),
(409,1108,o),
(338,1108,cs),
(275,1108,o),
(228,1059,o),
(213,974,c),
(273,974,l),
(281,1019,o),
(299,1044,o),
(323,1044,cs)
);
},
{
closed = 1;
nodes = (
(306,829,o),
(276,853,o),
(284,901,c),
(211,901,l),
(196,815,o),
(236,769,o),
(342,769,cs),
(443,769,o),
(503,812,o),
(519,901,c),
(446,901,l),
(438,855,o),
(400,829,o),
(352,829,cs)
);
},
{
closed = 1;
nodes = (
(402,0,l),
(519,0,l),
(370,697,l),
(287,697,l),
(-108,0,l),
(8,0,l),
(94,158,l),
(373,158,l)
);
},
{
closed = 1;
nodes = (
(146,255,l),
(301,541,l),
(355,255,l)
);
}
);
width = 657;
}
);
note = uni1EB4;
unicode = 7860;
},
{
glyphname = uni01CD;
kernLeft = A;
kernRight = A;
lastChange = "2022-12-26 08:52:03 +0000";
layers = (
{
hints = (
{
horizontal = 1;
place = (-123, 21);
target = up;
type = BottomGhost;
},
{
horizontal = 1;
place = (35, -26);
place = (35, -26);
type = Stem;
},
{
horizontal = 1;
place = (574, -20);
target = down;
type = TopGhost;
},
{
place = (-108, 504);
place = (-108, 504);
type = Stem;
}
);
layerId = m01;
shapes = (
{
closed = 1;
nodes = (
(519,901,l),
(438,901,l),
(352,825,l),
(292,901,l),
(211,901,l),
(337,741,l)
);
},
{
closed = 1;
nodes = (
(402,0,l),
(519,0,l),
(370,697,l),
(287,697,l),
(-108,0,l),
(8,0,l),
(94,158,l),
(373,158,l)
);
},
{
closed = 1;
nodes = (
(146,255,l),
(301,541,l),
(355,255,l)
);
}
);
width = 657;
}
);
note = uni01CD;
unicode = 461;
},
{
glyphname = Acircumflex;
kernLeft = A;
kernRight = A;
lastChange = "2022-12-26 08:52:03 +0000";
layers = (
{
hints = (
{
horizontal = 1;
place = (-123, 21);
target = up;
type = BottomGhost;
},
{
horizontal = 1;
place = (35, -26);
place = (35, -26);
type = Stem;
},
{
horizontal = 1;
place = (574, -20);
target = down;
type = TopGhost;
},
{
place = (-108, 504);
place = (-108, 504);
type = Stem;
}
);
layerId = m01;
shapes = (
{
closed = 1;
nodes = (
(352,828,l),
(411,747,l),
(492,747,l),
(368,916,l),
(184,747,l),
(266,747,l)
);
},
{
closed = 1;
nodes = (
(402,0,l),
(519,0,l),
(370,697,l),
(287,697,l),
(-108,0,l),
(8,0,l),
(94,158,l),
(373,158,l)
);
},
{
closed = 1;
nodes = (
(146,255,l),
(301,541,l),
(355,255,l)
);
}
);
width = 657;
}
);
note = Acircumflex;
unicode = 194;
},
{
glyphname = uni1EA4;
kernLeft = A;
kernRight = A;
lastChange = "2022-12-26 08:52:03 +0000";
layers = (
{
hints = (
{
horizontal = 1;
place = (-123, 21);
target = up;
type = BottomGhost;
},
{
horizontal = 1;
place = (35, -26);
place = (35, -26);
type = Stem;
},
{
horizontal = 1;
place = (574, -20);
target = down;
type = TopGhost;
},
{
horizontal = 1;
place = (824, 19);
place = (824, 19);
type = Stem;
},
{
place = (-108, 504);
place = (-108, 504);
type = Stem;
}
);
layerId = m01;
shapes = (
{
closed = 1;
nodes = (
(580,1089,l),
(469,1089,l),
(334,947,l),
(411,947,l)
);
},
{
closed = 1;
nodes = (
(352,828,l),
(411,747,l),
(492,747,l),
(368,916,l),
(184,747,l),
(266,747,l)
);
},
{
closed = 1;
nodes = (
(402,0,l),
(519,0,l),
(370,697,l),
(287,697,l),
(-108,0,l),
(8,0,l),
(94,158,l),
(373,158,l)
);
},
{
closed = 1;
nodes = (
(146,255,l),
(301,541,l),
(355,255,l)
);
}
);
width = 657;
}
);
note = uni1EA4;
unicode = 7844;
},
{
glyphname = uni1EAC;
kernLeft = A;
kernRight = A;
lastChange = "2022-12-26 08:52:03 +0000";
layers = (
{
hints = (
{
horizontal = 1;
place = (-296, -15);
place = (-296, -15);
type = Stem;
},
{
horizontal = 1;
place = (-123, 21);
target = up;
type = BottomGhost;
},
{
horizontal = 1;
place = (35, -26);
place = (35, -26);
type = Stem;
},
{
horizontal = 1;
place = (574, -20);
target = down;
type = TopGhost;
},
{
place = (151, -13);
place = (151, -13);
type = Stem;
}
);
layerId = m01;
shapes = (
{
closed = 1;
nodes = (
(352,828,l),
(411,747,l),
(492,747,l),
(368,916,l),
(184,747,l),
(266,747,l)
);
},
{
closed = 1;
nodes = (
(519,0,l),
(370,697,l),
(287,697,l),
(-108,0,l),
(8,0,l),
(94,158,l),
(373,158,l),
(402,0,l)
);
},
{
closed = 1;
nodes = (
(146,255,l),
(301,541,l),
(355,255,l)
);
},
{
closed = 1;
nodes = (
(121,-173,l),
(231,-173,l),
(250,-65,l),
(140,-65,l)
);
}
);
width = 657;
}
);
note = uni1EAC;
unicode = 7852;
},
{
glyphname = uni1EA6;
kernLeft = A;
kernRight = A;
lastChange = "2022-12-26 08:52:03 +0000";
layers = (
{
hints = (
{
horizontal = 1;
place = (-123, 21);
target = up;
type = BottomGhost;
},
{
horizontal = 1;
place = (35, -26);
place = (35, -26);
type = Stem;
},
{
horizontal = 1;
place = (574, -20);
target = down;
type = TopGhost;
},
{
horizontal = 1;
place = (824, 19);
place = (824, 19);
type = Stem;
},
{
place = (-108, 504);
place = (-108, 504);
type = Stem;
}
);
layerId = m01;
shapes = (
{
closed = 1;
nodes = (
(412,947,l),
(333,1089,l),
(223,1089,l),
(334,947,l)
);
},
{
closed = 1;
nodes = (
(184,747,l),
(266,747,l),
(352,828,l),
(411,747,l),
(492,747,l),
(368,916,l)
);
},
{
closed = 1;
nodes = (
(402,0,l),
(519,0,l),
(370,697,l),
(287,697,l),
(-108,0,l),
(8,0,l),
(94,158,l),
(373,158,l)
);
},
{
closed = 1;
nodes = (
(146,255,l),
(301,541,l),
(355,255,l)
);
}
);
width = 657;
}
);
note = uni1EA6;
unicode = 7846;
},
{
glyphname = uni1EA8;
kernLeft = A;
kernRight = A;
lastChange = "2022-12-26 08:52:03 +0000";
layers = (
{
hints = (
{
horizontal = 1;
place = (-123, 21);
target = up;
type = BottomGhost;
},
{
horizontal = 1;
place = (35, -26);
place = (35, -26);
type = Stem;
},
{
horizontal = 1;
place = (574, -20);
target = down;
type = TopGhost;
},
{
horizontal = 1;
place = (930, -66);
place = (930, -66);
type = Stem;
},
{
place = (251, -57);
place = (251, -57);
type = Stem;
}
);
layerId = m01;
shapes = (
{
closed = 1;
nodes = (
(424,980,o),
(388,974,o),
(355,970,c),
(360,924,l),
(412,933,o),
(484,944,o),
(496,1013,cs),
(507,1076,o),
(453,1110,o),
(367,1110,cs),
(352,1110,l),
(342,1053,l),
(357,1053,ls),
(397,1053,o),
(436,1048,o),
(430,1012,cs)
);
},
{
closed = 1;
nodes = (
(352,828,l),
(411,747,l),
(492,747,l),
(368,916,l),
(184,747,l),
(266,747,l)
);
},
{
closed = 1;
nodes = (
(402,0,l),
(519,0,l),
(370,697,l),
(287,697,l),
(-108,0,l),
(8,0,l),
(94,158,l),
(373,158,l)
);
},
{
closed = 1;
nodes = (
(146,255,l),
(301,541,l),
(355,255,l)
);
}
);
width = 657;
}
);
note = uni1EA8;
unicode = 7848;
},
{
glyphname = uni1EAA;
kernLeft = A;
kernRight = A;
lastChange = "2022-12-26 08:52:03 +0000";
layers = (
{
hints = (
{
horizontal = 1;
place = (-123, 21);
target = up;
type = BottomGhost;
},
{
horizontal = 1;
place = (35, -26);
place = (35, -26);
type = Stem;
},
{
horizontal = 1;
place = (574, -20);
target = down;
type = TopGhost;
},
{
horizontal = 1;
place = (905, -59);
place = (905, -59);
type = Stem;
},
{
place = (41, -63);
place = (41, -63);
type = Stem;
},
{
place = (306, -60);
place = (306, -60);
type = Stem;
},
{
horizontal = 1;
place = (830, -59);
place = (830, -59);
type = Stem;
}
);
layerId = m01;
shapes = (
{
closed = 1;
nodes = (
(362,1028,o),
(359,953,o),
(438,953,cs),
(498,953,o),
(546,1002,o),
(561,1089,c),
(498,1089,l),
(490,1043,o),
(470,1017,o),
(450,1017,cs),
(409,1017,o),
(407,1092,o),
(336,1092,cs),
(273,1092,o),
(225,1043,o),
(210,958,c),
(270,958,l),
(278,1003,o),
(296,1028,o),
(320,1028,cs)
);
},
{
closed = 1;
nodes = (
(184,747,l),
(266,747,l),
(352,828,l),
(411,747,l),
(492,747,l),
(368,916,l)
);
},
{
closed = 1;
nodes = (
(402,0,l),
(519,0,l),
(370,697,l),
(287,697,l),
(-108,0,l),
(8,0,l),
(94,158,l),
(373,158,l)
);
},
{
closed = 1;
nodes = (
(146,255,l),
(301,541,l),
(355,255,l)
);
}
);
width = 657;
}
);
note = uni1EAA;
unicode = 7850;
},
{
glyphname = Adieresis;
kernLeft = A;
kernRight = A;
lastChange = "2022-12-26 08:52:03 +0000";
layers = (
{
hints = (
{
horizontal = 1;
place = (-123, 21);
target = up;
type = BottomGhost;
},
{
horizontal = 1;
place = (35, -26);
place = (35, -26);
type = Stem;
},
{
horizontal = 1;
place = (574, -20);
target = down;
type = TopGhost;
},
{
horizontal = 1;
place = (670, -15);
place = (670, -15);
type = Stem;
},
{
place = (64, -29);
place = (64, -29);
type = Stem;
},
{
place = (254, -29);
place = (254, -29);
type = Stem;
}
);
layerId = m01;
shapes = (
{
closed = 1;
nodes = (
(317,901,l),
(223,901,l),
(204,793,l),
(298,793,l)
);
},
{
closed = 1;
nodes = (
(507,901,l),
(413,901,l),
(394,793,l),
(488,793,l)
);
},
{
closed = 1;
nodes = (
(402,0,l),
(519,0,l),
(370,697,l),
(287,697,l),
(-108,0,l),
(8,0,l),
(94,158,l),
(373,158,l)
);
},
{
closed = 1;
nodes = (
(146,255,l),
(301,541,l),
(355,255,l)
);
}
);
width = 657;
}
);
note = Adieresis;
unicode = 196;
},
{
glyphname = uni1EA0;
kernLeft = A;
kernRight = A;
lastChange = "2022-12-26 08:52:03 +0000";
layers = (
{
hints = (
{
horizontal = 1;
place = (-296, -15);
place = (-296, -15);
type = Stem;
},
{
horizontal = 1;
place = (-123, 21);
target = up;
type = BottomGhost;
},
{
horizontal = 1;
place = (35, -26);
place = (35, -26);
type = Stem;
},
{
horizontal = 1;
place = (574, -20);
target = down;
type = TopGhost;
},
{
place = (151, -13);
place = (151, -13);
type = Stem;
}
);
layerId = m01;
shapes = (
{
closed = 1;
nodes = (
(519,0,l),
(370,697,l),
(287,697,l),
(-108,0,l),
(8,0,l),
(94,158,l),
(373,158,l),
(402,0,l)
);
},
{
closed = 1;
nodes = (
(146,255,l),
(301,541,l),
(355,255,l)
);
},
{
closed = 1;
nodes = (
(121,-173,l),
(231,-173,l),
(250,-65,l),
(140,-65,l)
);
}
);
width = 657;
}
);
note = uni1EA0;
unicode = 7840;
},
{
glyphname = Agrave;
kernLeft = A;
kernRight = A;
lastChange = "2022-12-26 08:52:03 +0000";
layers = (
{
hints = (
{
horizontal = 1;
place = (-123, 21);
target = up;
type = BottomGhost;
},
{
horizontal = 1;
place = (35, -26);
place = (35, -26);
type = Stem;
},
{
horizontal = 1;
place = (574, -20);
target = down;
type = TopGhost;
},
{
horizontal = 1;
place = (636, 19);
place = (636, 19);
type = Stem;
},
{
place = (-108, 504);
place = (-108, 504);
type = Stem;
}
);
layerId = m01;
shapes = (
{
closed = 1;
nodes = (
(379,759,l),
(300,901,l),
(190,901,l),
(301,759,l)
);
},
{
closed = 1;
nodes = (
(402,0,l),
(519,0,l),
(370,697,l),
(287,697,l),
(-108,0,l),
(8,0,l),
(94,158,l),
(373,158,l)
);
},
{
closed = 1;
nodes = (
(146,255,l),
(301,541,l),
(355,255,l)
);
}
);
width = 657;
}
);
note = Agrave;
unicode = 192;
},
{
glyphname = uni1EA2;
kernLeft = A;
kernRight = A;
lastChange = "2022-12-26 08:52:03 +0000";
layers = (
{
hints = (
{
horizontal = 1;
place = (-123, 21);
target = up;
type = BottomGhost;
},
{
horizontal = 1;
place = (35, -26);
place = (35, -26);
type = Stem;
},
{
horizontal = 1;
place = (574, -20);
target = down;
type = TopGhost;
},
{
horizontal = 1;
place = (742, -66);
place = (742, -66);
type = Stem;
},
{
place = (251, -57);
place = (251, -57);
type = Stem;
}
);
layerId = m01;
shapes = (
{
closed = 1;
nodes = (
(391,792,o),
(355,786,o),
(322,782,c),
(327,736,l),
(378,745,o),
(450,756,o),
(463,825,cs),
(474,888,o),
(420,922,o),
(334,922,cs),
(319,922,l),
(309,865,l),
(324,865,ls),
(364,865,o),
(403,860,o),
(396,824,cs)
);
},
{
closed = 1;
nodes = (
(402,0,l),
(519,0,l),
(370,697,l),
(287,697,l),
(-108,0,l),
(8,0,l),
(94,158,l),
(373,158,l)
);
},
{
closed = 1;
nodes = (
(146,255,l),
(301,541,l),
(355,255,l)
);
}
);
width = 657;
}
);
note = uni1EA2;
unicode = 7842;
},
{
glyphname = Amacron;
kernLeft = A;
kernRight = A;
lastChange = "2022-12-26 08:52:03 +0000";
layers = (
{
hints = (
{
horizontal = 1;
place = (-123, 21);
target = up;
type = BottomGhost;
},
{
horizontal = 1;
place = (35, -26);
place = (35, -26);
type = Stem;
},
{
horizontal = 1;
place = (574, -20);
target = down;
type = TopGhost;
},
{
horizontal = 1;
place = (658, -62);
place = (658, -62);
type = Stem;
},
{
place = (68, 150);
place = (68, 150);
type = Stem;
}
);
layerId = m01;
shapes = (
{
closed = 1;
nodes = (
(490,842,l),
(217,842,l),
(206,781,l),
(479,781,l)
);
},
{
closed = 1;
nodes = (
(402,0,l),
(519,0,l),
(370,697,l),
(287,697,l),
(-108,0,l),
(8,0,l),
(94,158,l),
(373,158,l)
);
},
{
closed = 1;
nodes = (
(146,255,l),
(301,541,l),
(355,255,l)
);
}
);
width = 657;
}
);
note = Amacron;
unicode = 256;
},
{
glyphname = Aogonek;
kernLeft = A;
kernRight = A;
lastChange = "2022-12-26 08:52:03 +0000";
layers = (
{
hints = (
{
horizontal = 1;
place = (-342, -59);
place = (-342, -59);
type = Stem;
},
{
horizontal = 1;
place = (-123, 21);
target = up;
type = BottomGhost;
},
{
horizontal = 1;
place = (35, -26);
place = (35, -26);
type = Stem;
},
{
horizontal = 1;
place = (574, -20);
target = down;
type = TopGhost;
},
{
place = (354, -60);
place = (354, -60);
type = Stem;
}
);
layerId = m01;
shapes = (
{
closed = 1;
nodes = (
(488,-127,l),
(471,-145,o),
(451,-155,o),
(430,-155,cs),
(408,-155,o),
(392,-145,o),
(397,-114,cs),
(409,-46,o),
(499,-10,o),
(519,0,c),
(370,697,l),
(287,697,l),
(-108,0,l),
(8,0,l),
(94,158,l),
(373,158,l),
(402,0,l),
(436,0,l),
(397,-21,o),
(343,-63,o),
(332,-124,cs),
(322,-182,o),
(361,-219,o),
(420,-219,cs),
(466,-219,o),
(503,-197,o),
(533,-164,c)
);
},
{
closed = 1;
nodes = (
(146,255,l),
(301,541,l),
(355,255,l)
);
}
);
width = 657;
}
);
note = Aogonek;
unicode = 260;
},
{
glyphname = Aring;
kernLeft = A;
kernRight = A;
lastChange = "2022-12-26 08:52:03 +0000";
layers = (
{
hints = (
{
horizontal = 1;
place = (-123, 21);
target = up;
type = BottomGhost;
},
{
horizontal = 1;
place = (35, -26);
place = (35, -26);
type = Stem;
},
{
horizontal = 1;
place = (716, -66);
place = (716, -66);
type = Stem;
},
{
place = (97, -67);
place = (97, -67);
type = Stem;
},
{
place = (257, -66);
place = (257, -66);
type = Stem;
}
);
layerId = m01;
shapes = (
{
closed = 1;
nodes = (
(402,0,l),
(519,0,l),
(372,689,l),
(413,706,o),
(445,744,o),
(453,787,cs),
(464,848,o),
(421,896,o),
(363,896,cs),
(304,896,o),
(246,847,o),
(236,787,cs),
(228,744,o),
(248,706,o),
(283,689,c),
(-108,0,l),
(8,0,l),
(94,158,l),
(373,158,l)
);
},
{
closed = 1;
nodes = (
(385,839,o),
(401,818,o),
(396,788,cs),
(391,758,o),
(366,735,o),
(335,735,cs),
(306,735,o),
(287,758,o),
(292,788,cs),
(297,818,o),
(322,839,o),
(353,839,cs)
);
},
{
closed = 1;
nodes = (
(146,255,l),
(301,541,l),
(355,255,l)
);
}
);
width = 657;
}
);
note = Aring;
unicode = 197;
},
{
glyphname = Atilde;
kernLeft = A;
kernRight = A;
lastChange = "2022-12-26 08:52:03 +0000";
layers = (
{
hints = (
{
horizontal = 1;
place = (-123, 21);
target = up;
type = BottomGhost;
},
{
horizontal = 1;
place = (35, -26);
place = (35, -26);
type = Stem;
},
{
horizontal = 1;
place = (574, -20);
target = down;
type = TopGhost;
},
{
horizontal = 1;
place = (717, -59);
place = (717, -59);
type = Stem;
},
{
place = (41, -63);
place = (41, -63);
type = Stem;
},
{
place = (306, -60);
place = (306, -60);
type = Stem;
},
{
horizontal = 1;
place = (642, -59);
place = (642, -59);
type = Stem;
}
);
layerId = m01;
shapes = (
{
closed = 1;
nodes = (
(329,840,o),
(326,765,o),
(405,765,cs),
(465,765,o),
(513,814,o),
(528,901,c),
(465,901,l),
(457,855,o),
(437,829,o),
(417,829,cs),
(376,829,o),
(373,904,o),
(302,904,cs),
(239,904,o),
(192,855,o),
(177,770,c),
(237,770,l),
(245,815,o),
(263,840,o),
(287,840,cs)
);
},
{
closed = 1;
nodes = (
(402,0,l),
(519,0,l),
(370,697,l),
(287,697,l),
(-108,0,l),
(8,0,l),
(94,158,l),
(373,158,l)
);
},
{
closed = 1;
nodes = (
(146,255,l),
(301,541,l),
(355,255,l)
);
}
);
width = 657;
}
);
note = Atilde;
unicode = 195;
},
{
glyphname = AE;
kernLeft = A;
lastChange = "2022-12-26 08:52:03 +0000";
layers = (
{
hints = (
{
horizontal = 1;
place = (-123, -26);
place = (-123, -26);
type = Stem;
},
{
horizontal = 1;
place = (34, -28);
place = (34, -28);
type = Stem;
},
{
horizontal = 1;
place = (181, -33);
place = (181, -33);
type = Stem;
},
{
horizontal = 1;
place = (480, -29);
place = (480, -29);
type = Stem;
},
{
place = (277, -14);
place = (277, -14);
type = Stem;
},
{
horizontal = 1;
place = (484, -33);
place = (484, -33);
type = Stem;
}
);
layerId = m01;
shapes = (
{
closed = 1;
nodes = (
(-108,0,l),
(8,0,l),
(93,157,l),
(305,157,l),
(277,0,l),
(743,0,l),
(760,97,l),
(403,97,l),
(440,304,l),
(752,304,l),
(768,394,l),
(456,394,l),
(492,603,l),
(849,603,l),
(866,697,l),
(287,697,l)
);
},
{
closed = 1;
nodes = (
(146,252,l),
(336,607,l),
(384,607,l),
(322,252,l)
);
}
);
width = 918;
}
);
note = AE;
unicode = 198;
},
{
glyphname = B;
kernLeft = B;
kernRight = B;
lastChange = "2022-12-26 08:52:03 +0000";
layers = (
{
hints = (
{
horizontal = 1;
place = (-123, -24);
place = (-123, -24);
type = Stem;
},
{
horizontal = 1;
place = (191, -26);
place = (191, -26);
type = Stem;
},
{
horizontal = 1;
place = (475, -24);
place = (475, -24);
type = Stem;
},
{
place = (-26, -16);
place = (-26, -16);
type = Stem;
},
{
place = (353, -16);
place = (353, -16);
type = Stem;
},
{
place = (317, -16);
place = (317, -16);
type = Stem;
}
);
layerId = m01;
shapes = (
{
closed = 1;
nodes = (
(112,697,ls),
(102,697,o),
(96,692,o),
(94,682,cs),
(-26,0,l),
(235,0,ls),
(377,0,o),
(473,74,o),
(496,201,cs),
(511,290,o),
(481,349,o),
(408,374,c),
(465,401,o),
(504,454,o),
(516,522,cs),
(536,632,o),
(466,697,o),
(330,697,cs)
);
},
{
closed = 1;
nodes = (
(154,411,l),
(187,598,l),
(313,598,ls),
(383,598,o),
(417,564,o),
(406,503,cs),
(395,444,o),
(352,411,o),
(285,411,cs)
);
},
{
closed = 1;
nodes = (
(99,99,l),
(136,314,l),
(288,314,ls),
(365,314,o),
(402,276,o),
(390,210,cs),
(378,140,o),
(324,99,o),
(244,99,cs)
);
}
);
width = 632;
}
);
note = B;
unicode = 66;
},
{
glyphname = C;
kernLeft = C;
kernRight = C;
lastChange = "2022-12-26 08:52:03 +0000";
layers = (
{
hints = (
{
horizontal = 1;
place = (-136, -21);
place = (-136, -21);
type = Stem;
},
{
horizontal = 1;
place = (486, -21);
place = (486, -21);
type = Stem;
},
{
place = (-74, -16);
place = (-74, -16);
type = Stem;
}
);
layerId = m01;
shapes = (
{
closed = 1;
nodes = (
(515,223,ls),
(507,226,o),
(500,223,o),
(495,214,cs),
(445,131,o),
(369,89,o),
(273,89,cs),
(132,89,o),
(65,183,o),
(95,350,cs),
(124,516,o),
(223,609,o),
(366,609,cs),
(461,609,o),
(521,569,o),
(542,487,cs),
(544,478,o),
(551,474,o),
(560,478,cs),
(651,511,l),
(623,642,o),
(529,711,o),
(384,711,cs),
(180,711,o),
(27,573,o),
(-12,349,cs),
(-52,126,o),
(52,-13,o),
(255,-13,cs),
(401,-13,o),
(522,58,o),
(597,190,c)
);
}
);
width = 717;
}
);
note = C;
unicode = 67;
},
{
glyphname = Cacute;
kernLeft = C;
kernRight = C;
lastChange = "2022-12-26 08:52:03 +0000";
layers = (
{
hints = (
{
horizontal = 1;
place = (-136, -21);
place = (-136, -21);
type = Stem;
},
{
horizontal = 1;
place = (486, -21);
place = (486, -21);
type = Stem;
},
{
horizontal = 1;
place = (636, 19);
place = (636, 19);
type = Stem;
},
{
place = (-74, -16);
place = (-74, -16);
type = Stem;
}
);
layerId = m01;
shapes = (
{
closed = 1;
nodes = (
(359,759,l),
(436,759,l),
(605,901,l),
(494,901,l)
);
},
{
closed = 1;
nodes = (
(401,-13,o),
(522,58,o),
(597,190,c),
(502,228,l),
(453,136,o),
(374,89,o),
(273,89,cs),
(132,89,o),
(65,183,o),
(95,350,cs),
(124,516,o),
(223,609,o),
(366,609,cs),
(466,609,o),
(529,564,o),
(546,473,c),
(651,511,l),
(623,642,o),
(529,711,o),
(384,711,cs),
(180,711,o),
(27,573,o),
(-12,349,cs),
(-52,126,o),
(52,-13,o),
(255,-13,cs)
);
}
);
width = 717;
}
);
note = Cacute;
unicode = 262;
},
{
glyphname = Ccaron;
kernLeft = C;
kernRight = C;
lastChange = "2022-12-26 08:52:03 +0000";
layers = (
{
hints = (
{
horizontal = 1;
place = (-136, -21);
place = (-136, -21);
type = Stem;
},
{
horizontal = 1;
place = (486, -21);
place = (486, -21);
type = Stem;
},
{
place = (-74, -16);
place = (-74, -16);
type = Stem;
}
);
layerId = m01;
shapes = (
{
closed = 1;
nodes = (
(394,741,l),
(576,901,l),
(495,901,l),
(409,825,l),
(349,901,l),
(268,901,l)
);
},
{
closed = 1;
nodes = (
(401,-13,o),
(522,58,o),
(597,190,c),
(502,228,l),
(453,136,o),
(374,89,o),
(273,89,cs),
(132,89,o),
(65,183,o),
(95,350,cs),
(124,516,o),
(223,609,o),
(366,609,cs),
(466,609,o),
(529,564,o),
(546,473,c),
(651,511,l),
(623,642,o),
(529,711,o),
(384,711,cs),
(180,711,o),
(27,573,o),
(-12,349,cs),
(-52,126,o),
(52,-13,o),
(255,-13,cs)
);
}
);
width = 717;
}
);
note = Ccaron;
unicode = 268;
},
{
glyphname = Ccedilla;
kernLeft = C;
kernRight = C;
lastChange = "2022-12-26 08:52:03 +0000";
layers = (
{
hints = (
{
horizontal = 1;
place = (-380, -63);
place = (-380, -63);
type = Stem;
},
{
horizontal = 1;
place = (-135, -22);
place = (-135, -22);
type = Stem;
},
{
horizontal = 1;
place = (486, -21);
place = (486, -21);
type = Stem;
},
{
place = (-74, -16);
place = (-74, -16);
type = Stem;
},
{
place = (296, -63);
place = (296, -63);
type = Stem;
}
);
layerId = m01;
shapes = (
{
closed = 1;
nodes = (
(502,228,l),
(453,136,o),
(374,89,o),
(273,89,cs),
(132,89,o),
(65,183,o),
(95,350,cs),
(124,516,o),
(223,609,o),
(366,609,cs),
(466,609,o),
(529,564,o),
(546,473,c),
(651,511,l),
(623,642,o),
(529,711,o),
(384,711,cs),
(180,711,o),
(27,573,o),
(-12,349,cs),
(-50,138,o),
(41,2,o),
(223,-12,c),
(157,-95,l),
(182,-95,o),
(205,-97,o),
(223,-100,cs),
(252,-106,o),
(275,-122,o),
(269,-152,cs),
(264,-180,o),
(243,-197,o),
(214,-197,cs),
(198,-197,o),
(178,-191,o),
(163,-170,c),
(121,-220,l),
(143,-247,o),
(175,-257,o),
(202,-257,cs),
(266,-257,o),
(319,-211,o),
(330,-150,cs),
(336,-114,o),
(324,-88,o),
(297,-71,cs),
(283,-63,o),
(266,-58,o),
(246,-54,c),
(283,-12,l),
(417,-3,o),
(527,67,o),
(597,190,c)
);
}
);
width = 717;
}
);
note = Ccedilla;
unicode = 199;
},
{
glyphname = Cdotaccent;
kernLeft = C;
kernRight = C;
lastChange = "2022-12-26 08:52:03 +0000";
layers = (
{
hints = (
{
horizontal = 1;
place = (-136, -21);
place = (-136, -21);
type = Stem;
},
{
horizontal = 1;
place = (486, -21);
place = (486, -21);
type = Stem;
},
{
horizontal = 1;
place = (670, -15);
place = (670, -15);
type = Stem;
},
{
place = (-74, -16);
place = (-74, -16);
type = Stem;
},
{
place = (208, -13);
place = (208, -13);
type = Stem;
}
);
layerId = m01;
shapes = (
{
closed = 1;
nodes = (
(348,793,l),
(458,793,l),
(477,901,l),
(367,901,l)
);
},
{
closed = 1;
nodes = (
(401,-13,o),
(522,58,o),
(597,190,c),
(502,228,l),
(453,136,o),
(374,89,o),
(273,89,cs),
(132,89,o),
(65,183,o),
(95,350,cs),
(124,516,o),
(223,609,o),
(366,609,cs),
(466,609,o),
(529,564,o),
(546,473,c),
(651,511,l),
(623,642,o),
(529,711,o),
(384,711,cs),
(180,711,o),
(27,573,o),
(-12,349,cs),
(-52,126,o),
(52,-13,o),
(255,-13,cs)
);
}
);
width = 717;
}
);
note = Cdotaccent;
unicode = 266;
},
{
glyphname = D;
kernLeft = B;
kernRight = D;
lastChange = "2022-12-26 08:52:03 +0000";
layers = (
{
hints = (
{
horizontal = 1;
place = (-123, -24);
place = (-123, -24);
type = Stem;
},
{
horizontal = 1;
place = (475, -24);
place = (475, -24);
type = Stem;
},
{
place = (-26, -16);
place = (-26, -16);
type = Stem;
},
{
place = (424, -15);
place = (424, -15);
type = Stem;
}
);
layerId = m01;
shapes = (
{
closed = 1;
nodes = (
(-26,0,l),
(170,0,ls),
(405,0,o),
(553,121,o),
(593,343,cs),
(632,569,o),
(524,697,o),
(294,697,cs),
(112,697,ls),
(104,697,o),
(96,690,o),
(94,682,cs)
);
},
{
closed = 1;
nodes = (
(99,99,l),
(187,598,l),
(276,598,ls),
(449,598,o),
(515,518,o),
(485,347,cs),
(455,175,o),
(361,99,o),
(178,99,cs)
);
}
);
width = 702;
}
);
note = D;
unicode = 68;
},
{
glyphname = Eth;
kernLeft = B;
kernRight = D;
lastChange = "2022-12-26 08:52:03 +0000";
layers = (
{
hints = (
{
horizontal = 1;
place = (-123, -24);
place = (-123, -24);
type = Stem;
},
{
horizontal = 1;
place = (191, -54);
place = (191, -54);
type = Stem;
},
{
horizontal = 1;
place = (475, -24);
place = (475, -24);
type = Stem;
},
{
place = (-26, -16);
place = (-26, -16);
type = Stem;
},
{
place = (424, -15);
place = (424, -15);
type = Stem;
}
);
layerId = m01;
shapes = (
{
closed = 1;
nodes = (
(97,697,l),
(42,383,l),
(-36,383,l),
(-49,314,l),
(29,314,l),
(-26,0,l),
(170,0,ls),
(405,0,o),
(553,121,o),
(593,343,cs),
(632,569,o),
(524,697,o),
(294,697,cs)
);
},
{
closed = 1;
nodes = (
(99,99,l),
(136,314,l),
(256,314,l),
(269,383,l),
(149,383,l),
(187,598,l),
(276,598,ls),
(449,598,o),
(515,518,o),
(485,347,cs),
(455,175,o),
(361,99,o),
(178,99,cs)
);
}
);
width = 702;
}
);
note = Eth;
unicode = 208;
},
{
glyphname = Dcaron;
kernLeft = B;
kernRight = D;
lastChange = "2022-12-26 08:52:03 +0000";
layers = (
{
hints = (
{
horizontal = 1;
place = (-123, -24);
place = (-123, -24);
type = Stem;
},
{
horizontal = 1;
place = (475, -24);
place = (475, -24);
type = Stem;
},
{
place = (-26, -16);
place = (-26, -16);
type = Stem;
},
{
place = (424, -15);
place = (424, -15);
type = Stem;
}
);
layerId = m01;
shapes = (
{
closed = 1;
nodes = (
(360,741,l),
(542,901,l),
(461,901,l),
(375,825,l),
(315,901,l),
(234,901,l)
);
},
{
closed = 1;
nodes = (
(-26,0,l),
(170,0,ls),
(405,0,o),
(553,121,o),
(593,343,cs),
(632,569,o),
(524,697,o),
(294,697,cs),
(97,697,l)
);
},
{
closed = 1;
nodes = (
(99,99,l),
(187,598,l),
(276,598,ls),
(449,598,o),
(515,518,o),
(485,347,cs),
(455,175,o),
(361,99,o),
(178,99,cs)
);
}
);
width = 702;
}
);
note = Dcaron;
unicode = 270;
},
{
glyphname = Dcroat;
kernLeft = B;
kernRight = D;
lastChange = "2022-12-26 08:52:03 +0000";
layers = (
{
hints = (
{
horizontal = 1;
place = (-123, -24);
place = (-123, -24);
type = Stem;
},
{
horizontal = 1;
place = (191, -54);
place = (191, -54);
type = Stem;
},
{
horizontal = 1;
place = (475, -24);
place = (475, -24);
type = Stem;
},
{
place = (-26, -16);
place = (-26, -16);
type = Stem;
},
{
place = (424, -15);
place = (424, -15);
type = Stem;
}
);
layerId = m01;
shapes = (
{
closed = 1;
nodes = (
(97,697,l),
(42,383,l),
(-36,383,l),
(-49,314,l),
(29,314,l),
(-26,0,l),
(170,0,ls),
(405,0,o),
(553,121,o),
(593,343,cs),
(632,569,o),
(524,697,o),
(294,697,cs)
);
},
{
closed = 1;
nodes = (
(99,99,l),
(136,314,l),
(256,314,l),
(269,383,l),
(149,383,l),
(187,598,l),
(276,598,ls),
(449,598,o),
(515,518,o),
(485,347,cs),
(455,175,o),
(361,99,o),
(178,99,cs)
);
}
);
width = 702;
}
);
note = Dcroat;
unicode = 272;
},
{
glyphname = E;
kernLeft = B;
lastChange = "2022-12-26 08:52:03 +0000";
layers = (
{
hints = (
{
horizontal = 1;
place = (-123, -24);
place = (-123, -24);
type = Stem;
},
{
horizontal = 1;
place = (185, -24);
place = (185, -24);
type = Stem;
},
{
horizontal = 1;
place = (475, -24);
place = (475, -24);
type = Stem;
},
{
place = (-26, -16);
place = (-26, -16);
type = Stem;
}
);
layerId = m01;
shapes = (
{
closed = 1;
nodes = (
(475,392,ls),
(477,402,o),
(473,407,o),
(463,407,cs),
(153,407,l),
(187,598,l),
(541,598,l),
(558,697,l),
(97,697,l),
(-26,0,l),
(435,0,l),
(453,99,l),
(99,99,l),
(135,308,l),
(460,308,l)
);
}
);
width = 617;
}
);
note = E;
unicode = 69;
},
{
glyphname = Eacute;
kernLeft = B;
lastChange = "2022-12-26 08:52:03 +0000";
layers = (
{
hints = (
{
horizontal = 1;
place = (-123, -24);
place = (-123, -24);
type = Stem;
},
{
horizontal = 1;
place = (185, -24);
place = (185, -24);
type = Stem;
},
{
horizontal = 1;
place = (475, -24);
place = (475, -24);
type = Stem;
},
{
horizontal = 1;
place = (636, 19);
place = (636, 19);
type = Stem;
},
{
place = (-26, -16);
place = (-26, -16);
type = Stem;
}
);
layerId = m01;
shapes = (
{
closed = 1;
nodes = (
(300,759,l),
(377,759,l),
(546,901,l),
(435,901,l)
);
},
{
closed = 1;
nodes = (
(-26,0,l),
(435,0,l),
(453,99,l),
(99,99,l),
(135,308,l),
(460,308,l),
(478,407,l),
(153,407,l),
(187,598,l),
(541,598,l),
(558,697,l),
(97,697,l)
);
}
);
width = 617;
}
);
note = Eacute;
unicode = 201;
},
{
glyphname = Ecaron;
kernLeft = B;
lastChange = "2022-12-26 08:52:03 +0000";
layers = (
{
hints = (
{
horizontal = 1;
place = (-123, -24);
place = (-123, -24);
type = Stem;
},
{
horizontal = 1;
place = (185, -24);
place = (185, -24);
type = Stem;
},
{
horizontal = 1;
place = (475, -24);
place = (475, -24);
type = Stem;
},
{
place = (-26, -16);
place = (-26, -16);
type = Stem;
}
);
layerId = m01;
shapes = (
{
closed = 1;
nodes = (
(335,741,l),
(517,901,l),
(436,901,l),
(350,825,l),
(290,901,l),
(209,901,l)
);
},
{
closed = 1;
nodes = (
(-26,0,l),
(435,0,l),
(453,99,l),
(99,99,l),
(135,308,l),
(460,308,l),
(478,407,l),
(153,407,l),
(187,598,l),
(541,598,l),
(558,697,l),
(97,697,l)
);
}
);
width = 617;
}
);
note = Ecaron;
unicode = 282;
},
{
glyphname = Ecircumflex;
kernLeft = B;
lastChange = "2022-12-26 08:52:03 +0000";
layers = (
{
hints = (
{
horizontal = 1;
place = (-123, -24);
place = (-123, -24);
type = Stem;
},
{
horizontal = 1;
place = (185, -24);
place = (185, -24);
type = Stem;
},
{
horizontal = 1;
place = (475, -24);
place = (475, -24);
type = Stem;
},
{
place = (-26, -16);
place = (-26, -16);
type = Stem;
}
);
layerId = m01;
shapes = (
{
closed = 1;
nodes = (
(182,747,l),
(264,747,l),
(350,828,l),
(409,747,l),
(490,747,l),
(366,916,l)
);
},
{
closed = 1;
nodes = (
(-26,0,l),
(435,0,l),
(453,99,l),
(99,99,l),
(135,308,l),
(460,308,l),
(478,407,l),
(153,407,l),
(187,598,l),
(541,598,l),
(558,697,l),
(97,697,l)
);
}
);
width = 617;
}
);
note = Ecircumflex;
unicode = 202;
},
{
glyphname = uni1EBE;
kernLeft = B;
lastChange = "2022-12-26 08:52:03 +0000";
layers = (
{
hints = (
{
horizontal = 1;
place = (-123, -24);
place = (-123, -24);
type = Stem;
},
{
horizontal = 1;
place = (185, -24);
place = (185, -24);
type = Stem;
},
{
horizontal = 1;
place = (475, -24);
place = (475, -24);
type = Stem;
},
{
horizontal = 1;
place = (824, 19);
place = (824, 19);
type = Stem;
},
{
place = (-26, -16);
place = (-26, -16);
type = Stem;
}
);
layerId = m01;
shapes = (
{
closed = 1;
nodes = (
(333,947,l),
(410,947,l),
(579,1089,l),
(468,1089,l)
);
},
{
closed = 1;
nodes = (
(182,747,l),
(264,747,l),
(350,828,l),
(409,747,l),
(490,747,l),
(366,916,l)
);
},
{
closed = 1;
nodes = (
(-26,0,l),
(435,0,l),
(453,99,l),
(99,99,l),
(135,308,l),
(460,308,l),
(478,407,l),
(153,407,l),
(187,598,l),
(541,598,l),
(558,697,l),
(97,697,l)
);
}
);
width = 617;
}
);
note = uni1EBE;
unicode = 7870;
},
{
glyphname = uni1EC6;
kernLeft = B;
lastChange = "2022-12-26 08:52:03 +0000";
layers = (
{
hints = (
{
horizontal = 1;
place = (-296, -15);
place = (-296, -15);
type = Stem;
},
{
horizontal = 1;
place = (-123, -24);
place = (-123, -24);
type = Stem;
},
{
horizontal = 1;
place = (185, -24);
place = (185, -24);
type = Stem;
},
{
horizontal = 1;
place = (475, -24);
place = (475, -24);
type = Stem;
},
{
place = (-26, -16);
place = (-26, -16);
type = Stem;
},
{
place = (149, -13);
place = (149, -13);
type = Stem;
}
);
layerId = m01;
shapes = (
{
closed = 1;
nodes = (
(182,747,l),
(264,747,l),
(350,828,l),
(409,747,l),
(490,747,l),
(366,916,l)
);
},
{
closed = 1;
nodes = (
(-26,0,l),
(435,0,l),
(453,99,l),
(99,99,l),
(135,308,l),
(460,308,l),
(478,407,l),
(153,407,l),
(187,598,l),
(541,598,l),
(558,697,l),
(97,697,l)
);
},
{
closed = 1;
nodes = (
(119,-173,l),
(229,-173,l),
(248,-65,l),
(138,-65,l)
);
}
);
width = 617;
}
);
note = uni1EC6;
unicode = 7878;
},
{
glyphname = uni1EC0;
kernLeft = B;
lastChange = "2022-12-26 08:52:03 +0000";
layers = (
{
hints = (
{
horizontal = 1;
place = (-123, -24);
place = (-123, -24);
type = Stem;
},
{
horizontal = 1;
place = (185, -24);
place = (185, -24);
type = Stem;
},
{
horizontal = 1;
place = (475, -24);
place = (475, -24);
type = Stem;
},
{
horizontal = 1;
place = (824, 19);
place = (824, 19);
type = Stem;
},
{
place = (-26, -16);
place = (-26, -16);
type = Stem;
}
);
layerId = m01;
shapes = (
{
closed = 1;
nodes = (
(332,947,l),
(410,947,l),
(331,1089,l),
(221,1089,l)
);
},
{
closed = 1;
nodes = (
(182,747,l),
(264,747,l),
(350,828,l),
(409,747,l),
(490,747,l),
(366,916,l)
);
},
{
closed = 1;
nodes = (
(-26,0,l),
(435,0,l),
(453,99,l),
(99,99,l),
(135,308,l),
(460,308,l),
(478,407,l),
(153,407,l),
(187,598,l),
(541,598,l),
(558,697,l),
(97,697,l)
);
}
);
width = 617;
}
);
note = uni1EC0;
unicode = 7872;
},
{
glyphname = uni1EC2;
kernLeft = B;
lastChange = "2022-12-26 08:52:03 +0000";
layers = (
{
hints = (
{
horizontal = 1;
place = (-123, -24);
place = (-123, -24);
type = Stem;
},
{
horizontal = 1;
place = (185, -24);
place = (185, -24);
type = Stem;
},
{
horizontal = 1;
place = (475, -24);
place = (475, -24);
type = Stem;
},
{
horizontal = 1;
place = (930, -66);
place = (930, -66);
type = Stem;
},
{
place = (-26, -16);
place = (-26, -16);
type = Stem;
},
{
place = (250, -57);
place = (250, -57);
type = Stem;
}
);
layerId = m01;
shapes = (
{
closed = 1;
nodes = (
(359,924,l),
(411,933,o),
(483,944,o),
(495,1013,cs),
(506,1076,o),
(452,1110,o),
(366,1110,cs),
(351,1110,l),
(341,1053,l),
(356,1053,ls),
(396,1053,o),
(435,1048,o),
(429,1012,cs),
(423,980,o),
(387,974,o),
(354,970,c)
);
},
{
closed = 1;
nodes = (
(182,747,l),
(264,747,l),
(350,828,l),
(409,747,l),
(490,747,l),
(366,916,l)
);
},
{
closed = 1;
nodes = (
(-26,0,l),
(435,0,l),
(453,99,l),
(99,99,l),
(135,308,l),
(460,308,l),
(478,407,l),
(153,407,l),
(187,598,l),
(541,598,l),
(558,697,l),
(97,697,l)
);
}
);
width = 617;
}
);
note = uni1EC2;
unicode = 7874;
},
{
glyphname = uni1EC4;
kernLeft = B;
lastChange = "2022-12-26 08:52:03 +0000";
layers = (
{
hints = (
{
horizontal = 1;
place = (-123, -24);
place = (-123, -24);
type = Stem;
},
{
horizontal = 1;
place = (185, -24);
place = (185, -24);
type = Stem;
},
{
horizontal = 1;
place = (475, -24);
place = (475, -24);
type = Stem;
},
{
horizontal = 1;
place = (830, -59);
place = (830, -59);
type = Stem;
},
{
horizontal = 1;
place = (905, -59);
place = (905, -59);
type = Stem;
},
{
place = (-26, -16);
place = (-26, -16);
type = Stem;
},
{
place = (305, -60);
place = (305, -60);
type = Stem;
},
{
place = (40, -63);
place = (40, -63);
type = Stem;
}
);
layerId = m01;
shapes = (
{
closed = 1;
nodes = (
(497,953,o),
(545,1002,o),
(560,1089,c),
(497,1089,l),
(489,1043,o),
(469,1017,o),
(449,1017,cs),
(408,1017,o),
(406,1092,o),
(335,1092,cs),
(272,1092,o),
(224,1043,o),
(209,958,c),
(269,958,l),
(277,1003,o),
(295,1028,o),
(319,1028,cs),
(361,1028,o),
(358,953,o),
(437,953,cs)
);
},
{
closed = 1;
nodes = (
(182,747,l),
(264,747,l),
(350,828,l),
(409,747,l),
(490,747,l),
(366,916,l)
);
},
{
closed = 1;
nodes = (
(-26,0,l),
(435,0,l),
(453,99,l),
(99,99,l),
(135,308,l),
(460,308,l),
(478,407,l),
(153,407,l),
(187,598,l),
(541,598,l),
(558,697,l),
(97,697,l)
);
}
);
width = 617;
}
);
note = uni1EC4;
unicode = 7876;
},
{
glyphname = Edieresis;
kernLeft = B;
lastChange = "2022-12-26 08:52:03 +0000";
layers = (
{
hints = (
{
horizontal = 1;
place = (-123, -24);
place = (-123, -24);
type = Stem;
},
{
horizontal = 1;
place = (185, -24);
place = (185, -24);
type = Stem;
},
{
horizontal = 1;
place = (475, -24);
place = (475, -24);
type = Stem;
},
{
horizontal = 1;
place = (670, -15);
place = (670, -15);
type = Stem;
},
{
place = (63, -29);
place = (63, -29);
type = Stem;
},
{
place = (253, -29);
place = (253, -29);
type = Stem;
},
{
place = (-26, -16);
place = (-26, -16);
type = Stem;
}
);
layerId = m01;
shapes = (
{
closed = 1;
nodes = (
(203,793,l),
(297,793,l),
(316,901,l),
(222,901,l)
);
},
{
closed = 1;
nodes = (
(393,793,l),
(487,793,l),
(506,901,l),
(412,901,l)
);
},
{
closed = 1;
nodes = (
(-26,0,l),
(435,0,l),
(453,99,l),
(99,99,l),
(135,308,l),
(460,308,l),
(478,407,l),
(153,407,l),
(187,598,l),
(541,598,l),
(558,697,l),
(97,697,l)
);
}
);
width = 617;
}
);
note = Edieresis;
unicode = 203;
},
{
glyphname = Edotaccent;
kernLeft = B;
lastChange = "2022-12-26 08:52:03 +0000";
layers = (
{
hints = (
{
horizontal = 1;
place = (-123, -24);
place = (-123, -24);
type = Stem;
},
{
horizontal = 1;
place = (185, -24);
place = (185, -24);
type = Stem;
},
{
horizontal = 1;
place = (475, -24);
place = (475, -24);
type = Stem;
},
{
horizontal = 1;
place = (670, -15);
place = (670, -15);
type = Stem;
},
{
place = (-26, -16);
place = (-26, -16);
type = Stem;
},
{
place = (149, -13);
place = (149, -13);
type = Stem;
}
);
layerId = m01;
shapes = (
{
closed = 1;
nodes = (
(289,793,l),
(399,793,l),
(418,901,l),
(308,901,l)
);
},
{
closed = 1;
nodes = (
(-26,0,l),
(435,0,l),
(453,99,l),
(99,99,l),
(135,308,l),
(460,308,l),
(478,407,l),
(153,407,l),
(187,598,l),
(541,598,l),
(558,697,l),
(97,697,l)
);
}
);
width = 617;
}
);
note = Edotaccent;
unicode = 278;
},
{
glyphname = uni1EB8;
kernLeft = B;
lastChange = "2022-12-26 08:52:03 +0000";
layers = (
{
hints = (
{
horizontal = 1;
place = (-296, -15);
place = (-296, -15);
type = Stem;
},
{
horizontal = 1;
place = (-123, -24);
place = (-123, -24);
type = Stem;
},
{
horizontal = 1;
place = (185, -24);
place = (185, -24);
type = Stem;
},
{
horizontal = 1;
place = (475, -24);
place = (475, -24);
type = Stem;
},
{
place = (-26, -16);
place = (-26, -16);
type = Stem;
},
{
place = (149, -13);
place = (149, -13);
type = Stem;
}
);
layerId = m01;
shapes = (
{
closed = 1;
nodes = (
(-26,0,l),
(435,0,l),
(453,99,l),
(99,99,l),
(135,308,l),
(460,308,l),
(478,407,l),
(153,407,l),
(187,598,l),
(541,598,l),
(558,697,l),
(97,697,l)
);
},
{
closed = 1;
nodes = (
(119,-173,l),
(229,-173,l),
(248,-65,l),
(138,-65,l)
);
}
);
width = 617;
}
);
note = uni1EB8;
unicode = 7864;
},
{
glyphname = Egrave;
kernLeft = B;
lastChange = "2022-12-26 08:52:03 +0000";
layers = (
{
hints = (
{
horizontal = 1;
place = (-123, -24);
place = (-123, -24);
type = Stem;
},
{
horizontal = 1;
place = (185, -24);
place = (185, -24);
type = Stem;
},
{
horizontal = 1;
place = (475, -24);
place = (475, -24);
type = Stem;
},
{
horizontal = 1;
place = (636, 19);
place = (636, 19);
type = Stem;
},
{
place = (-26, -16);
place = (-26, -16);
type = Stem;
}
);
layerId = m01;
shapes = (
{
closed = 1;
nodes = (
(299,759,l),
(377,759,l),
(298,901,l),
(188,901,l)
);
},
{
closed = 1;
nodes = (
(-26,0,l),
(435,0,l),
(453,99,l),
(99,99,l),
(135,308,l),
(460,308,l),
(478,407,l),
(153,407,l),
(187,598,l),
(541,598,l),
(558,697,l),
(97,697,l)
);
}
);
width = 617;
}
);
note = Egrave;
unicode = 200;
},
{
glyphname = uni1EBA;
kernLeft = B;
lastChange = "2022-12-26 08:52:03 +0000";
layers = (
{
hints = (
{
horizontal = 1;
place = (-123, -24);
place = (-123, -24);
type = Stem;
},
{
horizontal = 1;
place = (185, -24);
place = (185, -24);
type = Stem;
},
{
horizontal = 1;
place = (475, -24);
place = (475, -24);
type = Stem;
},
{
horizontal = 1;
place = (742, -66);
place = (742, -66);
type = Stem;
},
{
place = (-26, -16);
place = (-26, -16);
type = Stem;
},
{
place = (250, -57);
place = (250, -57);
type = Stem;
}
);
layerId = m01;
shapes = (
{
closed = 1;
nodes = (
(326,736,l),
(377,745,o),
(449,756,o),
(462,825,cs),
(473,888,o),
(419,922,o),
(333,922,cs),
(318,922,l),
(308,865,l),
(323,865,ls),
(363,865,o),
(402,860,o),
(395,824,cs),
(390,792,o),
(354,786,o),
(321,782,c)
);
},
{
closed = 1;
nodes = (
(-26,0,l),
(435,0,l),
(453,99,l),
(99,99,l),
(135,308,l),
(460,308,l),
(478,407,l),
(153,407,l),
(187,598,l),
(541,598,l),
(558,697,l),
(97,697,l)
);
}
);
width = 617;
}
);
note = uni1EBA;
unicode = 7866;
},
{
glyphname = Emacron;
kernLeft = B;
lastChange = "2022-12-26 08:52:03 +0000";
layers = (
{
hints = (
{
horizontal = 1;
place = (-123, -24);
place = (-123, -24);
type = Stem;
},
{
horizontal = 1;
place = (185, -24);
place = (185, -24);
type = Stem;
},
{
horizontal = 1;
place = (475, -24);
place = (475, -24);
type = Stem;
},
{
horizontal = 1;
place = (658, -62);
place = (658, -62);
type = Stem;
},
{
place = (67, 150);
place = (67, 150);
type = Stem;
},
{
place = (-26, -16);
place = (-26, -16);
type = Stem;
}
);
layerId = m01;
shapes = (
{
closed = 1;
nodes = (
(205,781,l),
(478,781,l),
(489,842,l),
(216,842,l)
);
},
{
closed = 1;
nodes = (
(-26,0,l),
(435,0,l),
(453,99,l),
(99,99,l),
(135,308,l),
(460,308,l),
(478,407,l),
(153,407,l),
(187,598,l),
(541,598,l),
(558,697,l),
(97,697,l)
);
}
);
width = 617;
}
);
note = Emacron;
unicode = 274;
},
{
glyphname = Eogonek;
kernLeft = B;
lastChange = "2022-12-26 08:52:03 +0000";
layers = (
{
hints = (
{
horizontal = 1;
place = (-342, -59);
place = (-342, -59);
type = Stem;
},
{
horizontal = 1;
place = (-123, -24);
place = (-123, -24);
type = Stem;
},
{
horizontal = 1;
place = (185, -24);
place = (185, -24);
type = Stem;
},
{
horizontal = 1;
place = (475, -24);
place = (475, -24);
type = Stem;
},
{
place = (-26, -16);
place = (-26, -16);
type = Stem;
},
{
place = (270, -60);
place = (270, -60);
type = Stem;
},
{
place = (352, -40);
place = (352, -40);
type = Stem;
}
);
layerId = m01;
shapes = (
{
closed = 1;
nodes = (
(404,-127,l),
(387,-145,o),
(367,-155,o),
(346,-155,cs),
(324,-155,o),
(308,-145,o),
(313,-114,cs),
(325,-46,o),
(415,-10,o),
(435,0,c),
(453,99,l),
(99,99,l),
(135,308,l),
(460,308,l),
(478,407,l),
(153,407,l),
(187,598,l),
(541,598,l),
(558,697,l),
(97,697,l),
(-26,0,l),
(352,0,l),
(313,-21,o),
(259,-63,o),
(248,-124,cs),
(238,-182,o),
(277,-219,o),
(336,-219,cs),
(382,-219,o),
(419,-197,o),
(449,-164,c)
);
}
);
width = 617;
}
);
note = Eogonek;
unicode = 280;
},
{
glyphname = uni1EBC;
kernLeft = B;
lastChange = "2022-12-26 08:52:03 +0000";
layers = (
{
hints = (
{
horizontal = 1;
place = (-123, -24);
place = (-123, -24);
type = Stem;
},
{
horizontal = 1;
place = (185, -24);
place = (185, -24);
type = Stem;
},
{
horizontal = 1;
place = (475, -24);
place = (475, -24);
type = Stem;
},
{
horizontal = 1;
place = (642, -59);
place = (642, -59);
type = Stem;
},
{
horizontal = 1;
place = (717, -59);
place = (717, -59);
type = Stem;
},
{
place = (-26, -16);
place = (-26, -16);
type = Stem;
},
{
place = (305, -60);
place = (305, -60);
type = Stem;
},
{
place = (40, -63);
place = (40, -63);
type = Stem;
}
);
layerId = m01;
shapes = (
{
closed = 1;
nodes = (
(464,765,o),
(512,814,o),
(527,901,c),
(464,901,l),
(456,855,o),
(436,829,o),
(416,829,cs),
(375,829,o),
(372,904,o),
(301,904,cs),
(238,904,o),
(191,855,o),
(176,770,c),
(236,770,l),
(244,815,o),
(262,840,o),
(286,840,cs),
(328,840,o),
(325,765,o),
(404,765,cs)
);
},
{
closed = 1;
nodes = (
(-26,0,l),
(435,0,l),
(453,99,l),
(99,99,l),
(135,308,l),
(460,308,l),
(478,407,l),
(153,407,l),
(187,598,l),
(541,598,l),
(558,697,l),
(97,697,l)
);
}
);
width = 617;
}
);
note = uni1EBC;
unicode = 7868;
},
{
glyphname = F;
kernLeft = B;
kernRight = F;
lastChange = "2022-12-26 08:52:03 +0000";
layers = (
{
hints = (
{
horizontal = 1;
place = (-123, 21);
target = up;
type = BottomGhost;
},
{
horizontal = 1;
place = (185, -24);
place = (185, -24);
type = Stem;
},
{
horizontal = 1;
place = (475, -24);
place = (475, -24);
type = Stem;
},
{
place = (-26, -16);
place = (-26, -16);
type = Stem;
}
);
layerId = m01;
shapes = (
{
closed = 1;
nodes = (
(552,598,ls),
(562,598,o),
(567,603,o),
(569,613,cs),
(584,697,l),
(97,697,l),
(-26,0,l),
(27,0,l),
(90,50,l),
(135,308,l),
(469,308,l),
(487,407,l),
(153,407,l),
(187,598,l)
);
}
);
width = 613;
}
);
note = F;
unicode = 70;
},
{
glyphname = G;
kernLeft = C;
kernRight = G;
lastChange = "2022-12-26 08:52:03 +0000";
layers = (
{
hints = (
{
horizontal = 1;
place = (-136, -21);
place = (-136, -21);
type = Stem;
},
{
horizontal = 1;
place = (152, -27);
place = (152, -27);
type = Stem;
},
{
horizontal = 1;
place = (486, -21);
place = (486, -21);
type = Stem;
},
{
place = (-75, -16);
place = (-75, -16);
type = Stem;
},
{
place = (459, -18);
place = (459, -18);
type = Stem;
},
{
horizontal = 1;
place = (-123, 21);
target = up;
type = BottomGhost;
}
);
layerId = m01;
shapes = (
{
closed = 1;
nodes = (
(380,371,ls),
(370,371,o),
(364,366,o),
(362,356,cs),
(348,275,l),
(508,275,l),
(505,262,ls),
(485,146,o),
(396,89,o),
(281,89,cs),
(129,89,o),
(66,190,o),
(94,352,cs),
(122,511,o),
(219,609,o),
(365,609,cs),
(466,609,o),
(527,562,o),
(545,473,c),
(634,506,ls),
(644,510,o),
(648,516,o),
(646,525,cs),
(616,644,o),
(523,711,o),
(384,711,cs),
(173,711,o),
(23,557,o),
(-13,350,cs),
(-51,133,o),
(59,-13,o),
(256,-13,cs),
(352,-13,o),
(436,21,o),
(487,82,c),
(486,0,l),
(526,0,l),
(573,50,l),
(630,371,l)
);
}
);
width = 759;
}
);
note = G;
unicode = 71;
},
{
glyphname = Gbreve;
kernLeft = C;
kernRight = G;
lastChange = "2022-12-26 08:52:03 +0000";
layers = (
{
hints = (
{
horizontal = 1;
place = (-136, -21);
place = (-136, -21);
type = Stem;
},
{
horizontal = 1;
place = (152, -27);
place = (152, -27);
type = Stem;
},
{
horizontal = 1;
place = (486, -21);
place = (486, -21);
type = Stem;
},
{
horizontal = 1;
place = (646, -63);
place = (646, -63);
type = Stem;
},
{
place = (-75, -16);
place = (-75, -16);
type = Stem;
},
{
place = (102, -50);
place = (102, -50);
type = Stem;
},
{
place = (337, -50);
place = (337, -50);
type = Stem;
},
{
place = (459, -18);
place = (459, -18);
type = Stem;
},
{
horizontal = 1;
place = (-123, 21);
target = up;
type = BottomGhost;
}
);
layerId = m01;
shapes = (
{
closed = 1;
nodes = (
(493,769,o),
(553,812,o),
(569,901,c),
(496,901,l),
(488,855,o),
(450,829,o),
(402,829,cs),
(356,829,o),
(326,853,o),
(334,901,c),
(261,901,l),
(246,815,o),
(286,769,o),
(392,769,cs)
);
},
{
closed = 1;
nodes = (
(365,371,l),
(348,275,l),
(508,275,l),
(505,262,ls),
(485,146,o),
(396,89,o),
(281,89,cs),
(129,89,o),
(66,190,o),
(94,352,cs),
(122,511,o),
(219,609,o),
(365,609,cs),
(466,609,o),
(527,562,o),
(545,473,c),
(649,511,l),
(623,639,o),
(528,711,o),
(384,711,cs),
(173,711,o),
(23,557,o),
(-13,350,cs),
(-51,133,o),
(59,-13,o),
(256,-13,cs),
(352,-13,o),
(436,21,o),
(487,82,c),
(486,0,l),
(564,0,l),
(630,371,l)
);
}
);
width = 759;
}
);
note = Gbreve;
unicode = 286;
},
{
glyphname = uni0122;
kernLeft = C;
kernRight = G;
lastChange = "2022-12-26 08:52:03 +0000";
layers = (
{
hints = (
{
horizontal = 1;
place = (-136, -21);
place = (-136, -21);
type = Stem;
},
{
horizontal = 1;
place = (152, -27);
place = (152, -27);
type = Stem;
},
{
horizontal = 1;
place = (486, -21);
place = (486, -21);
type = Stem;
},
{
place = (-75, -16);
place = (-75, -16);
type = Stem;
},
{
place = (459, -18);
place = (459, -18);
type = Stem;
},
{
horizontal = 1;
place = (-347, 47);
place = (-347, 47);
type = Stem;
},
{
horizontal = 1;
place = (-123, 21);
target = up;
type = BottomGhost;
}
);
layerId = m01;
shapes = (
{
closed = 1;
nodes = (
(365,371,l),
(348,275,l),
(508,275,l),
(505,262,ls),
(485,146,o),
(396,89,o),
(281,89,cs),
(129,89,o),
(66,190,o),
(94,352,cs),
(122,511,o),
(219,609,o),
(365,609,cs),
(466,609,o),
(527,562,o),
(545,473,c),
(649,511,l),
(623,639,o),
(528,711,o),
(384,711,cs),
(173,711,o),
(23,557,o),
(-13,350,cs),
(-51,133,o),
(59,-13,o),
(256,-13,cs),
(352,-13,o),
(436,21,o),
(487,82,c),
(486,0,l),
(564,0,l),
(630,371,l)
);
},
{
closed = 1;
nodes = (
(89,-224,l),
(150,-224,l),
(300,-54,l),
(193,-54,l)
);
}
);
width = 759;
}
);
note = uni0122;
unicode = 290;
},
{
glyphname = Gdotaccent;
kernLeft = C;
kernRight = G;
lastChange = "2022-12-26 08:52:03 +0000";
layers = (
{
hints = (
{
horizontal = 1;
place = (-136, -21);
place = (-136, -21);
type = Stem;
},
{
horizontal = 1;
place = (152, -27);
place = (152, -27);
type = Stem;
},
{
horizontal = 1;
place = (486, -21);
place = (486, -21);
type = Stem;
},
{
horizontal = 1;
place = (670, -15);
place = (670, -15);
type = Stem;
},
{
place = (-75, -16);
place = (-75, -16);
type = Stem;
},
{
place = (201, -13);
place = (201, -13);
type = Stem;
},
{
place = (459, -18);
place = (459, -18);
type = Stem;
},
{
horizontal = 1;
place = (-123, 21);
target = up;
type = BottomGhost;
}
);
layerId = m01;
shapes = (
{
closed = 1;
nodes = (
(470,901,l),
(360,901,l),
(341,793,l),
(451,793,l)
);
},
{
closed = 1;
nodes = (
(365,371,l),
(348,275,l),
(508,275,l),
(505,262,ls),
(485,146,o),
(396,89,o),
(281,89,cs),
(129,89,o),
(66,190,o),
(94,352,cs),
(122,511,o),
(219,609,o),
(365,609,cs),
(466,609,o),
(527,562,o),
(545,473,c),
(649,511,l),
(623,639,o),
(528,711,o),
(384,711,cs),
(173,711,o),
(23,557,o),
(-13,350,cs),
(-51,133,o),
(59,-13,o),
(256,-13,cs),
(352,-13,o),
(436,21,o),
(487,82,c),
(486,0,l),
(564,0,l),
(630,371,l)
);
}
);
width = 759;
}
);
note = Gdotaccent;
unicode = 288;
},
{
glyphname = H;
kernLeft = B;
kernRight = H;
lastChange = "2022-12-26 08:52:03 +0000";
layers = (
{
hints = (
{
horizontal = 1;
place = (-123, 21);
target = up;
type = BottomGhost;
},
{
horizontal = 1;
place = (185, -24);
place = (185, -24);
type = Stem;
},
{
horizontal = 1;
place = (574, -20);
target = down;
type = TopGhost;
},
{
place = (-26, -16);
place = (-26, -16);
type = Stem;
},
{
place = (405, -16);
place = (405, -16);
type = Stem;
}
);
layerId = m01;
shapes = (
{
closed = 1;
nodes = (
(-26,0,l),
(81,0,l),
(135,308,l),
(459,308,l),
(405,0,l),
(512,0,l),
(635,697,l),
(528,697,l),
(477,407,l),
(153,407,l),
(204,697,l),
(97,697,l)
);
}
);
width = 732;
}
);
note = H;
unicode = 72;
},
{
glyphname = Hbar;
kernLeft = B;
kernRight = H;
lastChange = "2022-12-26 08:52:03 +0000";
layers = (
{
hints = (
{
horizontal = 1;
place = (-123, 21);
target = up;
type = BottomGhost;
},
{
horizontal = 1;
place = (185, -24);
place = (185, -24);
type = Stem;
},
{
horizontal = 1;
place = (402, -62);
place = (402, -62);
type = Stem;
},
{
place = (-26, -16);
place = (-26, -16);
type = Stem;
},
{
place = (405, -16);
place = (405, -16);
type = Stem;
},
{
horizontal = 1;
place = (402, 49);
place = (402, 49);
type = Stem;
}
);
layerId = m01;
shapes = (
{
closed = 1;
nodes = (
(670,586,l),
(615,586,l),
(635,697,l),
(528,697,l),
(508,586,l),
(184,586,l),
(204,697,l),
(97,697,l),
(77,586,l),
(21,586,l),
(11,525,l),
(67,525,l),
(-26,0,l),
(81,0,l),
(135,308,l),
(459,308,l),
(405,0,l),
(512,0,l),
(605,525,l),
(660,525,l)
);
},
{
closed = 1;
nodes = (
(477,407,l),
(153,407,l),
(174,525,l),
(498,525,l)
);
}
);
width = 732;
}
);
note = Hbar;
unicode = 294;
},
{
glyphname = I;
kernLeft = B;
kernRight = H;
lastChange = "2022-12-26 08:52:03 +0000";
layers = (
{
hints = (
{
horizontal = 1;
place = (-123, 21);
target = up;
type = BottomGhost;
},
{
horizontal = 1;
place = (574, -20);
target = down;
type = TopGhost;
},
{
place = (-26, -16);
place = (-26, -16);
type = Stem;
}
);
layerId = m01;
shapes = (
{
closed = 1;
nodes = (
(-26,0,l),
(81,0,l),
(204,697,l),
(97,697,l)
);
}
);
width = 300;
}
);
note = I;
unicode = 73;
},
{
glyphname = Iacute;
kernLeft = B;
kernRight = H;
lastChange = "2022-12-26 08:52:03 +0000";
layers = (
{
hints = (
{
horizontal = 1;
place = (-123, 21);
target = up;
type = BottomGhost;
},
{
horizontal = 1;
place = (574, -20);
target = down;
type = TopGhost;
},
{
horizontal = 1;
place = (636, 19);
place = (636, 19);
type = Stem;
},
{
place = (-26, -16);
place = (-26, -16);
type = Stem;
}
);
layerId = m01;
shapes = (
{
closed = 1;
nodes = (
(123,759,l),
(200,759,l),
(369,901,l),
(258,901,l)
);
},
{
closed = 1;
nodes = (
(-26,0,l),
(81,0,l),
(204,697,l),
(97,697,l)
);
}
);
width = 300;
}
);
note = Iacute;
unicode = 205;
},
{
glyphname = uni01CF;
lastChange = "2022-12-26 08:52:03 +0000";
layers = (
{
hints = (
{
horizontal = 1;
place = (-123, 21);
target = up;
type = BottomGhost;
},
{
horizontal = 1;
place = (574, -20);
target = down;
type = TopGhost;
},
{
place = (-26, -16);
place = (-26, -16);
type = Stem;
}
);
layerId = m01;
shapes = (
{
closed = 1;
nodes = (
(159,741,l),
(341,901,l),
(260,901,l),
(174,825,l),
(114,901,l),
(33,901,l)
);
},
{
closed = 1;
nodes = (
(-26,0,l),
(81,0,l),
(204,697,l),
(97,697,l)
);
}
);
width = 300;
}
);
note = uni01CF;
unicode = 463;
},
{
glyphname = Icircumflex;
kernLeft = B;
kernRight = H;
lastChange = "2022-12-26 08:52:03 +0000";
layers = (
{
hints = (
{
horizontal = 1;
place = (-123, 21);
target = up;
type = BottomGhost;
},
{
horizontal = 1;
place = (574, -20);
target = down;
type = TopGhost;
},
{
place = (-26, -16);
place = (-26, -16);
type = Stem;
}
);
layerId = m01;
shapes = (
{
closed = 1;
nodes = (
(6,747,l),
(88,747,l),
(174,828,l),
(233,747,l),
(314,747,l),
(190,916,l)
);
},
{
closed = 1;
nodes = (
(-26,0,l),
(81,0,l),
(204,697,l),
(97,697,l)
);
}
);
width = 300;
}
);
note = Icircumflex;
unicode = 206;
},
{
glyphname = Idieresis;
kernLeft = B;
kernRight = H;
lastChange = "2022-12-26 08:52:03 +0000";
layers = (
{
hints = (
{
horizontal = 1;
place = (-123, 21);
target = up;
type = BottomGhost;
},
{
horizontal = 1;
place = (574, -20);
target = down;
type = TopGhost;
},
{
horizontal = 1;
place = (670, -15);
place = (670, -15);
type = Stem;
},
{
place = (-114, -29);
place = (-114, -29);
type = Stem;
},
{
place = (76, -29);
place = (76, -29);
type = Stem;
},
{
place = (-26, -16);
place = (-26, -16);
type = Stem;
}
);
layerId = m01;
shapes = (
{
closed = 1;
nodes = (
(26,793,l),
(120,793,l),
(139,901,l),
(45,901,l)
);
},
{
closed = 1;
nodes = (
(216,793,l),
(310,793,l),
(329,901,l),
(235,901,l)
);
},
{
closed = 1;
nodes = (
(-26,0,l),
(81,0,l),
(204,697,l),
(97,697,l)
);
}
);
width = 300;
}
);
note = Idieresis;
unicode = 207;
},
{
glyphname = Idotaccent;
kernLeft = B;
kernRight = H;
lastChange = "2022-12-26 08:52:03 +0000";
layers = (
{
hints = (
{
horizontal = 1;
place = (-123, 21);
target = up;
type = BottomGhost;
},
{
horizontal = 1;
place = (574, -20);
target = down;
type = TopGhost;
},
{
horizontal = 1;
place = (670, -15);
place = (670, -15);
type = Stem;
},
{
place = (-27, -13);
place = (-27, -13);
type = Stem;
},
{
place = (-26, -16);
place = (-26, -16);
type = Stem;
}
);
layerId = m01;
shapes = (
{
closed = 1;
nodes = (
(113,793,l),
(223,793,l),
(242,901,l),
(132,901,l)
);
},
{
closed = 1;
nodes = (
(-26,0,l),
(81,0,l),
(204,697,l),
(97,697,l)
);
}
);
width = 300;
}
);
note = Idotaccent;
unicode = 304;
},
{
glyphname = uni1ECA;
lastChange = "2022-12-26 08:52:03 +0000";
layers = (
{
hints = (
{
horizontal = 1;
place = (-296, -15);
place = (-296, -15);
type = Stem;
},
{
horizontal = 1;
place = (-123, 21);
target = up;
type = BottomGhost;
},
{
horizontal = 1;
place = (574, -20);
target = down;
type = TopGhost;
},
{
place = (-26, -16);
place = (-26, -16);
type = Stem;
},
{
place = (-27, -15);
place = (-27, -15);
type = Stem;
},
{
place = (-26, -14);
place = (-26, -14);
type = Stem;
}
);
layerId = m01;
shapes = (
{
closed = 1;
nodes = (
(-26,0,l),
(81,0,l),
(204,697,l),
(97,697,l)
);
},
{
closed = 1;
nodes = (
(-57,-173,l),
(53,-173,l),
(72,-65,l),
(-38,-65,l)
);
}
);
width = 300;
}
);
note = uni1ECA;
unicode = 7882;
},
{
glyphname = Igrave;
kernLeft = B;
kernRight = H;
lastChange = "2022-12-26 08:52:03 +0000";
layers = (
{
hints = (
{
horizontal = 1;
place = (-123, 21);
target = up;
type = BottomGhost;
},
{
horizontal = 1;
place = (574, -20);
target = down;
type = TopGhost;
},
{
horizontal = 1;
place = (636, 19);
place = (636, 19);
type = Stem;
},
{
place = (-26, -16);
place = (-26, -16);
type = Stem;
}
);
layerId = m01;
shapes = (
{
closed = 1;
nodes = (
(123,759,l),
(201,759,l),
(122,901,l),
(12,901,l)
);
},
{
closed = 1;
nodes = (
(-26,0,l),
(81,0,l),
(204,697,l),
(97,697,l)
);
}
);
width = 300;
}
);
note = Igrave;
unicode = 204;
},
{
glyphname = uni1EC8;
lastChange = "2022-12-26 08:52:03 +0000";
layers = (
{
hints = (
{
horizontal = 1;
place = (-123, 21);
target = up;
type = BottomGhost;
},
{
horizontal = 1;
place = (574, -20);
target = down;
type = TopGhost;
},
{
horizontal = 1;
place = (742, -66);
place = (742, -66);
type = Stem;
},
{
place = (-26, -16);
place = (-26, -16);
type = Stem;
},
{
place = (73, -57);
place = (73, -57);
type = Stem;
}
);
layerId = m01;
shapes = (
{
closed = 1;
nodes = (
(149,736,l),
(200,745,o),
(272,756,o),
(285,825,cs),
(296,888,o),
(242,922,o),
(156,922,cs),
(141,922,l),
(131,865,l),
(146,865,ls),
(186,865,o),
(225,860,o),
(218,824,cs),
(213,792,o),
(177,786,o),
(144,782,c)
);
},
{
closed = 1;
nodes = (
(-26,0,l),
(81,0,l),
(204,697,l),
(97,697,l)
);
}
);
width = 300;
}
);
note = uni1EC8;
unicode = 7880;
},
{
glyphname = Imacron;
kernLeft = B;
kernRight = H;
lastChange = "2022-12-26 08:52:03 +0000";
layers = (
{
hints = (
{
horizontal = 1;
place = (-123, 21);
target = up;
type = BottomGhost;
},
{
horizontal = 1;
place = (574, -20);
target = down;
type = TopGhost;
},
{
horizontal = 1;
place = (658, -62);
place = (658, -62);
type = Stem;
},
{
place = (-26, -16);
place = (-26, -16);
type = Stem;
}
);
layerId = m01;
shapes = (
{
closed = 1;
nodes = (
(28,781,l),
(301,781,l),
(312,842,l),
(39,842,l)
);
},
{
closed = 1;
nodes = (
(-26,0,l),
(81,0,l),
(204,697,l),
(97,697,l)
);
}
);
width = 300;
}
);
note = Imacron;
unicode = 298;
},
{
glyphname = Iogonek;
kernLeft = B;
kernRight = H;
lastChange = "2022-12-26 08:52:03 +0000";
layers = (
{
hints = (
{
horizontal = 1;
place = (-342, -59);
place = (-342, -59);
type = Stem;
},
{
horizontal = 1;
place = (-123, 21);
target = up;
type = BottomGhost;
},
{
horizontal = 1;
place = (574, -20);
target = down;
type = TopGhost;
},
{
place = (-84, -60);
place = (-84, -60);
type = Stem;
},
{
place = (-26, -16);
place = (-26, -16);
type = Stem;
}
);
layerId = m01;
shapes = (
{
closed = 1;
nodes = (
(50,-127,l),
(33,-145,o),
(13,-155,o),
(-8,-155,cs),
(-30,-155,o),
(-46,-145,o),
(-41,-114,cs),
(-29,-46,o),
(61,-10,o),
(81,0,c),
(204,697,l),
(97,697,l),
(-26,0,l),
(-2,0,l),
(-41,-21,o),
(-95,-63,o),
(-106,-124,cs),
(-116,-182,o),
(-77,-219,o),
(-18,-219,cs),
(28,-219,o),
(65,-197,o),
(95,-164,c)
);
}
);
width = 300;
}
);
note = Iogonek;
unicode = 302;
},
{
glyphname = Itilde;
lastChange = "2022-12-26 08:52:03 +0000";
layers = (
{
hints = (
{
horizontal = 1;
place = (-123, 21);
target = up;
type = BottomGhost;
},
{
horizontal = 1;
place = (574, -20);
target = down;
type = TopGhost;
},
{
horizontal = 1;
place = (642, -59);
place = (642, -59);
type = Stem;
},
{
horizontal = 1;
place = (717, -59);
place = (717, -59);
type = Stem;
},
{
place = (-26, -16);
place = (-26, -16);
type = Stem;
},
{
place = (128, -60);
place = (128, -60);
type = Stem;
},
{
place = (-137, -63);
place = (-137, -63);
type = Stem;
}
);
layerId = m01;
shapes = (
{
closed = 1;
nodes = (
(287,765,o),
(335,814,o),
(350,901,c),
(287,901,l),
(279,855,o),
(259,829,o),
(239,829,cs),
(198,829,o),
(195,904,o),
(124,904,cs),
(61,904,o),
(14,855,o),
(-1,770,c),
(59,770,l),
(67,815,o),
(85,840,o),
(109,840,cs),
(151,840,o),
(148,765,o),
(227,765,cs)
);
},
{
closed = 1;
nodes = (
(-26,0,l),
(81,0,l),
(204,697,l),
(97,697,l)
);
}
);
width = 300;
}
);
note = Itilde;
unicode = 296;
},
{
glyphname = J;
kernLeft = J;
kernRight = J;
lastChange = "2022-12-26 08:52:03 +0000";
layers = (
{
hints = (
{
horizontal = 1;
place = (-136, -24);
place = (-136, -24);
type = Stem;
},
{
horizontal = 1;
place = (475, -24);
place = (475, -24);
type = Stem;
},
{
place = (-100, -18);
place = (-100, -18);
type = Stem;
},
{
place = (254, -16);
place = (254, -16);
type = Stem;
}
);
layerId = m01;
shapes = (
{
closed = 1;
nodes = (
(-47,215,ls),
(-57,214,o),
(-63,208,o),
(-64,198,cs),
(-72,65,o),
(1,-13,o),
(129,-13,cs),
(273,-13,o),
(376,82,o),
(404,244,cs),
(484,697,l),
(158,697,l),
(100,652,l),
(91,598,l),
(360,598,l),
(298,250,ls),
(279,139,o),
(229,86,o),
(146,86,cs),
(69,86,o),
(34,131,o),
(45,225,c)
);
}
);
width = 568;
}
);
note = J;
unicode = 74;
},
{
glyphname = K;
kernLeft = B;
kernRight = K;
lastChange = "2022-12-26 08:52:03 +0000";
layers = (
{
hints = (
{
horizontal = 1;
place = (-123, 21);
target = up;
type = BottomGhost;
},
{
horizontal = 1;
place = (574, -20);
target = down;
type = TopGhost;
},
{
place = (-26, -16);
place = (-26, -16);
type = Stem;
}
);
layerId = m01;
shapes = (
{
closed = 1;
nodes = (
(506,0,ls),
(516,0,o),
(519,4,o),
(515,13,cs),
(345,408,l),
(680,697,l),
(539,697,l),
(142,346,l),
(204,697,l),
(147,697,l),
(88,647,l),
(-26,0,l),
(81,0,l),
(118,212,l),
(259,333,l),
(397,0,l)
);
}
);
width = 706;
}
);
note = K;
unicode = 75;
},
{
glyphname = uni0136;
kernLeft = B;
kernRight = K;
lastChange = "2022-12-26 08:52:03 +0000";
layers = (
{
hints = (
{
horizontal = 1;
place = (-347, 47);
place = (-347, 47);
type = Stem;
},
{
horizontal = 1;
place = (-123, 21);
target = up;
type = BottomGhost;
},
{
horizontal = 1;
place = (574, -20);
target = down;
type = TopGhost;
},
{
place = (-26, -16);
place = (-26, -16);
type = Stem;
}
);
layerId = m01;
shapes = (
{
closed = 1;
nodes = (
(378,437,l),
(680,697,l),
(539,697,l),
(142,346,l),
(204,697,l),
(97,697,l),
(-26,0,l),
(81,0,l),
(118,212,l),
(292,362,l),
(442,0,l),
(566,0,l)
);
},
{
closed = 1;
nodes = (
(63,-224,l),
(124,-224,l),
(274,-54,l),
(167,-54,l)
);
}
);
width = 706;
}
);
note = uni0136;
unicode = 310;
},
{
glyphname = L;
kernLeft = B;
kernRight = L;
lastChange = "2022-12-26 08:52:03 +0000";
layers = (
{
hints = (
{
horizontal = 1;
place = (-123, -24);
place = (-123, -24);
type = Stem;
},
{
horizontal = 1;
place = (574, -20);
target = down;
type = TopGhost;
},
{
place = (-26, -16);
place = (-26, -16);
type = Stem;
}
);
layerId = m01;
shapes = (
{
closed = 1;
nodes = (
(-26,0,l),
(385,0,l),
(403,99,l),
(99,99,l),
(204,697,l),
(97,697,l)
);
}
);
width = 526;
}
);
note = L;
unicode = 76;
},
{
glyphname = Lacute;
kernLeft = B;
kernRight = L;
lastChange = "2022-12-26 08:52:03 +0000";
layers = (
{
hints = (
{
horizontal = 1;
place = (-123, -24);
place = (-123, -24);
type = Stem;
},
{
horizontal = 1;
place = (574, -20);
target = down;
type = TopGhost;
},
{
horizontal = 1;
place = (636, 19);
place = (636, 19);
type = Stem;
},
{
place = (-26, -16);
place = (-26, -16);
type = Stem;
}
);
layerId = m01;
shapes = (
{
closed = 1;
nodes = (
(123,759,l),
(200,759,l),
(369,901,l),
(258,901,l)
);
},
{
closed = 1;
nodes = (
(-26,0,l),
(385,0,l),
(403,99,l),
(99,99,l),
(204,697,l),
(97,697,l)
);
}
);
width = 526;
}
);
note = Lacute;
unicode = 313;
},
{
glyphname = Lcaron;
kernLeft = B;
kernRight = L;
lastChange = "2022-12-26 08:52:03 +0000";
layers = (
{
hints = (
{
horizontal = 1;
place = (-123, -24);
place = (-123, -24);
type = Stem;
},
{
horizontal = 1;
place = (574, -20);
target = down;
type = TopGhost;
},
{
place = (-26, -16);
place = (-26, -16);
type = Stem;
},
{
horizontal = 1;
place = (355, 96);
place = (355, 96);
type = Stem;
}
);
layerId = m01;
shapes = (
{
closed = 1;
nodes = (
(-26,0,l),
(385,0,l),
(403,99,l),
(99,99,l),
(204,697,l),
(97,697,l)
);
},
{
closed = 1;
nodes = (
(298,478,l),
(359,478,l),
(502,697,l),
(394,697,l)
);
}
);
width = 526;
}
);
note = Lcaron;
unicode = 317;
},
{
glyphname = uni013B;
kernLeft = B;
kernRight = L;
lastChange = "2022-12-26 08:52:03 +0000";
layers = (
{
hints = (
{
horizontal = 1;
place = (-347, 47);
place = (-347, 47);
type = Stem;
},
{
horizontal = 1;
place = (-123, -24);
place = (-123, -24);
type = Stem;
},
{
horizontal = 1;
place = (574, -20);
target = down;
type = TopGhost;
},
{
place = (-26, -16);
place = (-26, -16);
type = Stem;
}
);
layerId = m01;
shapes = (
{
closed = 1;
nodes = (
(-26,0,l),
(385,0,l),
(403,99,l),
(99,99,l),
(204,697,l),
(97,697,l)
);
},
{
closed = 1;
nodes = (
(13,-224,l),
(74,-224,l),
(224,-54,l),
(117,-54,l)
);
}
);
width = 526;
}
);
note = uni013B;
unicode = 315;
},
{
glyphname = Lslash;
lastChange = "2022-12-26 08:52:03 +0000";
layers = (
{
hints = (
{
horizontal = 1;
place = (-123, -24);
place = (-123, -24);
type = Stem;
},
{
horizontal = 1;
place = (574, -20);
target = down;
type = TopGhost;
},
{
place = (-26, -16);
place = (-26, -16);
type = Stem;
}
);
layerId = m01;
shapes = (
{
closed = 1;
nodes = (
(99,99,l),
(135,306,l),
(281,408,l),
(300,513,l),
(154,412,l),
(204,697,l),
(97,697,l),
(32,328,l),
(-35,281,l),
(-54,174,l),
(13,221,l),
(-26,0,l),
(385,0,l),
(403,99,l)
);
}
);
width = 526;
}
);
note = Lslash;
unicode = 321;
},
{
glyphname = M;
kernLeft = B;
kernRight = H;
lastChange = "2022-12-26 08:52:03 +0000";
layers = (
{
hints = (
{
horizontal = 1;
place = (-123, 21);
target = up;
type = BottomGhost;
},
{
horizontal = 1;
place = (574, -20);
target = down;
type = TopGhost;
},
{
place = (-26, -16);
place = (-26, -16);
type = Stem;
},
{
place = (566, -16);
place = (566, -16);
type = Stem;
},
{
horizontal = 1;
place = (426, 25);
place = (426, 25);
type = Stem;
}
);
layerId = m01;
shapes = (
{
closed = 1;
nodes = (
(66,0,ls),
(76,0,o),
(82,5,o),
(84,15,cs),
(178,549,l),
(282,60,l),
(386,60,l),
(663,549,l),
(569,15,ls),
(567,5,o),
(571,0,o),
(581,0,cs),
(673,0,l),
(796,697,l),
(642,697,l),
(355,183,l),
(251,697,l),
(97,697,l),
(-26,0,l)
);
}
);
width = 893;
}
);
note = M;
unicode = 77;
},
{
glyphname = N;
kernLeft = B;
kernRight = H;
lastChange = "2022-12-26 08:52:03 +0000";
layers = (
{
hints = (
{
horizontal = 1;
place = (-123, 21);
target = up;
type = BottomGhost;
},
{
horizontal = 1;
place = (574, -20);
target = down;
type = TopGhost;
},
{
place = (-26, -16);
place = (-26, -16);
type = Stem;
},
{
place = (395, -16);
place = (395, -16);
type = Stem;
}
);
layerId = m01;
shapes = (
{
closed = 1;
nodes = (
(518,697,l),
(428,187,l),
(208,697,l),
(97,697,l),
(-26,0,l),
(25,0,l),
(90,50,l),
(172,513,l),
(390,0,l),
(502,0,l),
(625,697,l)
);
}
);
width = 722;
}
);
note = N;
unicode = 78;
},
{
glyphname = Nacute;
kernLeft = B;
kernRight = H;
lastChange = "2022-12-26 08:52:03 +0000";
layers = (
{
hints = (
{
horizontal = 1;
place = (-123, 21);
target = up;
type = BottomGhost;
},
{
horizontal = 1;
place = (574, -20);
target = down;
type = TopGhost;
},
{
horizontal = 1;
place = (636, 19);
place = (636, 19);
type = Stem;
},
{
place = (-26, -16);
place = (-26, -16);
type = Stem;
},
{
place = (395, -16);
place = (395, -16);
type = Stem;
}
);
layerId = m01;
shapes = (
{
closed = 1;
nodes = (
(580,901,l),
(469,901,l),
(334,759,l),
(411,759,l)
);
},
{
closed = 1;
nodes = (
(518,697,l),
(428,187,l),
(208,697,l),
(97,697,l),
(-26,0,l),
(81,0,l),
(172,513,l),
(390,0,l),
(502,0,l),
(625,697,l)
);
}
);
width = 722;
}
);
note = Nacute;
unicode = 323;
},
{
glyphname = Ncaron;
kernLeft = B;
kernRight = H;
lastChange = "2022-12-26 08:52:03 +0000";
layers = (
{
hints = (
{
horizontal = 1;
place = (-123, 21);
target = up;
type = BottomGhost;
},
{
horizontal = 1;
place = (574, -20);
target = down;
type = TopGhost;
},
{
place = (-26, -16);
place = (-26, -16);
type = Stem;
},
{
place = (395, -16);
place = (395, -16);
type = Stem;
}
);
layerId = m01;
shapes = (
{
closed = 1;
nodes = (
(551,901,l),
(470,901,l),
(384,825,l),
(324,901,l),
(243,901,l),
(369,741,l)
);
},
{
closed = 1;
nodes = (
(518,697,l),
(428,187,l),
(208,697,l),
(97,697,l),
(-26,0,l),
(81,0,l),
(172,513,l),
(390,0,l),
(502,0,l),
(625,697,l)
);
}
);
width = 722;
}
);
note = Ncaron;
unicode = 327;
},
{
glyphname = uni0145;
kernLeft = B;
kernRight = H;
lastChange = "2022-12-26 08:52:03 +0000";
layers = (
{
hints = (
{
horizontal = 1;
place = (-347, 47);
place = (-347, 47);
type = Stem;
},
{
horizontal = 1;
place = (-123, 21);
target = up;
type = BottomGhost;
},
{
horizontal = 1;
place = (574, -20);
target = down;
type = TopGhost;
},
{
place = (-26, -16);
place = (-26, -16);
type = Stem;
},
{
place = (395, -16);
place = (395, -16);
type = Stem;
}
);
layerId = m01;
shapes = (
{
closed = 1;
nodes = (
(518,697,l),
(428,187,l),
(208,697,l),
(97,697,l),
(-26,0,l),
(81,0,l),
(172,513,l),
(390,0,l),
(502,0,l),
(625,697,l)
);
},
{
closed = 1;
nodes = (
(71,-224,l),
(132,-224,l),
(282,-54,l),
(175,-54,l)
);
}
);
width = 722;
}
);
note = uni0145;
unicode = 325;
},
{
glyphname = Eng;
kernLeft = B;
kernRight = H;
lastChange = "2022-12-26 08:52:03 +0000";
layers = (
{
hints = (
{
horizontal = 1;
place = (-301, -52);
place = (-301, -52);
type = Stem;
},
{
horizontal = 1;
place = (-123, 21);
target = up;
type = BottomGhost;
},
{
horizontal = 1;
place = (574, -20);
target = down;
type = TopGhost;
},
{
place = (-26, -16);
place = (-26, -16);
type = Stem;
},
{
place = (395, -16);
place = (395, -16);
type = Stem;
},
{
place = (400, -21);
place = (400, -21);
type = Stem;
}
);
layerId = m01;
shapes = (
{
closed = 1;
nodes = (
(518,697,l),
(429,191,l),
(208,697,l),
(97,697,l),
(-26,0,l),
(81,0,l),
(171,508,l),
(390,0,ls),
(395,-12,o),
(396,-26,o),
(393,-38,cs),
(387,-74,o),
(354,-107,o),
(293,-107,cs),
(281,-107,o),
(266,-106,o),
(252,-102,c),
(239,-171,l),
(264,-176,o),
(288,-178,o),
(309,-178,cs),
(428,-178,o),
(485,-95,o),
(501,-4,cs),
(625,697,l)
);
}
);
width = 723;
}
);
note = Eng;
unicode = 330;
},
{
glyphname = Ntilde;
kernLeft = B;
kernRight = H;
lastChange = "2022-12-26 08:52:03 +0000";
layers = (
{
hints = (
{
horizontal = 1;
place = (-123, 21);
target = up;
type = BottomGhost;
},
{
horizontal = 1;
place = (574, -20);
target = down;
type = TopGhost;
},
{
horizontal = 1;
place = (717, -59);
place = (717, -59);
type = Stem;
},
{
place = (74, -63);
place = (74, -63);
type = Stem;
},
{
place = (339, -60);
place = (339, -60);
type = Stem;
},
{
horizontal = 1;
place = (642, -59);
place = (642, -59);
type = Stem;
},
{
place = (-26, -16);
place = (-26, -16);
type = Stem;
},
{
place = (395, -16);
place = (395, -16);
type = Stem;
}
);
layerId = m01;
shapes = (
{
closed = 1;
nodes = (
(362,840,o),
(359,765,o),
(438,765,cs),
(498,765,o),
(546,814,o),
(561,901,c),
(498,901,l),
(490,855,o),
(470,829,o),
(450,829,cs),
(409,829,o),
(406,904,o),
(335,904,cs),
(272,904,o),
(225,855,o),
(210,770,c),
(270,770,l),
(278,815,o),
(296,840,o),
(320,840,cs)
);
},
{
closed = 1;
nodes = (
(518,697,l),
(428,187,l),
(208,697,l),
(97,697,l),
(-26,0,l),
(81,0,l),
(172,513,l),
(390,0,l),
(502,0,l),
(625,697,l)
);
}
);
width = 722;
}
);
note = Ntilde;
unicode = 209;
},
{
glyphname = O;
kernLeft = C;
kernRight = D;
lastChange = "2022-12-26 08:52:03 +0000";
layers = (
{
hints = (
{
horizontal = 1;
place = (-136, -21);
place = (-136, -21);
type = Stem;
},
{
horizontal = 1;
place = (485, -21);
place = (485, -21);
type = Stem;
},
{
place = (-75, -16);
place = (-75, -16);
type = Stem;
},
{
place = (475, -16);
place = (475, -16);
type = Stem;
}
);
layerId = m01;
shapes = (
{
closed = 1;
nodes = (
(447,-13,o),
(605,131,o),
(643,348,cs),
(682,566,o),
(575,710,o),
(379,710,cs),
(183,710,o),
(25,566,o),
(-14,348,cs),
(-52,131,o),
(56,-13,o),
(252,-13,cs)
);
},
{
closed = 1;
nodes = (
(131,65,o),
(65,188,o),
(93,348,cs),
(122,509,o),
(231,634,o),
(366,634,cs),
(501,634,o),
(565,508,o),
(536,348,cs),
(508,189,o),
(401,65,o),
(266,65,cs)
);
}
);
width = 753;
}
);
note = O;
unicode = 79;
},
{
glyphname = Oacute;
kernLeft = C;
kernRight = D;
lastChange = "2022-12-26 08:52:03 +0000";
layers = (
{
hints = (
{
horizontal = 1;
place = (-136, -21);
place = (-136, -21);
type = Stem;
},
{
horizontal = 1;
place = (485, -21);
place = (485, -21);
type = Stem;
},
{
horizontal = 1;
place = (636, 19);
place = (636, 19);
type = Stem;
},
{
place = (-75, -16);
place = (-75, -16);
type = Stem;
},
{
place = (475, -16);
place = (475, -16);
type = Stem;
}
);
layerId = m01;
shapes = (
{
closed = 1;
nodes = (
(349,759,l),
(426,759,l),
(595,901,l),
(484,901,l)
);
},
{
closed = 1;
nodes = (
(447,-13,o),
(605,131,o),
(643,348,cs),
(682,566,o),
(575,710,o),
(379,710,cs),
(183,710,o),
(25,566,o),
(-14,348,cs),
(-52,131,o),
(56,-13,o),
(252,-13,cs)
);
},
{
closed = 1;
nodes = (
(135,89,o),
(65,188,o),
(93,348,cs),
(122,509,o),
(226,608,o),
(361,608,cs),
(496,608,o),
(565,508,o),
(536,348,cs),
(508,189,o),
(405,89,o),
(270,89,cs)
);
}
);
width = 753;
}
);
note = Oacute;
unicode = 211;
},
{
glyphname = uni01D1;
kernLeft = C;
kernRight = D;
lastChange = "2022-12-26 08:52:03 +0000";
layers = (
{
hints = (
{
horizontal = 1;
place = (-136, -21);
place = (-136, -21);
type = Stem;
},
{
horizontal = 1;
place = (485, -21);
place = (485, -21);
type = Stem;
},
{
place = (-75, -16);
place = (-75, -16);
type = Stem;
},
{
place = (475, -16);
place = (475, -16);
type = Stem;
}
);
layerId = m01;
shapes = (
{
closed = 1;
nodes = (
(385,741,l),
(567,901,l),
(486,901,l),
(400,825,l),
(340,901,l),
(259,901,l)
);
},
{
closed = 1;
nodes = (
(447,-13,o),
(605,131,o),
(643,348,cs),
(682,566,o),
(575,710,o),
(379,710,cs),
(183,710,o),
(25,566,o),
(-14,348,cs),
(-52,131,o),
(56,-13,o),
(252,-13,cs)
);
},
{
closed = 1;
nodes = (
(135,89,o),
(65,188,o),
(93,348,cs),
(122,509,o),
(226,608,o),
(361,608,cs),
(496,608,o),
(565,508,o),
(536,348,cs),
(508,189,o),
(405,89,o),
(270,89,cs)
);
}
);
width = 753;
}
);
note = uni01D1;
unicode = 465;
},
{
glyphname = Ocircumflex;
kernLeft = C;
kernRight = D;
lastChange = "2022-12-26 08:52:03 +0000";
layers = (
{
hints = (
{
horizontal = 1;
place = (-136, -21);
place = (-136, -21);
type = Stem;
},
{
horizontal = 1;
place = (485, -21);
place = (485, -21);
type = Stem;
},
{
place = (-75, -16);
place = (-75, -16);
type = Stem;
},
{
place = (475, -16);
place = (475, -16);
type = Stem;
}
);
layerId = m01;
shapes = (
{
closed = 1;
nodes = (
(232,747,l),
(314,747,l),
(400,828,l),
(459,747,l),
(540,747,l),
(416,916,l)
);
},
{
closed = 1;
nodes = (
(447,-13,o),
(605,131,o),
(643,348,cs),
(682,566,o),
(575,710,o),
(379,710,cs),
(183,710,o),
(25,566,o),
(-14,348,cs),
(-52,131,o),
(56,-13,o),
(252,-13,cs)
);
},
{
closed = 1;
nodes = (
(135,89,o),
(65,188,o),
(93,348,cs),
(122,509,o),
(226,608,o),
(361,608,cs),
(496,608,o),
(565,508,o),
(536,348,cs),
(508,189,o),
(405,89,o),
(270,89,cs)
);
}
);
width = 753;
}
);
note = Ocircumflex;
unicode = 212;
},
{
glyphname = uni1ED0;
kernLeft = C;
kernRight = D;
lastChange = "2022-12-26 08:52:03 +0000";
layers = (
{
hints = (
{
horizontal = 1;
place = (-136, -21);
place = (-136, -21);
type = Stem;
},
{
horizontal = 1;
place = (485, -21);
place = (485, -21);
type = Stem;
},
{
horizontal = 1;
place = (824, 19);
place = (824, 19);
type = Stem;
},
{
place = (-75, -16);
place = (-75, -16);
type = Stem;
},
{
place = (475, -16);
place = (475, -16);
type = Stem;
}
);
layerId = m01;
shapes = (
{
closed = 1;
nodes = (
(382,947,l),
(459,947,l),
(628,1089,l),
(517,1089,l)
);
},
{
closed = 1;
nodes = (
(232,747,l),
(314,747,l),
(400,828,l),
(459,747,l),
(540,747,l),
(416,916,l)
);
},
{
closed = 1;
nodes = (
(447,-13,o),
(605,131,o),
(643,348,cs),
(682,566,o),
(575,710,o),
(379,710,cs),
(183,710,o),
(25,566,o),
(-14,348,cs),
(-52,131,o),
(56,-13,o),
(252,-13,cs)
);
},
{
closed = 1;
nodes = (
(135,89,o),
(65,188,o),
(93,348,cs),
(122,509,o),
(226,608,o),
(361,608,cs),
(496,608,o),
(565,508,o),
(536,348,cs),
(508,189,o),
(405,89,o),
(270,89,cs)
);
}
);
width = 753;
}
);
note = uni1ED0;
unicode = 7888;
},
{
glyphname = uni1ED8;
kernLeft = C;
kernRight = D;
lastChange = "2022-12-26 08:52:03 +0000";
layers = (
{
hints = (
{
horizontal = 1;
place = (-296, -15);
place = (-296, -15);
type = Stem;
},
{
horizontal = 1;
place = (-136, -21);
place = (-136, -21);
type = Stem;
},
{
horizontal = 1;
place = (485, -21);
place = (485, -21);
type = Stem;
},
{
place = (-75, -16);
place = (-75, -16);
type = Stem;
},
{
place = (199, -13);
place = (199, -13);
type = Stem;
},
{
place = (475, -16);
place = (475, -16);
type = Stem;
}
);
layerId = m01;
shapes = (
{
closed = 1;
nodes = (
(232,747,l),
(314,747,l),
(400,828,l),
(459,747,l),
(540,747,l),
(416,916,l)
);
},
{
closed = 1;
nodes = (
(447,-13,o),
(605,131,o),
(643,348,cs),
(682,566,o),
(575,710,o),
(379,710,cs),
(183,710,o),
(25,566,o),
(-14,348,cs),
(-52,131,o),
(56,-13,o),
(252,-13,cs)
);
},
{
closed = 1;
nodes = (
(135,89,o),
(65,188,o),
(93,348,cs),
(122,509,o),
(226,608,o),
(361,608,cs),
(496,608,o),
(565,508,o),
(536,348,cs),
(508,189,o),
(405,89,o),
(270,89,cs)
);
},
{
closed = 1;
nodes = (
(169,-173,l),
(279,-173,l),
(298,-65,l),
(188,-65,l)
);
}
);
width = 753;
}
);
note = uni1ED8;
unicode = 7896;
},
{
glyphname = uni1ED2;
kernLeft = C;
kernRight = D;
lastChange = "2022-12-26 08:52:03 +0000";
layers = (
{
hints = (
{
horizontal = 1;
place = (-136, -21);
place = (-136, -21);
type = Stem;
},
{
horizontal = 1;
place = (485, -21);
place = (485, -21);
type = Stem;
},
{
horizontal = 1;
place = (824, 19);
place = (824, 19);
type = Stem;
},
{
place = (-75, -16);
place = (-75, -16);
type = Stem;
},
{
place = (475, -16);
place = (475, -16);
type = Stem;
}
);
layerId = m01;
shapes = (
{
closed = 1;
nodes = (
(382,947,l),
(460,947,l),
(381,1089,l),
(271,1089,l)
);
},
{
closed = 1;
nodes = (
(232,747,l),
(314,747,l),
(400,828,l),
(459,747,l),
(540,747,l),
(416,916,l)
);
},
{
closed = 1;
nodes = (
(447,-13,o),
(605,131,o),
(643,348,cs),
(682,566,o),
(575,710,o),
(379,710,cs),
(183,710,o),
(25,566,o),
(-14,348,cs),
(-52,131,o),
(56,-13,o),
(252,-13,cs)
);
},
{
closed = 1;
nodes = (
(135,89,o),
(65,188,o),
(93,348,cs),
(122,509,o),
(226,608,o),
(361,608,cs),
(496,608,o),
(565,508,o),
(536,348,cs),
(508,189,o),
(405,89,o),
(270,89,cs)
);
}
);
width = 753;
}
);
note = uni1ED2;
unicode = 7890;
},
{
glyphname = uni1ED4;
kernLeft = C;
kernRight = D;
lastChange = "2022-12-26 08:52:03 +0000";
layers = (
{
hints = (
{
horizontal = 1;
place = (-136, -21);
place = (-136, -21);
type = Stem;
},
{
horizontal = 1;
place = (485, -21);
place = (485, -21);
type = Stem;
},
{
horizontal = 1;
place = (930, -66);
place = (930, -66);
type = Stem;
},
{
place = (-75, -16);
place = (-75, -16);
type = Stem;
},
{
place = (299, -57);
place = (299, -57);
type = Stem;
},
{
place = (475, -16);
place = (475, -16);
type = Stem;
}
);
layerId = m01;
shapes = (
{
closed = 1;
nodes = (
(408,924,l),
(460,933,o),
(532,944,o),
(544,1013,cs),
(555,1076,o),
(501,1110,o),
(415,1110,cs),
(400,1110,l),
(390,1053,l),
(405,1053,ls),
(445,1053,o),
(484,1048,o),
(478,1012,cs),
(472,980,o),
(436,974,o),
(403,970,c)
);
},
{
closed = 1;
nodes = (
(232,747,l),
(314,747,l),
(400,828,l),
(459,747,l),
(540,747,l),
(416,916,l)
);
},
{
closed = 1;
nodes = (
(447,-13,o),
(605,131,o),
(643,348,cs),
(682,566,o),
(575,710,o),
(379,710,cs),
(183,710,o),
(25,566,o),
(-14,348,cs),
(-52,131,o),
(56,-13,o),
(252,-13,cs)
);
},
{
closed = 1;
nodes = (
(135,89,o),
(65,188,o),
(93,348,cs),
(122,509,o),
(226,608,o),
(361,608,cs),
(496,608,o),
(565,508,o),
(536,348,cs),
(508,189,o),
(405,89,o),
(270,89,cs)
);
}
);
width = 753;
}
);
note = uni1ED4;
unicode = 7892;
},
{
glyphname = uni1ED6;
kernLeft = C;
kernRight = D;
lastChange = "2022-12-26 08:52:03 +0000";
layers = (
{
hints = (
{
horizontal = 1;
place = (-136, -21);
place = (-136, -21);
type = Stem;
},
{
horizontal = 1;
place = (485, -21);
place = (485, -21);
type = Stem;
},
{
horizontal = 1;
place = (830, -59);
place = (830, -59);
type = Stem;
},
{
horizontal = 1;
place = (905, -59);
place = (905, -59);
type = Stem;
},
{
place = (-75, -16);
place = (-75, -16);
type = Stem;
},
{
place = (354, -60);
place = (354, -60);
type = Stem;
},
{
place = (475, -16);
place = (475, -16);
type = Stem;
},
{
place = (89, -63);
place = (89, -63);
type = Stem;
}
);
layerId = m01;
shapes = (
{
closed = 1;
nodes = (
(546,953,o),
(594,1002,o),
(609,1089,c),
(546,1089,l),
(538,1043,o),
(518,1017,o),
(498,1017,cs),
(457,1017,o),
(455,1092,o),
(384,1092,cs),
(321,1092,o),
(273,1043,o),
(258,958,c),
(318,958,l),
(326,1003,o),
(344,1028,o),
(368,1028,cs),
(410,1028,o),
(407,953,o),
(486,953,cs)
);
},
{
closed = 1;
nodes = (
(232,747,l),
(314,747,l),
(400,828,l),
(459,747,l),
(540,747,l),
(416,916,l)
);
},
{
closed = 1;
nodes = (
(447,-13,o),
(605,131,o),
(643,348,cs),
(682,566,o),
(575,710,o),
(379,710,cs),
(183,710,o),
(25,566,o),
(-14,348,cs),
(-52,131,o),
(56,-13,o),
(252,-13,cs)
);
},
{
closed = 1;
nodes = (
(135,89,o),
(65,188,o),
(93,348,cs),
(122,509,o),
(226,608,o),
(361,608,cs),
(496,608,o),
(565,508,o),
(536,348,cs),
(508,189,o),
(405,89,o),
(270,89,cs)
);
}
);
width = 753;
}
);
note = uni1ED6;
unicode = 7894;
},
{
glyphname = Odieresis;
kernLeft = C;
kernRight = D;
lastChange = "2022-12-26 08:52:03 +0000";
layers = (
{
hints = (
{
horizontal = 1;
place = (-136, -21);
place = (-136, -21);
type = Stem;
},
{
horizontal = 1;
place = (485, -21);
place = (485, -21);
type = Stem;
},
{
horizontal = 1;
place = (670, -15);
place = (670, -15);
type = Stem;
},
{
place = (-75, -16);
place = (-75, -16);
type = Stem;
},
{
place = (112, -29);
place = (112, -29);
type = Stem;
},
{
place = (302, -29);
place = (302, -29);
type = Stem;
},
{
place = (475, -16);
place = (475, -16);
type = Stem;
}
);
layerId = m01;
shapes = (
{
closed = 1;
nodes = (
(252,793,l),
(346,793,l),
(365,901,l),
(271,901,l)
);
},
{
closed = 1;
nodes = (
(442,793,l),
(536,793,l),
(555,901,l),
(461,901,l)
);
},
{
closed = 1;
nodes = (
(447,-13,o),
(605,131,o),
(643,348,cs),
(682,566,o),
(575,710,o),
(379,710,cs),
(183,710,o),
(25,566,o),
(-14,348,cs),
(-52,131,o),
(56,-13,o),
(252,-13,cs)
);
},
{
closed = 1;
nodes = (
(135,89,o),
(65,188,o),
(93,348,cs),
(122,509,o),
(226,608,o),
(361,608,cs),
(496,608,o),
(565,508,o),
(536,348,cs),
(508,189,o),
(405,89,o),
(270,89,cs)
);
}
);
width = 753;
}
);
note = Odieresis;
unicode = 214;
},
{
glyphname = uni1ECC;
kernLeft = C;
kernRight = D;
lastChange = "2022-12-26 08:52:03 +0000";
layers = (
{
hints = (
{
horizontal = 1;
place = (-296, -15);
place = (-296, -15);
type = Stem;
},
{
horizontal = 1;
place = (-136, -21);
place = (-136, -21);
type = Stem;
},
{
horizontal = 1;
place = (485, -21);
place = (485, -21);
type = Stem;
},
{
place = (-75, -16);
place = (-75, -16);
type = Stem;
},
{
place = (199, -13);
place = (199, -13);
type = Stem;
},
{
place = (475, -16);
place = (475, -16);
type = Stem;
}
);
layerId = m01;
shapes = (
{
closed = 1;
nodes = (
(447,-13,o),
(605,131,o),
(643,348,cs),
(682,566,o),
(575,710,o),
(379,710,cs),
(183,710,o),
(25,566,o),
(-14,348,cs),
(-52,131,o),
(56,-13,o),
(252,-13,cs)
);
},
{
closed = 1;
nodes = (
(135,89,o),
(65,188,o),
(93,348,cs),
(122,509,o),
(226,608,o),
(361,608,cs),
(496,608,o),
(565,508,o),
(536,348,cs),
(508,189,o),
(405,89,o),
(270,89,cs)
);
},
{
closed = 1;
nodes = (
(169,-173,l),
(279,-173,l),
(298,-65,l),
(188,-65,l)
);
}
);
width = 753;
}
);
note = uni1ECC;
unicode = 7884;
},
{
glyphname = Ograve;
kernLeft = C;
kernRight = D;
lastChange = "2022-12-26 08:52:03 +0000";
layers = (
{
hints = (
{
horizontal = 1;
place = (-136, -21);
place = (-136, -21);
type = Stem;
},
{
horizontal = 1;
place = (485, -21);
place = (485, -21);
type = Stem;
},
{
horizontal = 1;
place = (636, 19);
place = (636, 19);
type = Stem;
},
{
place = (-75, -16);
place = (-75, -16);
type = Stem;
},
{
place = (475, -16);
place = (475, -16);
type = Stem;
}
);
layerId = m01;
shapes = (
{
closed = 1;
nodes = (
(349,759,l),
(427,759,l),
(348,901,l),
(238,901,l)
);
},
{
closed = 1;
nodes = (
(447,-13,o),
(605,131,o),
(643,348,cs),
(682,566,o),
(575,710,o),
(379,710,cs),
(183,710,o),
(25,566,o),
(-14,348,cs),
(-52,131,o),
(56,-13,o),
(252,-13,cs)
);
},
{
closed = 1;
nodes = (
(135,89,o),
(65,188,o),
(93,348,cs),
(122,509,o),
(226,608,o),
(361,608,cs),
(496,608,o),
(565,508,o),
(536,348,cs),
(508,189,o),
(405,89,o),
(270,89,cs)
);
}
);
width = 753;
}
);
note = Ograve;
unicode = 210;
},
{
glyphname = uni1ECE;
kernLeft = C;
kernRight = D;
lastChange = "2022-12-26 08:52:03 +0000";
layers = (
{
hints = (
{
horizontal = 1;
place = (-136, -21);
place = (-136, -21);
type = Stem;
},
{
horizontal = 1;
place = (485, -21);
place = (485, -21);
type = Stem;
},
{
horizontal = 1;
place = (742, -66);
place = (742, -66);
type = Stem;
},
{
place = (-75, -16);
place = (-75, -16);
type = Stem;
},
{
place = (299, -57);
place = (299, -57);
type = Stem;
},
{
place = (475, -16);
place = (475, -16);
type = Stem;
}
);
layerId = m01;
shapes = (
{
closed = 1;
nodes = (
(375,736,l),
(426,745,o),
(498,756,o),
(511,825,cs),
(522,888,o),
(468,922,o),
(382,922,cs),
(367,922,l),
(357,865,l),
(372,865,ls),
(412,865,o),
(451,860,o),
(444,824,cs),
(439,792,o),
(403,786,o),
(370,782,c)
);
},
{
closed = 1;
nodes = (
(447,-13,o),
(605,131,o),
(643,348,cs),
(682,566,o),
(575,710,o),
(379,710,cs),
(183,710,o),
(25,566,o),
(-14,348,cs),
(-52,131,o),
(56,-13,o),
(252,-13,cs)
);
},
{
closed = 1;
nodes = (
(135,89,o),
(65,188,o),
(93,348,cs),
(122,509,o),
(226,608,o),
(361,608,cs),
(496,608,o),
(565,508,o),
(536,348,cs),
(508,189,o),
(405,89,o),
(270,89,cs)
);
}
);
width = 753;
}
);
note = uni1ECE;
unicode = 7886;
},
{
glyphname = Ohorn;
kernLeft = C;
kernRight = D;
lastChange = "2022-12-26 08:52:03 +0000";
layers = (
{
hints = (
{
horizontal = 1;
place = (-136, -21);
place = (-136, -21);
type = Stem;
},
{
horizontal = 1;
place = (380, -20);
target = down;
type = TopGhost;
},
{
horizontal = 1;
place = (574, -20);
target = down;
type = TopGhost;
},
{
place = (-75, -16);
place = (-75, -16);
type = Stem;
},
{
place = (567, -44);
place = (567, -44);
type = Stem;
},
{
horizontal = 1;
place = (485, -21);
place = (485, -21);
type = Stem;
},
{
place = (475, -16);
place = (475, -16);
type = Stem;
}
);
layerId = m01;
shapes = (
{
closed = 1;
nodes = (
(690,697,l),
(681,647,ls),
(676,615,o),
(660,580,o),
(624,568,c),
(584,657,o),
(498,710,o),
(379,710,cs),
(183,710,o),
(25,566,o),
(-14,348,cs),
(-52,131,o),
(56,-13,o),
(252,-13,cs),
(447,-13,o),
(605,131,o),
(643,348,cs),
(654,405,o),
(654,457,o),
(645,503,c),
(712,525,o),
(749,584,o),
(762,655,cs),
(769,697,l)
);
},
{
closed = 1;
nodes = (
(135,89,o),
(65,188,o),
(93,348,cs),
(122,509,o),
(226,608,o),
(361,608,cs),
(496,608,o),
(565,508,o),
(536,348,cs),
(508,189,o),
(405,89,o),
(270,89,cs)
);
}
);
width = 753;
}
);
note = Ohorn;
unicode = 416;
},
{
glyphname = uni1EDA;
kernLeft = C;
kernRight = D;
lastChange = "2022-12-26 08:52:03 +0000";
layers = (
{
hints = (
{
horizontal = 1;
place = (-136, -21);
place = (-136, -21);
type = Stem;
},
{
horizontal = 1;
place = (380, -20);
target = down;
type = TopGhost;
},
{
horizontal = 1;
place = (574, -20);
target = down;
type = TopGhost;
},
{
horizontal = 1;
place = (636, 19);
place = (636, 19);
type = Stem;
},
{
place = (-75, -16);
place = (-75, -16);
type = Stem;
},
{
place = (475, -16);
place = (475, -16);
type = Stem;
},
{
place = (567, -44);
place = (567, -44);
type = Stem;
},
{
horizontal = 1;
place = (485, -21);
place = (485, -21);
type = Stem;
}
);
layerId = m01;
shapes = (
{
closed = 1;
nodes = (
(595,901,l),
(484,901,l),
(349,759,l),
(426,759,l)
);
},
{
closed = 1;
nodes = (
(690,697,l),
(681,647,ls),
(676,615,o),
(660,580,o),
(624,568,c),
(584,657,o),
(498,710,o),
(379,710,cs),
(183,710,o),
(25,566,o),
(-14,348,cs),
(-52,131,o),
(56,-13,o),
(252,-13,cs),
(447,-13,o),
(605,131,o),
(643,348,cs),
(654,405,o),
(654,457,o),
(645,503,c),
(712,525,o),
(749,584,o),
(762,655,cs),
(769,697,l)
);
},
{
closed = 1;
nodes = (
(135,89,o),
(65,188,o),
(93,348,cs),
(122,509,o),
(226,608,o),
(361,608,cs),
(496,608,o),
(565,508,o),
(536,348,cs),
(508,189,o),
(405,89,o),
(270,89,cs)
);
}
);
width = 753;
}
);
note = uni1EDA;
unicode = 7898;
},
{
glyphname = uni1EE2;
kernLeft = C;
kernRight = D;
lastChange = "2022-12-26 08:52:03 +0000";
layers = (
{
hints = (
{
horizontal = 1;
place = (-296, -15);
place = (-296, -15);
type = Stem;
},
{
horizontal = 1;
place = (-136, -21);
place = (-136, -21);
type = Stem;
},
{
horizontal = 1;
place = (380, -20);
target = down;
type = TopGhost;
},
{
horizontal = 1;
place = (574, -20);
target = down;
type = TopGhost;
},
{
place = (-75, -16);
place = (-75, -16);
type = Stem;
},
{
place = (199, -13);
place = (199, -13);
type = Stem;
},
{
place = (567, -44);
place = (567, -44);
type = Stem;
},
{
horizontal = 1;
place = (485, -21);
place = (485, -21);
type = Stem;
},
{
place = (475, -16);
place = (475, -16);
type = Stem;
}
);
layerId = m01;
shapes = (
{
closed = 1;
nodes = (
(690,697,l),
(681,647,ls),
(676,615,o),
(660,580,o),
(624,568,c),
(584,657,o),
(498,710,o),
(379,710,cs),
(183,710,o),
(25,566,o),
(-14,348,cs),
(-52,131,o),
(56,-13,o),
(252,-13,cs),
(447,-13,o),
(605,131,o),
(643,348,cs),
(654,405,o),
(654,457,o),
(645,503,c),
(712,525,o),
(749,584,o),
(762,655,cs),
(769,697,l)
);
},
{
closed = 1;
nodes = (
(135,89,o),
(65,188,o),
(93,348,cs),
(122,509,o),
(226,608,o),
(361,608,cs),
(496,608,o),
(565,508,o),
(536,348,cs),
(508,189,o),
(405,89,o),
(270,89,cs)
);
},
{
closed = 1;
nodes = (
(169,-173,l),
(279,-173,l),
(298,-65,l),
(188,-65,l)
);
}
);
width = 753;
}
);
note = uni1EE2;
unicode = 7906;
},
{
glyphname = uni1EDC;
kernLeft = C;
kernRight = D;
lastChange = "2022-12-26 08:52:03 +0000";
layers = (
{
hints = (
{
horizontal = 1;
place = (-136, -21);
place = (-136, -21);
type = Stem;
},
{
horizontal = 1;
place = (380, -20);
target = down;
type = TopGhost;
},
{
horizontal = 1;
place = (574, -20);
target = down;
type = TopGhost;
},
{
horizontal = 1;
place = (636, 19);
place = (636, 19);
type = Stem;
},
{
place = (-75, -16);
place = (-75, -16);
type = Stem;
},
{
place = (475, -16);
place = (475, -16);
type = Stem;
},
{
place = (567, -44);
place = (567, -44);
type = Stem;
},
{
horizontal = 1;
place = (485, -21);
place = (485, -21);
type = Stem;
}
);
layerId = m01;
shapes = (
{
closed = 1;
nodes = (
(427,759,l),
(348,901,l),
(238,901,l),
(349,759,l)
);
},
{
closed = 1;
nodes = (
(690,697,l),
(681,647,ls),
(676,615,o),
(660,580,o),
(624,568,c),
(584,657,o),
(498,710,o),
(379,710,cs),
(183,710,o),
(25,566,o),
(-14,348,cs),
(-52,131,o),
(56,-13,o),
(252,-13,cs),
(447,-13,o),
(605,131,o),
(643,348,cs),
(654,405,o),
(654,457,o),
(645,503,c),
(712,525,o),
(749,584,o),
(762,655,cs),
(769,697,l)
);
},
{
closed = 1;
nodes = (
(135,89,o),
(65,188,o),
(93,348,cs),
(122,509,o),
(226,608,o),
(361,608,cs),
(496,608,o),
(565,508,o),
(536,348,cs),
(508,189,o),
(405,89,o),
(270,89,cs)
);
}
);
width = 753;
}
);
note = uni1EDC;
unicode = 7900;
},
{
glyphname = uni1EDE;
kernLeft = C;
kernRight = D;
lastChange = "2022-12-26 08:52:03 +0000";
layers = (
{
hints = (
{
horizontal = 1;
place = (-136, -21);
place = (-136, -21);
type = Stem;
},
{
horizontal = 1;
place = (380, -20);
target = down;
type = TopGhost;
},
{
horizontal = 1;
place = (574, -20);
target = down;
type = TopGhost;
},
{
horizontal = 1;
place = (742, -66);
place = (742, -66);
type = Stem;
},
{
place = (-75, -16);
place = (-75, -16);
type = Stem;
},
{
place = (299, -57);
place = (299, -57);
type = Stem;
},
{
place = (475, -16);
place = (475, -16);
type = Stem;
},
{
place = (567, -44);
place = (567, -44);
type = Stem;
},
{
horizontal = 1;
place = (485, -21);
place = (485, -21);
type = Stem;
}
);
layerId = m01;
shapes = (
{
closed = 1;
nodes = (
(439,792,o),
(403,786,o),
(370,782,c),
(375,736,l),
(426,745,o),
(498,756,o),
(511,825,cs),
(522,888,o),
(468,922,o),
(382,922,cs),
(367,922,l),
(357,865,l),
(372,865,ls),
(412,865,o),
(451,860,o),
(444,824,cs)
);
},
{
closed = 1;
nodes = (
(690,697,l),
(681,647,ls),
(676,615,o),
(660,580,o),
(624,568,c),
(584,657,o),
(498,710,o),
(379,710,cs),
(183,710,o),
(25,566,o),
(-14,348,cs),
(-52,131,o),
(56,-13,o),
(252,-13,cs),
(447,-13,o),
(605,131,o),
(643,348,cs),
(654,405,o),
(654,457,o),
(645,503,c),
(712,525,o),
(749,584,o),
(762,655,cs),
(769,697,l)
);
},
{
closed = 1;
nodes = (
(135,89,o),
(65,188,o),
(93,348,cs),
(122,509,o),
(226,608,o),
(361,608,cs),
(496,608,o),
(565,508,o),
(536,348,cs),
(508,189,o),
(405,89,o),
(270,89,cs)
);
}
);
width = 753;
}
);
note = uni1EDE;
unicode = 7902;
},
{
glyphname = uni1EE0;
kernLeft = C;
kernRight = D;
lastChange = "2022-12-26 08:52:03 +0000";
layers = (
{
hints = (
{
horizontal = 1;
place = (-136, -21);
place = (-136, -21);
type = Stem;
},
{
horizontal = 1;
place = (380, -20);
target = down;
type = TopGhost;
},
{
horizontal = 1;
place = (574, -20);
target = down;
type = TopGhost;
},
{
horizontal = 1;
place = (717, -59);
place = (717, -59);
type = Stem;
},
{
place = (-75, -16);
place = (-75, -16);
type = Stem;
},
{
place = (89, -63);
place = (89, -63);
type = Stem;
},
{
place = (354, -60);
place = (354, -60);
type = Stem;
},
{
place = (475, -16);
place = (475, -16);
type = Stem;
},
{
horizontal = 1;
place = (642, -59);
place = (642, -59);
type = Stem;
},
{
place = (567, -44);
place = (567, -44);
type = Stem;
},
{
horizontal = 1;
place = (485, -21);
place = (485, -21);
type = Stem;
}
);
layerId = m01;
shapes = (
{
closed = 1;
nodes = (
(377,840,o),
(374,765,o),
(453,765,cs),
(513,765,o),
(561,814,o),
(576,901,c),
(513,901,l),
(505,855,o),
(485,829,o),
(465,829,cs),
(424,829,o),
(421,904,o),
(350,904,cs),
(287,904,o),
(240,855,o),
(225,770,c),
(285,770,l),
(293,815,o),
(311,840,o),
(335,840,cs)
);
},
{
closed = 1;
nodes = (
(690,697,l),
(681,647,ls),
(676,615,o),
(660,580,o),
(624,568,c),
(584,657,o),
(498,710,o),
(379,710,cs),
(183,710,o),
(25,566,o),
(-14,348,cs),
(-52,131,o),
(56,-13,o),
(252,-13,cs),
(447,-13,o),
(605,131,o),
(643,348,cs),
(654,405,o),
(654,457,o),
(645,503,c),
(712,525,o),
(749,584,o),
(762,655,cs),
(769,697,l)
);
},
{
closed = 1;
nodes = (
(135,89,o),
(65,188,o),
(93,348,cs),
(122,509,o),
(226,608,o),
(361,608,cs),
(496,608,o),
(565,508,o),
(536,348,cs),
(508,189,o),
(405,89,o),
(270,89,cs)
);
}
);
width = 753;
}
);
note = uni1EE0;
unicode = 7904;
},
{
glyphname = Ohungarumlaut;
kernLeft = C;
kernRight = D;
lastChange = "2022-12-26 08:52:03 +0000";
layers = (
{
hints = (
{
horizontal = 1;
place = (-136, -21);
place = (-136, -21);
type = Stem;
},
{
horizontal = 1;
place = (485, -21);
place = (485, -21);
type = Stem;
},
{
horizontal = 1;
place = (619, 36);
place = (619, 36);
type = Stem;
},
{
place = (-75, -16);
place = (-75, -16);
type = Stem;
},
{
place = (475, -16);
place = (475, -16);
type = Stem;
}
);
layerId = m01;
shapes = (
{
closed = 1;
nodes = (
(254,742,l),
(331,742,l),
(485,901,l),
(392,901,l)
);
},
{
closed = 1;
nodes = (
(439,742,l),
(515,742,l),
(687,901,l),
(577,901,l)
);
},
{
closed = 1;
nodes = (
(447,-13,o),
(605,131,o),
(643,348,cs),
(682,566,o),
(575,710,o),
(379,710,cs),
(183,710,o),
(25,566,o),
(-14,348,cs),
(-52,131,o),
(56,-13,o),
(252,-13,cs)
);
},
{
closed = 1;
nodes = (
(135,89,o),
(65,188,o),
(93,348,cs),
(122,509,o),
(226,608,o),
(361,608,cs),
(496,608,o),
(565,508,o),
(536,348,cs),
(508,189,o),
(405,89,o),
(270,89,cs)
);
}
);
width = 753;
}
);
note = Ohungarumlaut;
unicode = 336;
},
{
glyphname = Omacron;
kernLeft = C;
kernRight = D;
lastChange = "2022-12-26 08:52:03 +0000";
layers = (
{
hints = (
{
horizontal = 1;
place = (-136, -21);
place = (-136, -21);
type = Stem;
},
{
horizontal = 1;
place = (485, -21);
place = (485, -21);
type = Stem;
},
{
horizontal = 1;
place = (658, -62);
place = (658, -62);
type = Stem;
},
{
place = (-75, -16);
place = (-75, -16);
type = Stem;
},
{
place = (116, 150);
place = (116, 150);
type = Stem;
},
{
place = (475, -16);
place = (475, -16);
type = Stem;
}
);
layerId = m01;
shapes = (
{
closed = 1;
nodes = (
(254,781,l),
(527,781,l),
(538,842,l),
(265,842,l)
);
},
{
closed = 1;
nodes = (
(447,-13,o),
(605,131,o),
(643,348,cs),
(682,566,o),
(575,710,o),
(379,710,cs),
(183,710,o),
(25,566,o),
(-14,348,cs),
(-52,131,o),
(56,-13,o),
(252,-13,cs)
);
},
{
closed = 1;
nodes = (
(135,89,o),
(65,188,o),
(93,348,cs),
(122,509,o),
(226,608,o),
(361,608,cs),
(496,608,o),
(565,508,o),
(536,348,cs),
(508,189,o),
(405,89,o),
(270,89,cs)
);
}
);
width = 753;
}
);
note = Omacron;
unicode = 332;
},
{
glyphname = Oslash;
kernLeft = C;
kernRight = D;
lastChange = "2022-12-26 08:52:03 +0000";
layers = (
{
hints = (
{
horizontal = 1;
place = (-136, -21);
place = (-136, -21);
type = Stem;
},
{
horizontal = 1;
place = (497, -46);
place = (497, -46);
type = Stem;
},
{
place = (-75, -16);
place = (-75, -16);
type = Stem;
},
{
place = (475, -16);
place = (475, -16);
type = Stem;
},
{
horizontal = 1;
place = (-123, -45);
place = (-123, -45);
type = Stem;
},
{
horizontal = 1;
place = (485, -21);
place = (485, -21);
type = Stem;
},
{
horizontal = 1;
place = (574, -20);
target = down;
type = TopGhost;
}
);
layerId = m01;
shapes = (
{
closed = 1;
nodes = (
(660,697,l),
(577,697,l),
(547,662,l),
(503,693,o),
(446,710,o),
(379,710,cs),
(183,710,o),
(25,566,o),
(-14,348,cs),
(-33,235,o),
(-14,141,o),
(38,78,c),
(-30,0,l),
(53,0,l),
(83,35,l),
(128,4,o),
(185,-13,o),
(252,-13,cs),
(447,-13,o),
(605,131,o),
(643,348,cs),
(664,462,o),
(644,556,o),
(592,620,c)
);
},
{
closed = 1;
nodes = (
(122,509,o),
(226,608,o),
(361,608,cs),
(406,608,o),
(443,597,o),
(472,577,c),
(116,167,l),
(88,211,o),
(80,273,o),
(93,348,cs)
);
},
{
closed = 1;
nodes = (
(225,89,o),
(187,100,o),
(158,120,c),
(515,530,l),
(542,486,o),
(550,424,o),
(536,348,cs),
(508,189,o),
(405,89,o),
(270,89,cs)
);
}
);
width = 753;
}
);
note = Oslash;
unicode = 216;
},
{
glyphname = Otilde;
kernLeft = C;
kernRight = D;
lastChange = "2022-12-26 08:52:03 +0000";
layers = (
{
hints = (
{
horizontal = 1;
place = (-136, -21);
place = (-136, -21);
type = Stem;
},
{
horizontal = 1;
place = (485, -21);
place = (485, -21);
type = Stem;
},
{
horizontal = 1;
place = (642, -59);
place = (642, -59);
type = Stem;
},
{
horizontal = 1;
place = (717, -59);
place = (717, -59);
type = Stem;
},
{
place = (-75, -16);
place = (-75, -16);
type = Stem;
},
{
place = (354, -60);
place = (354, -60);
type = Stem;
},
{
place = (475, -16);
place = (475, -16);
type = Stem;
},
{
place = (89, -63);
place = (89, -63);
type = Stem;
}
);
layerId = m01;
shapes = (
{
closed = 1;
nodes = (
(513,765,o),
(561,814,o),
(576,901,c),
(513,901,l),
(505,855,o),
(485,829,o),
(465,829,cs),
(424,829,o),
(421,904,o),
(350,904,cs),
(287,904,o),
(240,855,o),
(225,770,c),
(285,770,l),
(293,815,o),
(311,840,o),
(335,840,cs),
(377,840,o),
(374,765,o),
(453,765,cs)
);
},
{
closed = 1;
nodes = (
(447,-13,o),
(605,131,o),
(643,348,cs),
(682,566,o),
(575,710,o),
(379,710,cs),
(183,710,o),
(25,566,o),
(-14,348,cs),
(-52,131,o),
(56,-13,o),
(252,-13,cs)
);
},
{
closed = 1;
nodes = (
(135,89,o),
(65,188,o),
(93,348,cs),
(122,509,o),
(226,608,o),
(361,608,cs),
(496,608,o),
(565,508,o),
(536,348,cs),
(508,189,o),
(405,89,o),
(270,89,cs)
);
}
);
width = 753;
}
);
note = Otilde;
unicode = 213;
},
{
glyphname = OE;
kernLeft = C;
lastChange = "2022-12-26 08:52:03 +0000";
layers = (
{
hints = (
{
horizontal = 1;
place = (-123, -24);
place = (-123, -24);
type = Stem;
},
{
horizontal = 1;
place = (185, -24);
place = (185, -24);
type = Stem;
},
{
horizontal = 1;
place = (475, -24);
place = (475, -24);
type = Stem;
},
{
place = (-75, -16);
place = (-75, -16);
type = Stem;
},
{
place = (475, -15);
place = (475, -15);
type = Stem;
},
{
place = (476, -16);
place = (476, -16);
type = Stem;
},
{
horizontal = 1;
place = (-136, -21);
place = (-136, -21);
type = Stem;
},
{
horizontal = 1;
place = (485, -21);
place = (485, -21);
type = Stem;
}
);
layerId = m01;
shapes = (
{
closed = 1;
nodes = (
(1044,598,l),
(1061,697,l),
(599,697,l),
(587,627,l),
(540,680,o),
(469,710,o),
(379,710,cs),
(183,710,o),
(25,566,o),
(-14,348,cs),
(-52,131,o),
(56,-13,o),
(252,-13,cs),
(341,-13,o),
(423,17,o),
(489,71,c),
(476,0,l),
(938,0,l),
(956,99,l),
(601,99,l),
(637,308,l),
(963,308,l),
(981,407,l),
(655,407,l),
(689,598,l)
);
},
{
closed = 1;
nodes = (
(135,89,o),
(65,188,o),
(93,348,cs),
(122,509,o),
(226,608,o),
(361,608,cs),
(496,608,o),
(565,508,o),
(536,348,cs),
(508,189,o),
(405,89,o),
(270,89,cs)
);
}
);
width = 1120;
}
);
note = OE;
unicode = 338;
},
{
glyphname = P;
kernLeft = B;
kernRight = P;
lastChange = "2022-12-26 08:52:03 +0000";
layers = (
{
hints = (
{
horizontal = 1;
place = (-123, 21);
target = up;
type = BottomGhost;
},
{
horizontal = 1;
place = (171, -24);
place = (171, -24);
type = Stem;
},
{
horizontal = 1;
place = (475, -24);
place = (475, -24);
type = Stem;
},
{
place = (-26, -17);
place = (-26, -17);
type = Stem;
},
{
place = (319, -15);
place = (319, -15);
type = Stem;
}
);
layerId = m01;
shapes = (
{
closed = 1;
nodes = (
(-26,0,l),
(27,0,l),
(91,50,l),
(134,294,l),
(245,294,ls),
(396,294,o),
(492,366,o),
(515,498,cs),
(538,628,o),
(468,697,o),
(316,697,cs),
(97,697,l)
);
},
{
closed = 1;
nodes = (
(151,393,l),
(188,598,l),
(288,598,ls),
(383,598,o),
(419,567,o),
(407,496,cs),
(394,426,o),
(345,393,o),
(251,393,cs)
);
}
);
width = 581;
}
);
note = P;
unicode = 80;
},
{
glyphname = Thorn;
kernLeft = B;
kernRight = Thorn;
lastChange = "2022-12-26 08:52:03 +0000";
layers = (
{
hints = (
{
horizontal = 1;
place = (-123, 21);
target = up;
type = BottomGhost;
},
{
horizontal = 1;
place = (76, -34);
place = (76, -34);
type = Stem;
},
{
horizontal = 1;
place = (392, 59);
place = (392, 59);
type = Stem;
},
{
place = (-26, -26);
place = (-26, -26);
type = Stem;
},
{
place = (319, -25);
place = (319, -25);
type = Stem;
},
{
horizontal = 1;
place = (392, -38);
place = (392, -38);
type = Stem;
}
);
layerId = m01;
shapes = (
{
closed = 1;
nodes = (
(-26,0,l),
(71,0,l),
(106,199,l),
(214,199,ls),
(364,199,o),
(466,275,o),
(488,404,cs),
(510,527,o),
(444,600,o),
(308,600,cs),
(177,600,l),
(194,697,l),
(97,697,l)
);
},
{
closed = 1;
nodes = (
(122,288,l),
(162,515,l),
(270,515,ls),
(362,515,o),
(403,475,o),
(390,400,cs),
(377,326,o),
(323,288,o),
(230,288,cs)
);
}
);
width = 571;
}
);
note = Thorn;
unicode = 222;
},
{
glyphname = Q;
kernLeft = C;
kernRight = Q;
lastChange = "2022-12-26 08:52:03 +0000";
layers = (
{
hints = (
{
horizontal = 1;
place = (-136, 21);
target = up;
type = BottomGhost;
},
{
horizontal = 1;
place = (485, -21);
place = (485, -21);
type = Stem;
},
{
place = (-76, -16);
place = (-76, -16);
type = Stem;
},
{
place = (473, -16);
place = (473, -16);
type = Stem;
},
{
horizontal = 1;
place = (-136, -21);
place = (-136, -21);
type = Stem;
}
);
layerId = m01;
shapes = (
{
closed = 1;
nodes = (
(585,-13,l),
(586,32,l),
(524,105,l),
(583,167,o),
(624,250,o),
(641,348,cs),
(680,566,o),
(573,710,o),
(377,710,cs),
(181,710,o),
(24,566,o),
(-15,348,cs),
(-53,131,o),
(54,-13,o),
(250,-13,cs),
(322,-13,o),
(388,6,o),
(447,42,c),
(531,-57,l)
);
},
{
closed = 1;
nodes = (
(133,89,o),
(64,188,o),
(92,348,cs),
(121,509,o),
(224,608,o),
(359,608,cs),
(494,608,o),
(563,508,o),
(534,348,cs),
(522,280,o),
(496,223,o),
(461,180,c),
(378,277,l),
(300,212,l),
(383,116,l),
(349,99,o),
(310,89,o),
(268,89,cs)
);
}
);
width = 771;
}
);
note = Q;
unicode = 81;
},
{
glyphname = R;
kernLeft = B;
kernRight = R;
lastChange = "2022-12-26 08:52:03 +0000";
layers = (
{
hints = (
{
horizontal = 1;
place = (-123, 21);
target = up;
type = BottomGhost;
},
{
horizontal = 1;
place = (173, -25);
place = (173, -25);
type = Stem;
},
{
horizontal = 1;
place = (475, -24);
place = (475, -24);
type = Stem;
},
{
place = (-26, -17);
place = (-26, -17);
type = Stem;
},
{
place = (319, -15);
place = (319, -15);
type = Stem;
}
);
layerId = m01;
shapes = (
{
closed = 1;
nodes = (
(444,0,ls),
(454,0,o),
(457,4,o),
(453,13,cs),
(325,309,l),
(451,345,o),
(498,400,o),
(515,499,cs),
(537,624,o),
(476,697,o),
(316,697,cs),
(97,697,l),
(-26,0,l),
(27,0,l),
(91,50,l),
(134,296,l),
(196,296,l),
(217,296,l),
(334,0,l)
);
},
{
closed = 1;
nodes = (
(152,394,l),
(188,598,l),
(288,598,ls),
(378,598,o),
(420,571,o),
(407,497,cs),
(394,423,o),
(342,394,o),
(252,394,cs)
);
}
);
width = 626;
}
);
note = R;
unicode = 82;
},
{
glyphname = Racute;
kernLeft = B;
kernRight = R;
lastChange = "2022-12-26 08:52:03 +0000";
layers = (
{
hints = (
{
horizontal = 1;
place = (-123, 21);
target = up;
type = BottomGhost;
},
{
horizontal = 1;
place = (173, -25);
place = (173, -25);
type = Stem;
},
{
horizontal = 1;
place = (475, -24);
place = (475, -24);
type = Stem;
},
{
horizontal = 1;
place = (636, 19);
place = (636, 19);
type = Stem;
},
{
place = (-26, -17);
place = (-26, -17);
type = Stem;
},
{
place = (319, -15);
place = (319, -15);
type = Stem;
}
);
layerId = m01;
shapes = (
{
closed = 1;
nodes = (
(532,901,l),
(421,901,l),
(286,759,l),
(363,759,l)
);
},
{
closed = 1;
nodes = (
(482,0,l),
(348,309,l),
(439,335,o),
(498,400,o),
(515,499,cs),
(537,624,o),
(476,697,o),
(315,697,cs),
(97,697,l),
(-26,0,l),
(80,0,l),
(132,296,l),
(195,296,l),
(239,296,l),
(357,0,l)
);
},
{
closed = 1;
nodes = (
(150,394,l),
(186,598,l),
(287,598,ls),
(378,598,o),
(420,571,o),
(407,497,cs),
(394,423,o),
(342,394,o),
(251,394,cs)
);
}
);
width = 626;
}
);
note = Racute;
unicode = 340;
},
{
glyphname = Rcaron;
kernLeft = B;
kernRight = R;
lastChange = "2022-12-26 08:52:03 +0000";
layers = (
{
hints = (
{
horizontal = 1;
place = (-123, 21);
target = up;
type = BottomGhost;
},
{
horizontal = 1;
place = (173, -25);
place = (173, -25);
type = Stem;
},
{
horizontal = 1;
place = (475, -24);
place = (475, -24);
type = Stem;
},
{
place = (-26, -17);
place = (-26, -17);
type = Stem;
},
{
place = (319, -15);
place = (319, -15);
type = Stem;
}
);
layerId = m01;
shapes = (
{
closed = 1;
nodes = (
(503,901,l),
(422,901,l),
(336,825,l),
(276,901,l),
(195,901,l),
(321,741,l)
);
},
{
closed = 1;
nodes = (
(482,0,l),
(348,309,l),
(439,335,o),
(498,400,o),
(515,499,cs),
(537,624,o),
(476,697,o),
(315,697,cs),
(97,697,l),
(-26,0,l),
(80,0,l),
(132,296,l),
(195,296,l),
(239,296,l),
(357,0,l)
);
},
{
closed = 1;
nodes = (
(150,394,l),
(186,598,l),
(287,598,ls),
(378,598,o),
(420,571,o),
(407,497,cs),
(394,423,o),
(342,394,o),
(251,394,cs)
);
}
);
width = 626;
}
);
note = Rcaron;
unicode = 344;
},
{
glyphname = uni0156;
kernLeft = B;
kernRight = R;
lastChange = "2022-12-26 08:52:03 +0000";
layers = (
{
hints = (
{
horizontal = 1;
place = (-347, 47);
place = (-347, 47);
type = Stem;
},
{
horizontal = 1;
place = (-123, 21);
target = up;
type = BottomGhost;
},
{
horizontal = 1;
place = (173, -25);
place = (173, -25);
type = Stem;
},
{
horizontal = 1;
place = (475, -24);
place = (475, -24);
type = Stem;
},
{
place = (-26, -17);
place = (-26, -17);
type = Stem;
},
{
place = (319, -15);
place = (319, -15);
type = Stem;
}
);
layerId = m01;
shapes = (
{
closed = 1;
nodes = (
(348,309,l),
(439,335,o),
(498,400,o),
(515,499,cs),
(537,624,o),
(476,697,o),
(315,697,cs),
(97,697,l),
(-26,0,l),
(80,0,l),
(132,296,l),
(195,296,l),
(239,296,l),
(357,0,l),
(482,0,l)
);
},
{
closed = 1;
nodes = (
(150,394,l),
(186,598,l),
(287,598,ls),
(378,598,o),
(420,571,o),
(407,497,cs),
(394,423,o),
(342,394,o),
(251,394,cs)
);
},
{
closed = 1;
nodes = (
(23,-224,l),
(84,-224,l),
(234,-54,l),
(127,-54,l)
);
}
);
width = 626;
}
);
note = uni0156;
unicode = 342;
},
{
glyphname = S;
kernLeft = S;
kernRight = S;
lastChange = "2022-12-26 08:52:03 +0000";
layers = (
{
hints = (
{
horizontal = 1;
place = (-135, -28);
place = (-135, -28);
type = Stem;
},
{
horizontal = 1;
place = (492, -28);
place = (492, -28);
type = Stem;
},
{
place = (-47, -16);
place = (-47, -16);
type = Stem;
},
{
place = (296, -16);
place = (296, -16);
type = Stem;
}
);
layerId = m01;
shapes = (
{
closed = 1;
nodes = (
(308,-12,o),
(415,70,o),
(438,196,cs),
(455,294,o),
(417,348,o),
(277,406,cs),
(177,447,o),
(144,476,o),
(153,528,cs),
(162,576,o),
(211,615,o),
(269,615,cs),
(320,615,o),
(359,586,o),
(376,533,c),
(475,588,l),
(446,669,o),
(380,710,o),
(288,710,cs),
(162,710,o),
(65,636,o),
(46,525,cs),
(28,427,o),
(70,375,o),
(205,320,cs),
(307,277,o),
(339,244,o),
(329,187,cs),
(318,124,o),
(264,83,o),
(184,83,cs),
(98,83,o),
(48,134,o),
(53,219,c),
(-59,193,l),
(-61,69,o),
(29,-12,o),
(165,-12,cs)
);
}
);
width = 563;
}
);
note = S;
unicode = 83;
},
{
glyphname = Sacute;
kernLeft = S;
kernRight = S;
lastChange = "2022-12-26 08:52:03 +0000";
layers = (
{
hints = (
{
horizontal = 1;
place = (-135, -28);
place = (-135, -28);
type = Stem;
},
{
horizontal = 1;
place = (492, -28);
place = (492, -28);
type = Stem;
},
{
horizontal = 1;
place = (636, 19);
place = (636, 19);
type = Stem;
},
{
place = (-47, -16);
place = (-47, -16);
type = Stem;
},
{
place = (296, -16);
place = (296, -16);
type = Stem;
}
);
layerId = m01;
shapes = (
{
closed = 1;
nodes = (
(254,759,l),
(331,759,l),
(500,901,l),
(389,901,l)
);
},
{
closed = 1;
nodes = (
(308,-12,o),
(415,70,o),
(438,196,cs),
(455,294,o),
(417,348,o),
(277,406,cs),
(177,447,o),
(144,476,o),
(153,528,cs),
(162,576,o),
(211,615,o),
(269,615,cs),
(320,615,o),
(359,586,o),
(376,533,c),
(475,588,l),
(446,669,o),
(380,710,o),
(288,710,cs),
(162,710,o),
(65,636,o),
(46,525,cs),
(28,427,o),
(70,375,o),
(205,320,cs),
(307,277,o),
(339,244,o),
(329,187,cs),
(318,124,o),
(264,83,o),
(184,83,cs),
(98,83,o),
(48,134,o),
(53,219,c),
(-59,193,l),
(-61,69,o),
(29,-12,o),
(165,-12,cs)
);
}
);
width = 563;
}
);
note = Sacute;
unicode = 346;
},
{
glyphname = Scaron;
kernLeft = S;
kernRight = S;
lastChange = "2022-12-26 08:52:03 +0000";
layers = (
{
hints = (
{
horizontal = 1;
place = (-135, -28);
place = (-135, -28);
type = Stem;
},
{
horizontal = 1;
place = (492, -28);
place = (492, -28);
type = Stem;
},
{
place = (-47, -16);
place = (-47, -16);
type = Stem;
},
{
place = (296, -16);
place = (296, -16);
type = Stem;
}
);
layerId = m01;
shapes = (
{
closed = 1;
nodes = (
(290,741,l),
(472,901,l),
(391,901,l),
(305,825,l),
(245,901,l),
(164,901,l)
);
},
{
closed = 1;
nodes = (
(308,-12,o),
(415,70,o),
(438,196,cs),
(455,294,o),
(417,348,o),
(277,406,cs),
(177,447,o),
(144,476,o),
(153,528,cs),
(162,576,o),
(211,615,o),
(269,615,cs),
(320,615,o),
(359,586,o),
(376,533,c),
(475,588,l),
(446,669,o),
(380,710,o),
(288,710,cs),
(162,710,o),
(65,636,o),
(46,525,cs),
(28,427,o),
(70,375,o),
(205,320,cs),
(307,277,o),
(339,244,o),
(329,187,cs),
(318,124,o),
(264,83,o),
(184,83,cs),
(98,83,o),
(48,134,o),
(53,219,c),
(-59,193,l),
(-61,69,o),
(29,-12,o),
(165,-12,cs)
);
}
);
width = 563;
}
);
note = Scaron;
unicode = 352;
},
{
glyphname = Scedilla;
kernLeft = S;
kernRight = S;
lastChange = "2022-12-26 08:52:03 +0000";
layers = (
{
hints = (
{
horizontal = 1;
place = (-380, -63);
place = (-380, -63);
type = Stem;
},
{
horizontal = 1;
place = (-132, 21);
target = up;
type = BottomGhost;
},
{
horizontal = 1;
place = (492, -28);
place = (492, -28);
type = Stem;
},
{
place = (-47, -16);
place = (-47, -16);
type = Stem;
},
{
place = (191, -63);
place = (191, -63);
type = Stem;
},
{
place = (296, -16);
place = (296, -16);
type = Stem;
},
{
horizontal = 1;
place = (-218, 55);
place = (-218, 55);
type = Stem;
}
);
layerId = m01;
shapes = (
{
closed = 1;
nodes = (
(455,294,o),
(417,348,o),
(277,406,cs),
(177,447,o),
(144,476,o),
(153,528,cs),
(162,576,o),
(211,615,o),
(269,615,cs),
(320,615,o),
(359,586,o),
(376,533,c),
(475,588,l),
(446,669,o),
(380,710,o),
(288,710,cs),
(162,710,o),
(65,636,o),
(46,525,cs),
(28,427,o),
(70,375,o),
(205,320,cs),
(307,277,o),
(339,244,o),
(329,187,cs),
(318,124,o),
(264,83,o),
(184,83,cs),
(98,83,o),
(48,134,o),
(53,219,c),
(-59,193,l),
(-60,83,o),
(9,7,o),
(121,-9,c),
(52,-95,l),
(77,-95,o),
(100,-97,o),
(118,-100,cs),
(147,-106,o),
(170,-122,o),
(164,-152,cs),
(159,-180,o),
(138,-197,o),
(109,-197,cs),
(93,-197,o),
(73,-191,o),
(58,-170,c),
(16,-220,l),
(38,-247,o),
(70,-257,o),
(97,-257,cs),
(161,-257,o),
(214,-211,o),
(225,-150,cs),
(231,-114,o),
(219,-88,o),
(192,-71,cs),
(178,-63,o),
(161,-58,o),
(141,-54,c),
(179,-12,l),
(315,-7,o),
(416,74,o),
(438,196,cs)
);
}
);
width = 563;
}
);
note = Scedilla;
unicode = 350;
},
{
glyphname = uni0218;
kernLeft = S;
kernRight = S;
lastChange = "2022-12-26 08:52:03 +0000";
layers = (
{
hints = (
{
horizontal = 1;
place = (-347, 47);
place = (-347, 47);
type = Stem;
},
{
horizontal = 1;
place = (-135, -28);
place = (-135, -28);
type = Stem;
},
{
horizontal = 1;
place = (492, -28);
place = (492, -28);
type = Stem;
},
{
place = (-47, -16);
place = (-47, -16);
type = Stem;
},
{
place = (296, -16);
place = (296, -16);
type = Stem;
}
);
layerId = m01;
shapes = (
{
closed = 1;
nodes = (
(308,-12,o),
(415,70,o),
(438,196,cs),
(455,294,o),
(417,348,o),
(277,406,cs),
(177,447,o),
(144,476,o),
(153,528,cs),
(162,576,o),
(211,615,o),
(269,615,cs),
(320,615,o),
(359,586,o),
(376,533,c),
(475,588,l),
(446,669,o),
(380,710,o),
(288,710,cs),
(162,710,o),
(65,636,o),
(46,525,cs),
(28,427,o),
(70,375,o),
(205,320,cs),
(307,277,o),
(339,244,o),
(329,187,cs),
(318,124,o),
(264,83,o),
(184,83,cs),
(98,83,o),
(48,134,o),
(53,219,c),
(-59,193,l),
(-61,69,o),
(29,-12,o),
(165,-12,cs)
);
},
{
closed = 1;
nodes = (
(-8,-224,l),
(53,-224,l),
(203,-54,l),
(96,-54,l)
);
}
);
width = 563;
}
);
note = uni0218;
unicode = 536;
},
{
glyphname = uni1E9E;
lastChange = "2022-12-26 08:52:03 +0000";
layers = (
{
hints = (
{
horizontal = 1;
place = (-136, -23);
place = (-136, -23);
type = Stem;
},
{
horizontal = 1;
place = (470, -19);
place = (470, -19);
type = Stem;
},
{
place = (-42, -16);
place = (-42, -16);
type = Stem;
},
{
place = (164, -15);
place = (164, -15);
type = Stem;
},
{
place = (414, -6);
place = (414, -6);
type = Stem;
},
{
horizontal = 1;
place = (-123, 21);
target = up;
type = BottomGhost;
}
);
layerId = m01;
shapes = (
{
closed = 1;
nodes = (
(450,-13,o),
(541,54,o),
(556,144,cs),
(589,329,o),
(321,278,o),
(336,362,cs),
(339,380,o),
(355,398,o),
(369,411,cs),
(570,607,l),
(586,697,l),
(335,697,ls),
(105,697,o),
(54,544,o),
(34,431,cs),
(-42,0,l),
(65,0,l),
(141,431,ls),
(160,541,o),
(208,593,o),
(317,593,cs),
(430,593,l),
(307,474,ls),
(273,440,o),
(237,412,o),
(227,354,cs),
(197,189,o),
(457,244,o),
(439,141,cs),
(433,108,o),
(405,87,o),
(357,87,cs),
(292,87,o),
(259,125,o),
(248,174,c),
(148,126,l),
(159,48,o),
(229,-13,o),
(337,-13,cs)
);
}
);
width = 684;
}
);
note = uni1E9E;
unicode = 7838;
},
{
glyphname = T;
kernLeft = T;
kernRight = T;
lastChange = "2022-12-26 08:52:03 +0000";
layers = (
{
hints = (
{
horizontal = 1;
place = (-123, 21);
target = up;
type = BottomGhost;
},
{
horizontal = 1;
place = (475, -24);
place = (475, -24);
type = Stem;
},
{
place = (119, -15);
place = (119, -15);
type = Stem;
}
);
layerId = m01;
shapes = (
{
closed = 1;
nodes = (
(119,0,l),
(172,0,l),
(236,50,l),
(333,598,l),
(559,598,l),
(576,697,l),
(17,697,l),
(0,598,l),
(225,598,l)
);
}
);
width = 593;
}
);
note = T;
unicode = 84;
},
{
glyphname = Tbar;
kernLeft = T;
kernRight = T;
lastChange = "2022-12-26 08:52:03 +0000";
layers = (
{
hints = (
{
horizontal = 1;
place = (-123, 21);
target = up;
type = BottomGhost;
},
{
horizontal = 1;
place = (191, -54);
place = (191, -54);
type = Stem;
},
{
horizontal = 1;
place = (475, -24);
place = (475, -24);
type = Stem;
},
{
place = (119, -15);
place = (119, -15);
type = Stem;
}
);
layerId = m01;
shapes = (
{
closed = 1;
nodes = (
(559,598,l),
(576,697,l),
(17,697,l),
(0,598,l),
(225,598,l),
(187,383,l),
(88,383,l),
(75,314,l),
(174,314,l),
(119,0,l),
(227,0,l),
(282,314,l),
(380,314,l),
(393,383,l),
(295,383,l),
(333,598,l)
);
}
);
width = 593;
}
);
note = Tbar;
unicode = 358;
},
{
glyphname = Tcaron;
kernLeft = T;
kernRight = T;
lastChange = "2022-12-26 08:52:03 +0000";
layers = (
{
hints = (
{
horizontal = 1;
place = (-123, 21);
target = up;
type = BottomGhost;
},
{
horizontal = 1;
place = (475, -24);
place = (475, -24);
type = Stem;
},
{
place = (119, -15);
place = (119, -15);
type = Stem;
}
);
layerId = m01;
shapes = (
{
closed = 1;
nodes = (
(304,741,l),
(486,901,l),
(405,901,l),
(319,825,l),
(259,901,l),
(178,901,l)
);
},
{
closed = 1;
nodes = (
(119,0,l),
(227,0,l),
(333,598,l),
(559,598,l),
(576,697,l),
(17,697,l),
(0,598,l),
(225,598,l)
);
}
);
width = 593;
}
);
note = Tcaron;
unicode = 356;
},
{
glyphname = uni0162;
kernLeft = T;
kernRight = T;
lastChange = "2022-12-26 08:52:03 +0000";
layers = (
{
hints = (
{
horizontal = 1;
place = (-380, -63);
place = (-380, -63);
type = Stem;
},
{
horizontal = 1;
place = (-123, 21);
target = up;
type = BottomGhost;
},
{
horizontal = 1;
place = (475, -24);
place = (475, -24);
type = Stem;
},
{
place = (119, -15);
place = (119, -15);
type = Stem;
},
{
place = (206, -63);
place = (206, -63);
type = Stem;
}
);
layerId = m01;
shapes = (
{
closed = 1;
nodes = (
(227,0,l),
(333,598,l),
(559,598,l),
(576,697,l),
(17,697,l),
(0,598,l),
(225,598,l),
(119,0,l),
(142,0,l),
(67,-95,l),
(92,-95,o),
(115,-97,o),
(133,-100,cs),
(162,-106,o),
(185,-122,o),
(179,-152,cs),
(174,-180,o),
(153,-197,o),
(124,-197,cs),
(108,-197,o),
(88,-191,o),
(73,-170,c),
(31,-220,l),
(53,-247,o),
(85,-257,o),
(112,-257,cs),
(176,-257,o),
(229,-211,o),
(240,-150,cs),
(246,-114,o),
(234,-88,o),
(207,-71,cs),
(193,-63,o),
(176,-58,o),
(156,-54,c),
(204,0,l)
);
}
);
width = 593;
}
);
note = uni0162;
unicode = 354;
},
{
glyphname = uni021A;
kernLeft = T;
kernRight = T;
lastChange = "2022-12-26 08:52:03 +0000";
layers = (
{
hints = (
{
horizontal = 1;
place = (-347, 47);
place = (-347, 47);
type = Stem;
},
{
horizontal = 1;
place = (-123, 21);
target = up;
type = BottomGhost;
},
{
horizontal = 1;
place = (475, -24);
place = (475, -24);
type = Stem;
},
{
place = (119, -15);
place = (119, -15);
type = Stem;
}
);
layerId = m01;
shapes = (
{
closed = 1;
nodes = (
(119,0,l),
(227,0,l),
(333,598,l),
(559,598,l),
(576,697,l),
(17,697,l),
(0,598,l),
(225,598,l)
);
},
{
closed = 1;
nodes = (
(6,-224,l),
(67,-224,l),
(217,-54,l),
(110,-54,l)
);
}
);
width = 593;
}
);
note = uni021A;
unicode = 538;
},
{
glyphname = U;
kernLeft = U;
kernRight = J;
lastChange = "2022-12-26 08:52:03 +0000";
layers = (
{
hints = (
{
horizontal = 1;
place = (-136, -19);
place = (-136, -19);
type = Stem;
},
{
horizontal = 1;
place = (574, -20);
target = down;
type = TopGhost;
},
{
place = (-41, -16);
place = (-41, -16);
type = Stem;
},
{
place = (375, -16);
place = (375, -16);
type = Stem;
}
);
layerId = m01;
shapes = (
{
closed = 1;
nodes = (
(513,697,ls),
(503,697,o),
(497,692,o),
(495,682,cs),
(422,265,ls),
(400,141,o),
(345,91,o),
(236,91,cs),
(127,91,o),
(91,140,o),
(113,264,cs),
(186,682,ls),
(188,692,o),
(184,697,o),
(174,697,cs),
(82,697,l),
(4,252,ls),
(-27,76,o),
(47,-13,o),
(218,-13,cs),
(390,-13,o),
(496,78,o),
(527,257,cs),
(605,697,l)
);
}
);
width = 687;
}
);
note = U;
unicode = 85;
},
{
glyphname = Uacute;
kernLeft = U;
kernRight = J;
lastChange = "2022-12-26 08:52:03 +0000";
layers = (
{
hints = (
{
horizontal = 1;
place = (-136, -19);
place = (-136, -19);
type = Stem;
},
{
horizontal = 1;
place = (574, -20);
target = down;
type = TopGhost;
},
{
horizontal = 1;
place = (636, 19);
place = (636, 19);
type = Stem;
},
{
place = (-41, -16);
place = (-41, -16);
type = Stem;
},
{
place = (375, -16);
place = (375, -16);
type = Stem;
}
);
layerId = m01;
shapes = (
{
closed = 1;
nodes = (
(317,759,l),
(394,759,l),
(563,901,l),
(452,901,l)
);
},
{
closed = 1;
nodes = (
(390,-13,o),
(496,78,o),
(527,257,cs),
(605,697,l),
(498,697,l),
(422,265,ls),
(400,141,o),
(345,91,o),
(236,91,cs),
(127,91,o),
(91,140,o),
(113,264,cs),
(189,697,l),
(82,697,l),
(4,252,ls),
(-27,76,o),
(47,-13,o),
(218,-13,cs)
);
}
);
width = 687;
}
);
note = Uacute;
unicode = 218;
},
{
glyphname = uni01D3;
kernLeft = U;
kernRight = J;
lastChange = "2022-12-26 08:52:03 +0000";
layers = (
{
hints = (
{
horizontal = 1;
place = (-136, -19);
place = (-136, -19);
type = Stem;
},
{
horizontal = 1;
place = (574, -20);
target = down;
type = TopGhost;
},
{
place = (-41, -16);
place = (-41, -16);
type = Stem;
},
{
place = (375, -16);
place = (375, -16);
type = Stem;
}
);
layerId = m01;
shapes = (
{
closed = 1;
nodes = (
(352,741,l),
(534,901,l),
(453,901,l),
(367,825,l),
(307,901,l),
(226,901,l)
);
},
{
closed = 1;
nodes = (
(390,-13,o),
(496,78,o),
(527,257,cs),
(605,697,l),
(498,697,l),
(422,265,ls),
(400,141,o),
(345,91,o),
(236,91,cs),
(127,91,o),
(91,140,o),
(113,264,cs),
(189,697,l),
(82,697,l),
(4,252,ls),
(-27,76,o),
(47,-13,o),
(218,-13,cs)
);
}
);
width = 687;
}
);
note = uni01D3;
unicode = 467;
},
{
glyphname = Ucircumflex;
kernLeft = U;
kernRight = J;
lastChange = "2022-12-26 08:52:03 +0000";
layers = (
{
hints = (
{
horizontal = 1;
place = (-136, -19);
place = (-136, -19);
type = Stem;
},
{
horizontal = 1;
place = (574, -20);
target = down;
type = TopGhost;
},
{
place = (-41, -16);
place = (-41, -16);
type = Stem;
},
{
place = (375, -16);
place = (375, -16);
type = Stem;
}
);
layerId = m01;
shapes = (
{
closed = 1;
nodes = (
(199,747,l),
(281,747,l),
(367,828,l),
(426,747,l),
(507,747,l),
(383,916,l)
);
},
{
closed = 1;
nodes = (
(390,-13,o),
(496,78,o),
(527,257,cs),
(605,697,l),
(498,697,l),
(422,265,ls),
(400,141,o),
(345,91,o),
(236,91,cs),
(127,91,o),
(91,140,o),
(113,264,cs),
(189,697,l),
(82,697,l),
(4,252,ls),
(-27,76,o),
(47,-13,o),
(218,-13,cs)
);
}
);
width = 687;
}
);
note = Ucircumflex;
unicode = 219;
},
{
glyphname = Udieresis;
kernLeft = U;
kernRight = J;
lastChange = "2022-12-26 08:52:03 +0000";
layers = (
{
hints = (
{
horizontal = 1;
place = (-136, -19);
place = (-136, -19);
type = Stem;
},
{
horizontal = 1;
place = (574, -20);
target = down;
type = TopGhost;
},
{
horizontal = 1;
place = (670, -15);
place = (670, -15);
type = Stem;
},
{
place = (-41, -16);
place = (-41, -16);
type = Stem;
},
{
place = (79, -29);
place = (79, -29);
type = Stem;
},
{
place = (269, -29);
place = (269, -29);
type = Stem;
},
{
place = (375, -16);
place = (375, -16);
type = Stem;
}
);
layerId = m01;
shapes = (
{
closed = 1;
nodes = (
(219,793,l),
(313,793,l),
(332,901,l),
(238,901,l)
);
},
{
closed = 1;
nodes = (
(409,793,l),
(503,793,l),
(522,901,l),
(428,901,l)
);
},
{
closed = 1;
nodes = (
(390,-13,o),
(496,78,o),
(527,257,cs),
(605,697,l),
(498,697,l),
(422,265,ls),
(400,141,o),
(345,91,o),
(236,91,cs),
(127,91,o),
(91,140,o),
(113,264,cs),
(189,697,l),
(82,697,l),
(4,252,ls),
(-27,76,o),
(47,-13,o),
(218,-13,cs)
);
}
);
width = 687;
}
);
note = Udieresis;
unicode = 220;
},
{
glyphname = uni01D7;
kernLeft = U;
kernRight = J;
lastChange = "2022-12-26 08:52:03 +0000";
layers = (
{
hints = (
{
horizontal = 1;
place = (-136, -19);
place = (-136, -19);
type = Stem;
},
{
horizontal = 1;
place = (574, -20);
target = down;
type = TopGhost;
},
{
horizontal = 1;
place = (670, -15);
place = (670, -15);
type = Stem;
},
{
horizontal = 1;
place = (840, 19);
place = (840, 19);
type = Stem;
},
{
place = (-41, -16);
place = (-41, -16);
type = Stem;
},
{
place = (375, -16);
place = (375, -16);
type = Stem;
},
{
place = (79, -29);
place = (79, -29);
type = Stem;
},
{
place = (269, -29);
place = (269, -29);
type = Stem;
}
);
layerId = m01;
shapes = (
{
closed = 1;
nodes = (
(353,963,l),
(430,963,l),
(599,1105,l),
(488,1105,l)
);
},
{
closed = 1;
nodes = (
(219,793,l),
(313,793,l),
(332,901,l),
(238,901,l)
);
},
{
closed = 1;
nodes = (
(409,793,l),
(503,793,l),
(522,901,l),
(428,901,l)
);
},
{
closed = 1;
nodes = (
(390,-13,o),
(496,78,o),
(527,257,cs),
(605,697,l),
(498,697,l),
(422,265,ls),
(400,141,o),
(345,91,o),
(236,91,cs),
(127,91,o),
(91,140,o),
(113,264,cs),
(189,697,l),
(82,697,l),
(4,252,ls),
(-27,76,o),
(47,-13,o),
(218,-13,cs)
);
}
);
width = 687;
}
);
note = uni01D7;
unicode = 471;
},
{
glyphname = uni01D9;
kernLeft = U;
kernRight = J;
lastChange = "2022-12-26 08:52:03 +0000";
layers = (
{
hints = (
{
horizontal = 1;
place = (-136, -19);
place = (-136, -19);
type = Stem;
},
{
horizontal = 1;
place = (574, -20);
target = down;
type = TopGhost;
},
{
horizontal = 1;
place = (670, -15);
place = (670, -15);
type = Stem;
},
{
place = (-41, -16);
place = (-41, -16);
type = Stem;
},
{
place = (375, -16);
place = (375, -16);
type = Stem;
},
{
place = (79, -29);
place = (79, -29);
type = Stem;
},
{
place = (269, -29);
place = (269, -29);
type = Stem;
}
);
layerId = m01;
shapes = (
{
closed = 1;
nodes = (
(388,945,l),
(570,1105,l),
(489,1105,l),
(403,1029,l),
(343,1105,l),
(262,1105,l)
);
},
{
closed = 1;
nodes = (
(219,793,l),
(313,793,l),
(332,901,l),
(238,901,l)
);
},
{
closed = 1;
nodes = (
(409,793,l),
(503,793,l),
(522,901,l),
(428,901,l)
);
},
{
closed = 1;
nodes = (
(390,-13,o),
(496,78,o),
(527,257,cs),
(605,697,l),
(498,697,l),
(422,265,ls),
(400,141,o),
(345,91,o),
(236,91,cs),
(127,91,o),
(91,140,o),
(113,264,cs),
(189,697,l),
(82,697,l),
(4,252,ls),
(-27,76,o),
(47,-13,o),
(218,-13,cs)
);
}
);
width = 687;
}
);
note = uni01D9;
unicode = 473;
},
{
glyphname = uni01DB;
kernLeft = U;
kernRight = J;
lastChange = "2022-12-26 08:52:03 +0000";
layers = (
{
hints = (
{
horizontal = 1;
place = (-136, -19);
place = (-136, -19);
type = Stem;
},
{
horizontal = 1;
place = (574, -20);
target = down;
type = TopGhost;
},
{
horizontal = 1;
place = (670, -15);
place = (670, -15);
type = Stem;
},
{
horizontal = 1;
place = (840, 19);
place = (840, 19);
type = Stem;
},
{
place = (-41, -16);
place = (-41, -16);
type = Stem;
},
{
place = (375, -16);
place = (375, -16);
type = Stem;
},
{
place = (79, -29);
place = (79, -29);
type = Stem;
},
{
place = (269, -29);
place = (269, -29);
type = Stem;
}
);
layerId = m01;
shapes = (
{
closed = 1;
nodes = (
(352,963,l),
(430,963,l),
(351,1105,l),
(241,1105,l)
);
},
{
closed = 1;
nodes = (
(219,793,l),
(313,793,l),
(332,901,l),
(238,901,l)
);
},
{
closed = 1;
nodes = (
(409,793,l),
(503,793,l),
(522,901,l),
(428,901,l)
);
},
{
closed = 1;
nodes = (
(390,-13,o),
(496,78,o),
(527,257,cs),
(605,697,l),
(498,697,l),
(422,265,ls),
(400,141,o),
(345,91,o),
(236,91,cs),
(127,91,o),
(91,140,o),
(113,264,cs),
(189,697,l),
(82,697,l),
(4,252,ls),
(-27,76,o),
(47,-13,o),
(218,-13,cs)
);
}
);
width = 687;
}
);
note = uni01DB;
unicode = 475;
},
{
glyphname = uni01D5;
kernLeft = U;
kernRight = J;
lastChange = "2022-12-26 08:52:03 +0000";
layers = (
{
hints = (
{
horizontal = 1;
place = (-136, -19);
place = (-136, -19);
type = Stem;
},
{
horizontal = 1;
place = (574, -20);
target = down;
type = TopGhost;
},
{
horizontal = 1;
place = (670, -15);
place = (670, -15);
type = Stem;
},
{
horizontal = 1;
place = (862, -62);
place = (862, -62);
type = Stem;
},
{
place = (-41, -16);
place = (-41, -16);
type = Stem;
},
{
place = (375, -16);
place = (375, -16);
type = Stem;
},
{
place = (79, -29);
place = (79, -29);
type = Stem;
},
{
place = (269, -29);
place = (269, -29);
type = Stem;
}
);
layerId = m01;
shapes = (
{
closed = 1;
nodes = (
(258,985,l),
(531,985,l),
(542,1046,l),
(269,1046,l)
);
},
{
closed = 1;
nodes = (
(219,793,l),
(313,793,l),
(332,901,l),
(238,901,l)
);
},
{
closed = 1;
nodes = (
(409,793,l),
(503,793,l),
(522,901,l),
(428,901,l)
);
},
{
closed = 1;
nodes = (
(390,-13,o),
(496,78,o),
(527,257,cs),
(605,697,l),
(498,697,l),
(422,265,ls),
(400,141,o),
(345,91,o),
(236,91,cs),
(127,91,o),
(91,140,o),
(113,264,cs),
(189,697,l),
(82,697,l),
(4,252,ls),
(-27,76,o),
(47,-13,o),
(218,-13,cs)
);
}
);
width = 687;
}
);
note = uni01D5;
unicode = 469;
},
{
glyphname = uni1EE4;
kernLeft = U;
kernRight = J;
lastChange = "2022-12-26 08:52:03 +0000";
layers = (
{
hints = (
{
horizontal = 1;
place = (-296, -15);
place = (-296, -15);
type = Stem;
},
{
horizontal = 1;
place = (-136, -19);
place = (-136, -19);
type = Stem;
},
{
horizontal = 1;
place = (574, -20);
target = down;
type = TopGhost;
},
{
place = (-41, -16);
place = (-41, -16);
type = Stem;
},
{
place = (166, -13);
place = (166, -13);
type = Stem;
},
{
place = (375, -16);
place = (375, -16);
type = Stem;
}
);
layerId = m01;
shapes = (
{
closed = 1;
nodes = (
(390,-13,o),
(496,78,o),
(527,257,cs),
(605,697,l),
(498,697,l),
(422,265,ls),
(400,141,o),
(345,91,o),
(236,91,cs),
(127,91,o),
(91,140,o),
(113,264,cs),
(189,697,l),
(82,697,l),
(4,252,ls),
(-27,76,o),
(47,-13,o),
(218,-13,cs)
);
},
{
closed = 1;
nodes = (
(136,-173,l),
(246,-173,l),
(265,-65,l),
(155,-65,l)
);
}
);
width = 687;
}
);
note = uni1EE4;
unicode = 7908;
},
{
glyphname = Ugrave;
kernLeft = U;
kernRight = J;
lastChange = "2022-12-26 08:52:03 +0000";
layers = (
{
hints = (
{
horizontal = 1;
place = (-136, -19);
place = (-136, -19);
type = Stem;
},
{
horizontal = 1;
place = (574, -20);
target = down;
type = TopGhost;
},
{
horizontal = 1;
place = (636, 19);
place = (636, 19);
type = Stem;
},
{
place = (-41, -16);
place = (-41, -16);
type = Stem;
},
{
place = (375, -16);
place = (375, -16);
type = Stem;
}
);
layerId = m01;
shapes = (
{
closed = 1;
nodes = (
(316,759,l),
(394,759,l),
(315,901,l),
(205,901,l)
);
},
{
closed = 1;
nodes = (
(390,-13,o),
(496,78,o),
(527,257,cs),
(605,697,l),
(498,697,l),
(422,265,ls),
(400,141,o),
(345,91,o),
(236,91,cs),
(127,91,o),
(91,140,o),
(113,264,cs),
(189,697,l),
(82,697,l),
(4,252,ls),
(-27,76,o),
(47,-13,o),
(218,-13,cs)
);
}
);
width = 687;
}
);
note = Ugrave;
unicode = 217;
},
{
glyphname = uni1EE6;
kernLeft = U;
kernRight = J;
lastChange = "2022-12-26 08:52:03 +0000";
layers = (
{
hints = (
{
horizontal = 1;
place = (-136, -19);
place = (-136, -19);
type = Stem;
},
{
horizontal = 1;
place = (574, -20);
target = down;
type = TopGhost;
},
{
horizontal = 1;
place = (742, -66);
place = (742, -66);
type = Stem;
},
{
place = (-41, -16);
place = (-41, -16);
type = Stem;
},
{
place = (266, -57);
place = (266, -57);
type = Stem;
},
{
place = (375, -16);
place = (375, -16);
type = Stem;
}
);
layerId = m01;
shapes = (
{
closed = 1;
nodes = (
(342,736,l),
(393,745,o),
(465,756,o),
(478,825,cs),
(489,888,o),
(435,922,o),
(349,922,cs),
(334,922,l),
(324,865,l),
(339,865,ls),
(379,865,o),
(418,860,o),
(411,824,cs),
(406,792,o),
(370,786,o),
(337,782,c)
);
},
{
closed = 1;
nodes = (
(390,-13,o),
(496,78,o),
(527,257,cs),
(605,697,l),
(498,697,l),
(422,265,ls),
(400,141,o),
(345,91,o),
(236,91,cs),
(127,91,o),
(91,140,o),
(113,264,cs),
(189,697,l),
(82,697,l),
(4,252,ls),
(-27,76,o),
(47,-13,o),
(218,-13,cs)
);
}
);
width = 687;
}
);
note = uni1EE6;
unicode = 7910;
},
{
glyphname = Uhorn;
kernLeft = U;
kernRight = J;
lastChange = "2022-12-26 08:52:03 +0000";
layers = (
{
hints = (
{
horizontal = 1;
place = (-136, -19);
place = (-136, -19);
type = Stem;
},
{
horizontal = 1;
place = (574, -20);
target = down;
type = TopGhost;
},
{
place = (-41, -16);
place = (-41, -16);
type = Stem;
},
{
place = (375, -16);
place = (375, -16);
type = Stem;
},
{
place = (545, -44);
place = (545, -44);
type = Stem;
}
);
layerId = m01;
shapes = (
{
closed = 1;
nodes = (
(668,697,l),
(659,647,ls),
(652,609,o),
(632,567,o),
(581,563,c),
(605,697,l),
(498,697,l),
(422,265,ls),
(400,141,o),
(345,91,o),
(236,91,cs),
(127,91,o),
(91,140,o),
(113,264,cs),
(189,697,l),
(82,697,l),
(4,252,ls),
(-27,76,o),
(47,-13,o),
(218,-13,cs),
(390,-13,o),
(496,78,o),
(527,257,cs),
(569,494,l),
(671,498,o),
(724,567,o),
(740,655,cs),
(747,697,l)
);
}
);
width = 687;
}
);
note = Uhorn;
unicode = 431;
},
{
glyphname = uni1EE8;
kernLeft = U;
kernRight = J;
lastChange = "2022-12-26 08:52:03 +0000";
layers = (
{
hints = (
{
horizontal = 1;
place = (-136, -19);
place = (-136, -19);
type = Stem;
},
{
horizontal = 1;
place = (574, -20);
target = down;
type = TopGhost;
},
{
horizontal = 1;
place = (636, 19);
place = (636, 19);
type = Stem;
},
{
place = (-41, -16);
place = (-41, -16);
type = Stem;
},
{
place = (375, -16);
place = (375, -16);
type = Stem;
},
{
place = (545, -44);
place = (545, -44);
type = Stem;
}
);
layerId = m01;
shapes = (
{
closed = 1;
nodes = (
(563,901,l),
(452,901,l),
(317,759,l),
(394,759,l)
);
},
{
closed = 1;
nodes = (
(668,697,l),
(659,647,ls),
(652,609,o),
(632,567,o),
(581,563,c),
(605,697,l),
(498,697,l),
(422,265,ls),
(400,141,o),
(345,91,o),
(236,91,cs),
(127,91,o),
(91,140,o),
(113,264,cs),
(189,697,l),
(82,697,l),
(4,252,ls),
(-27,76,o),
(47,-13,o),
(218,-13,cs),
(390,-13,o),
(496,78,o),
(527,257,cs),
(569,494,l),
(671,498,o),
(724,567,o),
(740,655,cs),
(747,697,l)
);
}
);
width = 687;
}
);
note = uni1EE8;
unicode = 7912;
},
{
glyphname = uni1EF0;
kernLeft = U;
kernRight = J;
lastChange = "2022-12-26 08:52:03 +0000";
layers = (
{
hints = (
{
horizontal = 1;
place = (-296, -15);
place = (-296, -15);
type = Stem;
},
{
horizontal = 1;
place = (-136, -19);
place = (-136, -19);
type = Stem;
},
{
horizontal = 1;
place = (574, -20);
target = down;
type = TopGhost;
},
{
place = (-41, -16);
place = (-41, -16);
type = Stem;
},
{
place = (166, -13);
place = (166, -13);
type = Stem;
},
{
place = (375, -16);
place = (375, -16);
type = Stem;
},
{
place = (545, -44);
place = (545, -44);
type = Stem;
}
);
layerId = m01;
shapes = (
{
closed = 1;
nodes = (
(668,697,l),
(659,647,ls),
(652,609,o),
(632,567,o),
(581,563,c),
(605,697,l),
(498,697,l),
(422,265,ls),
(400,141,o),
(345,91,o),
(236,91,cs),
(127,91,o),
(91,140,o),
(113,264,cs),
(189,697,l),
(82,697,l),
(4,252,ls),
(-27,76,o),
(47,-13,o),
(218,-13,cs),
(390,-13,o),
(496,78,o),
(527,257,cs),
(569,494,l),
(671,498,o),
(724,567,o),
(740,655,cs),
(747,697,l)
);
},
{
closed = 1;
nodes = (
(136,-173,l),
(246,-173,l),
(265,-65,l),
(155,-65,l)
);
}
);
width = 687;
}
);
note = uni1EF0;
unicode = 7920;
},
{
glyphname = uni1EEA;
kernLeft = U;
kernRight = J;
lastChange = "2022-12-26 08:52:03 +0000";
layers = (
{
hints = (
{
horizontal = 1;
place = (-136, -19);
place = (-136, -19);
type = Stem;
},
{
horizontal = 1;
place = (574, -20);
target = down;
type = TopGhost;
},
{
horizontal = 1;
place = (636, 19);
place = (636, 19);
type = Stem;
},
{
place = (-41, -16);
place = (-41, -16);
type = Stem;
},
{
place = (375, -16);
place = (375, -16);
type = Stem;
},
{
place = (545, -44);
place = (545, -44);
type = Stem;
}
);
layerId = m01;
shapes = (
{
closed = 1;
nodes = (
(394,759,l),
(315,901,l),
(205,901,l),
(316,759,l)
);
},
{
closed = 1;
nodes = (
(668,697,l),
(659,647,ls),
(652,609,o),
(632,567,o),
(581,563,c),
(605,697,l),
(498,697,l),
(422,265,ls),
(400,141,o),
(345,91,o),
(236,91,cs),
(127,91,o),
(91,140,o),
(113,264,cs),
(189,697,l),
(82,697,l),
(4,252,ls),
(-27,76,o),
(47,-13,o),
(218,-13,cs),
(390,-13,o),
(496,78,o),
(527,257,cs),
(569,494,l),
(671,498,o),
(724,567,o),
(740,655,cs),
(747,697,l)
);
}
);
width = 687;
}
);
note = uni1EEA;
unicode = 7914;
},
{
glyphname = uni1EEC;
kernLeft = U;
kernRight = J;
lastChange = "2022-12-26 08:52:03 +0000";
layers = (
{
hints = (
{
horizontal = 1;
place = (-136, -19);
place = (-136, -19);
type = Stem;
},
{
horizontal = 1;
place = (574, -20);
target = down;
type = TopGhost;
},
{
horizontal = 1;
place = (742, -66);
place = (742, -66);
type = Stem;
},
{
place = (-41, -16);
place = (-41, -16);
type = Stem;
},
{
place = (266, -57);
place = (266, -57);
type = Stem;
},
{
place = (375, -16);
place = (375, -16);
type = Stem;
},
{
place = (545, -44);
place = (545, -44);
type = Stem;
}
);
layerId = m01;
shapes = (
{
closed = 1;
nodes = (
(406,792,o),
(370,786,o),
(337,782,c),
(342,736,l),
(393,745,o),
(465,756,o),
(478,825,cs),
(489,888,o),
(435,922,o),
(349,922,cs),
(334,922,l),
(324,865,l),
(339,865,ls),
(379,865,o),
(418,860,o),
(411,824,cs)
);
},
{
closed = 1;
nodes = (
(668,697,l),
(659,647,ls),
(652,609,o),
(632,567,o),
(581,563,c),
(605,697,l),
(498,697,l),
(422,265,ls),
(400,141,o),
(345,91,o),
(236,91,cs),
(127,91,o),
(91,140,o),
(113,264,cs),
(189,697,l),
(82,697,l),
(4,252,ls),
(-27,76,o),
(47,-13,o),
(218,-13,cs),
(390,-13,o),
(496,78,o),
(527,257,cs),
(569,494,l),
(671,498,o),
(724,567,o),
(740,655,cs),
(747,697,l)
);
}
);
width = 687;
}
);
note = uni1EEC;
unicode = 7916;
},
{
glyphname = uni1EEE;
kernLeft = U;
kernRight = J;
lastChange = "2022-12-26 08:52:03 +0000";
layers = (
{
hints = (
{
horizontal = 1;
place = (-136, -19);
place = (-136, -19);
type = Stem;
},
{
horizontal = 1;
place = (574, -20);
target = down;
type = TopGhost;
},
{
horizontal = 1;
place = (717, -59);
place = (717, -59);
type = Stem;
},
{
place = (57, -63);
place = (57, -63);
type = Stem;
},
{
place = (322, -60);
place = (322, -60);
type = Stem;
},
{
place = (545, -44);
place = (545, -44);
type = Stem;
},
{
horizontal = 1;
place = (642, -59);
place = (642, -59);
type = Stem;
},
{
place = (-41, -16);
place = (-41, -16);
type = Stem;
},
{
place = (375, -16);
place = (375, -16);
type = Stem;
}
);
layerId = m01;
shapes = (
{
closed = 1;
nodes = (
(345,840,o),
(342,765,o),
(421,765,cs),
(481,765,o),
(529,814,o),
(544,901,c),
(481,901,l),
(473,855,o),
(453,829,o),
(433,829,cs),
(392,829,o),
(389,904,o),
(318,904,cs),
(255,904,o),
(208,855,o),
(193,770,c),
(253,770,l),
(261,815,o),
(279,840,o),
(303,840,cs)
);
},
{
closed = 1;
nodes = (
(668,697,l),
(659,647,ls),
(652,609,o),
(632,567,o),
(581,563,c),
(605,697,l),
(498,697,l),
(422,265,ls),
(400,141,o),
(345,91,o),
(236,91,cs),
(127,91,o),
(91,140,o),
(113,264,cs),
(189,697,l),
(82,697,l),
(4,252,ls),
(-27,76,o),
(47,-13,o),
(218,-13,cs),
(390,-13,o),
(496,78,o),
(527,257,cs),
(569,494,l),
(671,498,o),
(724,567,o),
(740,655,cs),
(747,697,l)
);
}
);
width = 687;
}
);
note = uni1EEE;
unicode = 7918;
},
{
glyphname = Uhungarumlaut;
kernLeft = U;
kernRight = J;
lastChange = "2022-12-26 08:52:03 +0000";
layers = (
{
hints = (
{
horizontal = 1;
place = (-136, -19);
place = (-136, -19);
type = Stem;
},
{
horizontal = 1;
place = (574, -20);
target = down;
type = TopGhost;
},
{
horizontal = 1;
place = (619, 36);
place = (619, 36);
type = Stem;
},
{
place = (-41, -16);
place = (-41, -16);
type = Stem;
},
{
place = (375, -16);
place = (375, -16);
type = Stem;
}
);
layerId = m01;
shapes = (
{
closed = 1;
nodes = (
(221,742,l),
(298,742,l),
(452,901,l),
(359,901,l)
);
},
{
closed = 1;
nodes = (
(406,742,l),
(482,742,l),
(654,901,l),
(544,901,l)
);
},
{
closed = 1;
nodes = (
(390,-13,o),
(496,78,o),
(527,257,cs),
(605,697,l),
(498,697,l),
(422,265,ls),
(400,141,o),
(345,91,o),
(236,91,cs),
(127,91,o),
(91,140,o),
(113,264,cs),
(189,697,l),
(82,697,l),
(4,252,ls),
(-27,76,o),
(47,-13,o),
(218,-13,cs)
);
}
);
width = 687;
}
);
note = Uhungarumlaut;
unicode = 368;
},
{
glyphname = Umacron;
kernLeft = U;
kernRight = J;
lastChange = "2022-12-26 08:52:03 +0000";
layers = (
{
hints = (
{
horizontal = 1;
place = (-136, -19);
place = (-136, -19);
type = Stem;
},
{
horizontal = 1;
place = (574, -20);
target = down;
type = TopGhost;
},
{
horizontal = 1;
place = (658, -62);
place = (658, -62);
type = Stem;
},
{
place = (-41, -16);
place = (-41, -16);
type = Stem;
},
{
place = (84, 150);
place = (84, 150);
type = Stem;
},
{
place = (375, -16);
place = (375, -16);
type = Stem;
}
);
layerId = m01;
shapes = (
{
closed = 1;
nodes = (
(222,781,l),
(495,781,l),
(506,842,l),
(233,842,l)
);
},
{
closed = 1;
nodes = (
(390,-13,o),
(496,78,o),
(527,257,cs),
(605,697,l),
(498,697,l),
(422,265,ls),
(400,141,o),
(345,91,o),
(236,91,cs),
(127,91,o),
(91,140,o),
(113,264,cs),
(189,697,l),
(82,697,l),
(4,252,ls),
(-27,76,o),
(47,-13,o),
(218,-13,cs)
);
}
);
width = 687;
}
);
note = Umacron;
unicode = 362;
},
{
glyphname = Uogonek;
kernLeft = U;
kernRight = J;
lastChange = "2022-12-26 08:52:03 +0000";
layers = (
{
hints = (
{
horizontal = 1;
place = (-342, -59);
place = (-342, -59);
type = Stem;
},
{
horizontal = 1;
place = (-136, -19);
place = (-136, -19);
type = Stem;
},
{
horizontal = 1;
place = (574, -20);
target = down;
type = TopGhost;
},
{
place = (-41, -16);
place = (-41, -16);
type = Stem;
},
{
place = (137, -60);
place = (137, -60);
type = Stem;
},
{
place = (375, -16);
place = (375, -16);
type = Stem;
}
);
layerId = m01;
shapes = (
{
closed = 1;
nodes = (
(498,697,l),
(422,265,ls),
(400,141,o),
(345,91,o),
(236,91,cs),
(127,91,o),
(91,140,o),
(113,264,cs),
(189,697,l),
(82,697,l),
(4,252,ls),
(-26,83,o),
(41,-6,o),
(198,-13,c),
(163,-36,o),
(124,-73,o),
(115,-124,cs),
(105,-182,o),
(144,-219,o),
(203,-219,cs),
(249,-219,o),
(286,-197,o),
(316,-164,c),
(271,-127,l),
(254,-145,o),
(234,-155,o),
(213,-155,cs),
(191,-155,o),
(175,-145,o),
(180,-114,cs),
(190,-58,o),
(253,-24,o),
(286,-8,c),
(418,14,o),
(500,103,o),
(527,257,cs),
(605,697,l)
);
}
);
width = 687;
}
);
note = Uogonek;
unicode = 370;
},
{
glyphname = Uring;
kernLeft = U;
kernRight = J;
lastChange = "2022-12-26 08:52:03 +0000";
layers = (
{
hints = (
{
horizontal = 1;
place = (-136, -19);
place = (-136, -19);
type = Stem;
},
{
horizontal = 1;
place = (556, -67);
place = (556, -67);
type = Stem;
},
{
horizontal = 1;
place = (716, -66);
place = (716, -66);
type = Stem;
},
{
place = (-41, -16);
place = (-41, -16);
type = Stem;
},
{
place = (113, -67);
place = (113, -67);
type = Stem;
},
{
place = (273, -66);
place = (273, -66);
type = Stem;
},
{
place = (375, -16);
place = (375, -16);
type = Stem;
},
{
horizontal = 1;
place = (574, -20);
target = down;
type = TopGhost;
}
);
layerId = m01;
shapes = (
{
closed = 1;
nodes = (
(401,679,o),
(458,728,o),
(469,787,cs),
(480,848,o),
(437,896,o),
(379,896,cs),
(320,896,o),
(262,847,o),
(252,787,cs),
(242,729,o),
(281,679,o),
(341,679,cs)
);
},
{
closed = 1;
nodes = (
(322,735,o),
(303,758,o),
(308,788,cs),
(313,818,o),
(338,839,o),
(369,839,cs),
(401,839,o),
(417,818,o),
(412,788,cs),
(407,758,o),
(382,735,o),
(351,735,cs)
);
},
{
closed = 1;
nodes = (
(390,-13,o),
(496,78,o),
(527,257,cs),
(605,697,l),
(498,697,l),
(422,265,ls),
(400,141,o),
(345,91,o),
(236,91,cs),
(127,91,o),
(91,140,o),
(113,264,cs),
(189,697,l),
(82,697,l),
(4,252,ls),
(-27,76,o),
(47,-13,o),
(218,-13,cs)
);
}
);
width = 687;
}
);
note = Uring;
unicode = 366;
},
{
glyphname = Utilde;
kernLeft = U;
kernRight = J;
lastChange = "2022-12-26 08:52:03 +0000";
layers = (
{
hints = (
{
horizontal = 1;
place = (-136, -19);
place = (-136, -19);
type = Stem;
},
{
horizontal = 1;
place = (574, -20);
target = down;
type = TopGhost;
},
{
horizontal = 1;
place = (642, -59);
place = (642, -59);
type = Stem;
},
{
horizontal = 1;
place = (717, -59);
place = (717, -59);
type = Stem;
},
{
place = (-41, -16);
place = (-41, -16);
type = Stem;
},
{
place = (322, -60);
place = (322, -60);
type = Stem;
},
{
place = (57, -63);
place = (57, -63);
type = Stem;
},
{
place = (375, -16);
place = (375, -16);
type = Stem;
}
);
layerId = m01;
shapes = (
{
closed = 1;
nodes = (
(481,765,o),
(529,814,o),
(544,901,c),
(481,901,l),
(473,855,o),
(453,829,o),
(433,829,cs),
(392,829,o),
(389,904,o),
(318,904,cs),
(255,904,o),
(208,855,o),
(193,770,c),
(253,770,l),
(261,815,o),
(279,840,o),
(303,840,cs),
(345,840,o),
(342,765,o),
(421,765,cs)
);
},
{
closed = 1;
nodes = (
(390,-13,o),
(496,78,o),
(527,257,cs),
(605,697,l),
(498,697,l),
(422,265,ls),
(400,141,o),
(345,91,o),
(236,91,cs),
(127,91,o),
(91,140,o),
(113,264,cs),
(189,697,l),
(82,697,l),
(4,252,ls),
(-27,76,o),
(47,-13,o),
(218,-13,cs)
);
}
);
width = 687;
}
);
note = Utilde;
unicode = 360;
},
{
glyphname = V;
kernLeft = V;
kernRight = V;
lastChange = "2022-12-26 08:52:03 +0000";
layers = (
{
hints = (
{
horizontal = 1;
place = (-123, 21);
target = up;
type = BottomGhost;
},
{
horizontal = 1;
place = (574, -20);
target = down;
type = TopGhost;
},
{
place = (-108, 514);
place = (-108, 514);
type = Stem;
}
);
layerId = m01;
shapes = (
{
closed = 1;
nodes = (
(543,697,ls),
(537,697,o),
(532,693,o),
(529,688,cs),
(242,173,l),
(133,697,l),
(15,697,l),
(170,0,l),
(252,0,l),
(652,697,l)
);
}
);
width = 666;
}
);
note = V;
unicode = 86;
},
{
glyphname = W;
kernLeft = W;
kernRight = W;
lastChange = "2022-12-26 08:52:03 +0000";
layers = (
{
hints = (
{
horizontal = 1;
place = (-123, 21);
target = up;
type = BottomGhost;
},
{
horizontal = 1;
place = (574, -20);
target = down;
type = TopGhost;
},
{
place = (-102, 821);
place = (-102, 821);
type = Stem;
},
{
horizontal = 1;
place = (-123, 40);
place = (-123, 40);
type = Stem;
}
);
layerId = m01;
shapes = (
{
closed = 1;
nodes = (
(868,697,ls),
(858,697,o),
(851,693,o),
(847,683,cs),
(606,163,l),
(532,658,l),
(455,658,ls),
(445,658,o),
(437,654,o),
(433,644,cs),
(193,163,l),
(133,697,l),
(21,697,l),
(105,0,l),
(210,0,l),
(456,488,l),
(530,0,l),
(635,0,l),
(965,697,l)
);
}
);
width = 986;
}
);
note = W;
unicode = 87;
},
{
glyphname = Wacute;
kernLeft = W;
kernRight = W;
lastChange = "2022-12-26 08:52:03 +0000";
layers = (
{
hints = (
{
horizontal = 1;
place = (-123, 21);
target = up;
type = BottomGhost;
},
{
horizontal = 1;
place = (574, -20);
target = down;
type = TopGhost;
},
{
horizontal = 1;
place = (636, 19);
place = (636, 19);
type = Stem;
},
{
place = (-102, 821);
place = (-102, 821);
type = Stem;
},
{
horizontal = 1;
place = (-123, 40);
place = (-123, 40);
type = Stem;
}
);
layerId = m01;
shapes = (
{
closed = 1;
nodes = (
(466,759,l),
(543,759,l),
(712,901,l),
(601,901,l)
);
},
{
closed = 1;
nodes = (
(105,0,l),
(210,0,l),
(456,488,l),
(530,0,l),
(635,0,l),
(965,697,l),
(853,697,l),
(606,163,l),
(532,658,l),
(440,658,l),
(193,163,l),
(133,697,l),
(21,697,l)
);
}
);
width = 986;
}
);
note = Wacute;
unicode = 7810;
},
{
glyphname = Wcircumflex;
kernLeft = W;
kernRight = W;
lastChange = "2022-12-26 08:52:03 +0000";
layers = (
{
hints = (
{
horizontal = 1;
place = (-123, 21);
target = up;
type = BottomGhost;
},
{
horizontal = 1;
place = (574, -20);
target = down;
type = TopGhost;
},
{
place = (-102, 821);
place = (-102, 821);
type = Stem;
},
{
horizontal = 1;
place = (-123, 40);
place = (-123, 40);
type = Stem;
}
);
layerId = m01;
shapes = (
{
closed = 1;
nodes = (
(348,747,l),
(430,747,l),
(516,828,l),
(575,747,l),
(656,747,l),
(532,916,l)
);
},
{
closed = 1;
nodes = (
(105,0,l),
(210,0,l),
(456,488,l),
(530,0,l),
(635,0,l),
(965,697,l),
(853,697,l),
(606,163,l),
(532,658,l),
(440,658,l),
(193,163,l),
(133,697,l),
(21,697,l)
);
}
);
width = 986;
}
);
note = Wcircumflex;
unicode = 372;
},
{
glyphname = Wdieresis;
kernLeft = W;
kernRight = W;
lastChange = "2022-12-26 08:52:03 +0000";
layers = (
{
hints = (
{
horizontal = 1;
place = (-123, 21);
target = up;
type = BottomGhost;
},
{
horizontal = 1;
place = (574, -20);
target = down;
type = TopGhost;
},
{
horizontal = 1;
place = (670, -15);
place = (670, -15);
type = Stem;
},
{
place = (229, -29);
place = (229, -29);
type = Stem;
},
{
place = (419, -29);
place = (419, -29);
type = Stem;
},
{
horizontal = 1;
place = (-123, 40);
place = (-123, 40);
type = Stem;
}
);
layerId = m01;
shapes = (
{
closed = 1;
nodes = (
(369,793,l),
(463,793,l),
(482,901,l),
(388,901,l)
);
},
{
closed = 1;
nodes = (
(559,793,l),
(653,793,l),
(672,901,l),
(578,901,l)
);
},
{
closed = 1;
nodes = (
(105,0,l),
(210,0,l),
(456,488,l),
(530,0,l),
(635,0,l),
(965,697,l),
(853,697,l),
(606,163,l),
(532,658,l),
(440,658,l),
(193,163,l),
(133,697,l),
(21,697,l)
);
}
);
width = 986;
}
);
note = Wdieresis;
unicode = 7812;
},
{
glyphname = Wgrave;
kernLeft = W;
kernRight = W;
lastChange = "2022-12-26 08:52:03 +0000";
layers = (
{
hints = (
{
horizontal = 1;
place = (-123, 21);
target = up;
type = BottomGhost;
},
{
horizontal = 1;
place = (574, -20);
target = down;
type = TopGhost;
},
{
horizontal = 1;
place = (636, 19);
place = (636, 19);
type = Stem;
},
{
place = (-102, 821);
place = (-102, 821);
type = Stem;
},
{
horizontal = 1;
place = (-123, 40);
place = (-123, 40);
type = Stem;
}
);
layerId = m01;
shapes = (
{
closed = 1;
nodes = (
(465,759,l),
(543,759,l),
(464,901,l),
(354,901,l)
);
},
{
closed = 1;
nodes = (
(105,0,l),
(210,0,l),
(456,488,l),
(530,0,l),
(635,0,l),
(965,697,l),
(853,697,l),
(606,163,l),
(532,658,l),
(440,658,l),
(193,163,l),
(133,697,l),
(21,697,l)
);
}
);
width = 986;
}
);
note = Wgrave;
unicode = 7808;
},
{
glyphname = X;
kernLeft = X;
kernRight = X;
lastChange = "2022-12-26 08:52:03 +0000";
layers = (
{
hints = (
{
horizontal = 1;
place = (-123, 21);
target = up;
type = BottomGhost;
},
{
horizontal = 1;
place = (574, -20);
target = down;
type = TopGhost;
},
{
place = (-102, 497);
place = (-102, 497);
type = Stem;
}
);
layerId = m01;
shapes = (
{
closed = 1;
nodes = (
(383,12,ls),
(388,4,o),
(394,0,o),
(404,0,cs),
(518,0,l),
(343,349,l),
(638,697,l),
(510,697,l),
(282,424,l),
(157,684,ls),
(152,692,o),
(146,697,o),
(136,697,cs),
(23,697,l),
(196,349,l),
(-102,0,l),
(26,0,l),
(254,272,l)
);
}
);
width = 661;
}
);
note = X;
unicode = 88;
},
{
glyphname = Y;
kernLeft = Y;
kernRight = Y;
lastChange = "2022-12-26 08:52:03 +0000";
layers = (
{
hints = (
{
horizontal = 1;
place = (-123, 21);
target = up;
type = BottomGhost;
},
{
horizontal = 1;
place = (574, -20);
target = down;
type = TopGhost;
},
{
place = (150, -15);
place = (150, -15);
type = Stem;
}
);
layerId = m01;
shapes = (
{
closed = 1;
nodes = (
(150,0,l),
(258,0,l),
(306,270,l),
(645,697,l),
(518,697,l),
(268,373,l),
(134,697,l),
(8,697,l),
(198,270,l)
);
}
);
width = 653;
}
);
note = Y;
unicode = 89;
},
{
glyphname = Yacute;
kernLeft = Y;
kernRight = Y;
lastChange = "2022-12-26 08:52:03 +0000";
layers = (
{
hints = (
{
horizontal = 1;
place = (-123, 21);
target = up;
type = BottomGhost;
},
{
horizontal = 1;
place = (574, -20);
target = down;
type = TopGhost;
},
{
horizontal = 1;
place = (636, 19);
place = (636, 19);
type = Stem;
},
{
place = (150, -15);
place = (150, -15);
type = Stem;
}
);
layerId = m01;
shapes = (
{
closed = 1;
nodes = (
(299,759,l),
(376,759,l),
(545,901,l),
(434,901,l)
);
},
{
closed = 1;
nodes = (
(150,0,l),
(258,0,l),
(306,270,l),
(645,697,l),
(518,697,l),
(268,373,l),
(134,697,l),
(8,697,l),
(198,270,l)
);
}
);
width = 653;
}
);
note = Yacute;
unicode = 221;
},
{
glyphname = Ycircumflex;
kernLeft = Y;
kernRight = Y;
lastChange = "2022-12-26 08:52:03 +0000";
layers = (
{
hints = (
{
horizontal = 1;
place = (-123, 21);
target = up;
type = BottomGhost;
},
{
horizontal = 1;
place = (574, -20);
target = down;
type = TopGhost;
},
{
place = (150, -15);
place = (150, -15);
type = Stem;
}
);
layerId = m01;
shapes = (
{
closed = 1;
nodes = (
(182,747,l),
(264,747,l),
(350,828,l),
(409,747,l),
(490,747,l),
(366,916,l)
);
},
{
closed = 1;
nodes = (
(150,0,l),
(258,0,l),
(306,270,l),
(645,697,l),
(518,697,l),
(268,373,l),
(134,697,l),
(8,697,l),
(198,270,l)
);
}
);
width = 653;
}
);
note = Ycircumflex;
unicode = 374;
},
{
glyphname = Ydieresis;
kernLeft = Y;
kernRight = Y;
lastChange = "2022-12-26 08:52:03 +0000";
layers = (
{
hints = (
{
horizontal = 1;
place = (-123, 21);
target = up;
type = BottomGhost;
},
{
horizontal = 1;
place = (574, -20);
target = down;
type = TopGhost;
},
{
horizontal = 1;
place = (670, -15);
place = (670, -15);
type = Stem;
},
{
place = (62, -29);
place = (62, -29);
type = Stem;
},
{
place = (252, -29);
place = (252, -29);
type = Stem;
},
{
place = (150, -15);
place = (150, -15);
type = Stem;
}
);
layerId = m01;
shapes = (
{
closed = 1;
nodes = (
(202,793,l),
(296,793,l),
(315,901,l),
(221,901,l)
);
},
{
closed = 1;
nodes = (
(392,793,l),
(486,793,l),
(505,901,l),
(411,901,l)
);
},
{
closed = 1;
nodes = (
(150,0,l),
(258,0,l),
(306,270,l),
(645,697,l),
(518,697,l),
(268,373,l),
(134,697,l),
(8,697,l),
(198,270,l)
);
}
);
width = 653;
}
);
note = Ydieresis;
unicode = 376;
},
{
glyphname = uni1EF4;
kernLeft = Y;
kernRight = Y;
lastChange = "2022-12-26 08:52:03 +0000";
layers = (
{
hints = (
{
horizontal = 1;
place = (-296, -15);
place = (-296, -15);
type = Stem;
},
{
horizontal = 1;
place = (-123, 21);
target = up;
type = BottomGhost;
},
{
horizontal = 1;
place = (574, -20);
target = down;
type = TopGhost;
},
{
place = (150, -15);
place = (150, -15);
type = Stem;
},
{
place = (149, -13);
place = (149, -13);
type = Stem;
}
);
layerId = m01;
shapes = (
{
closed = 1;
nodes = (
(150,0,l),
(258,0,l),
(306,270,l),
(645,697,l),
(518,697,l),
(268,373,l),
(134,697,l),
(8,697,l),
(198,270,l)
);
},
{
closed = 1;
nodes = (
(119,-173,l),
(229,-173,l),
(248,-65,l),
(138,-65,l)
);
}
);
width = 653;
}
);
note = uni1EF4;
unicode = 7924;
},
{
glyphname = Ygrave;
kernLeft = Y;
kernRight = Y;
lastChange = "2022-12-26 08:52:03 +0000";
layers = (
{
hints = (
{
horizontal = 1;
place = (-123, 21);
target = up;
type = BottomGhost;
},
{
horizontal = 1;
place = (574, -20);
target = down;
type = TopGhost;
},
{
horizontal = 1;
place = (636, 19);
place = (636, 19);
type = Stem;
},
{
place = (150, -15);
place = (150, -15);
type = Stem;
}
);
layerId = m01;
shapes = (
{
closed = 1;
nodes = (
(299,759,l),
(377,759,l),
(298,901,l),
(188,901,l)
);
},
{
closed = 1;
nodes = (
(150,0,l),
(258,0,l),
(306,270,l),
(645,697,l),
(518,697,l),
(268,373,l),
(134,697,l),
(8,697,l),
(198,270,l)
);
}
);
width = 653;
}
);
note = Ygrave;
unicode = 7922;
},
{
glyphname = uni1EF6;
kernLeft = Y;
kernRight = Y;
lastChange = "2022-12-26 08:52:03 +0000";
layers = (
{
hints = (
{
horizontal = 1;
place = (-123, 21);
target = up;
type = BottomGhost;
},
{
horizontal = 1;
place = (574, -20);
target = down;
type = TopGhost;
},
{
horizontal = 1;
place = (742, -66);
place = (742, -66);
type = Stem;
},
{
place = (150, -15);
place = (150, -15);
type = Stem;
},
{
place = (249, -57);
place = (249, -57);
type = Stem;
}
);
layerId = m01;
shapes = (
{
closed = 1;
nodes = (
(325,736,l),
(376,745,o),
(448,756,o),
(461,825,cs),
(472,888,o),
(418,922,o),
(332,922,cs),
(317,922,l),
(307,865,l),
(322,865,ls),
(362,865,o),
(401,860,o),
(394,824,cs),
(389,792,o),
(353,786,o),
(320,782,c)
);
},
{
closed = 1;
nodes = (
(150,0,l),
(258,0,l),
(306,270,l),
(645,697,l),
(518,697,l),
(268,373,l),
(134,697,l),
(8,697,l),
(198,270,l)
);
}
);
width = 653;
}
);
note = uni1EF6;
unicode = 7926;
},
{
glyphname = uni1EF8;
kernLeft = Y;
kernRight = Y;
lastChange = "2022-12-26 08:52:03 +0000";
layers = (
{
hints = (
{
horizontal = 1;
place = (-123, 21);
target = up;
type = BottomGhost;
},
{
horizontal = 1;
place = (574, -20);
target = down;
type = TopGhost;
},
{
horizontal = 1;
place = (642, -59);
place = (642, -59);
type = Stem;
},
{
horizontal = 1;
place = (717, -59);
place = (717, -59);
type = Stem;
},
{
place = (150, -15);
place = (150, -15);
type = Stem;
},
{
place = (304, -60);
place = (304, -60);
type = Stem;
},
{
place = (39, -63);
place = (39, -63);
type = Stem;
}
);
layerId = m01;
shapes = (
{
closed = 1;
nodes = (
(463,765,o),
(511,814,o),
(526,901,c),
(463,901,l),
(455,855,o),
(435,829,o),
(415,829,cs),
(374,829,o),
(371,904,o),
(300,904,cs),
(237,904,o),
(190,855,o),
(175,770,c),
(235,770,l),
(243,815,o),
(261,840,o),
(285,840,cs),
(327,840,o),
(324,765,o),
(403,765,cs)
);
},
{
closed = 1;
nodes = (
(150,0,l),
(258,0,l),
(306,270,l),
(645,697,l),
(518,697,l),
(268,373,l),
(134,697,l),
(8,697,l),
(198,270,l)
);
}
);
width = 653;
}
);
note = uni1EF8;
unicode = 7928;
},
{
glyphname = Z;
kernLeft = Z;
kernRight = Z;
lastChange = "2022-12-26 08:52:03 +0000";
layers = (
{
hints = (
{
horizontal = 1;
place = (-123, -24);
place = (-123, -24);
type = Stem;
},
{
horizontal = 1;
place = (475, -24);
place = (475, -24);
type = Stem;
},
{
place = (-90, 435);
place = (-90, 435);
type = Stem;
}
);
layerId = m01;
shapes = (
{
closed = 1;
nodes = (
(483,84,ls),
(485,94,o),
(481,99,o),
(471,99,cs),
(74,99,l),
(577,618,l),
(591,697,l),
(56,697,l),
(39,598,l),
(432,598,l),
(-76,76,l),
(-90,0,l),
(468,0,l)
);
}
);
width = 632;
}
);
note = Z;
unicode = 90;
},
{
glyphname = Zacute;
kernLeft = Z;
kernRight = Z;
lastChange = "2022-12-26 08:52:03 +0000";
layers = (
{
hints = (
{
horizontal = 1;
place = (-123, -24);
place = (-123, -24);
type = Stem;
},
{
horizontal = 1;
place = (475, -24);
place = (475, -24);
type = Stem;
},
{
horizontal = 1;
place = (636, 19);
place = (636, 19);
type = Stem;
},
{
place = (-90, 435);
place = (-90, 435);
type = Stem;
}
);
layerId = m01;
shapes = (
{
closed = 1;
nodes = (
(535,901,l),
(424,901,l),
(289,759,l),
(366,759,l)
);
},
{
closed = 1;
nodes = (
(591,697,l),
(56,697,l),
(39,598,l),
(432,598,l),
(-76,76,l),
(-90,0,l),
(468,0,l),
(486,99,l),
(74,99,l),
(577,618,l)
);
}
);
width = 632;
}
);
note = Zacute;
unicode = 377;
},
{
glyphname = Zcaron;
kernLeft = Z;
kernRight = Z;
lastChange = "2022-12-26 08:52:03 +0000";
layers = (
{
hints = (
{
horizontal = 1;
place = (-123, -24);
place = (-123, -24);
type = Stem;
},
{
horizontal = 1;
place = (475, -24);
place = (475, -24);
type = Stem;
},
{
place = (-90, 435);
place = (-90, 435);
type = Stem;
}
);
layerId = m01;
shapes = (
{
closed = 1;
nodes = (
(506,901,l),
(425,901,l),
(339,825,l),
(279,901,l),
(198,901,l),
(324,741,l)
);
},
{
closed = 1;
nodes = (
(591,697,l),
(56,697,l),
(39,598,l),
(432,598,l),
(-76,76,l),
(-90,0,l),
(468,0,l),
(486,99,l),
(74,99,l),
(577,618,l)
);
}
);
width = 632;
}
);
note = Zcaron;
unicode = 381;
},
{
glyphname = Zdotaccent;
kernLeft = Z;
kernRight = Z;
lastChange = "2022-12-26 08:52:03 +0000";
layers = (
{
hints = (
{
horizontal = 1;
place = (-123, -24);
place = (-123, -24);
type = Stem;
},
{
horizontal = 1;
place = (475, -24);
place = (475, -24);
type = Stem;
},
{
horizontal = 1;
place = (670, -15);
place = (670, -15);
type = Stem;
},
{
place = (138, -13);
place = (138, -13);
type = Stem;
}
);
layerId = m01;
shapes = (
{
closed = 1;
nodes = (
(407,901,l),
(297,901,l),
(278,793,l),
(388,793,l)
);
},
{
closed = 1;
nodes = (
(591,697,l),
(56,697,l),
(39,598,l),
(432,598,l),
(-76,76,l),
(-90,0,l),
(468,0,l),
(486,99,l),
(74,99,l),
(577,618,l)
);
}
);
width = 632;
}
);
note = Zdotaccent;
unicode = 379;
},
{
glyphname = uni1EB6.ss03;
kernLeft = A;
kernRight = A;
lastChange = "2022-12-26 08:52:03 +0000";
layers = (
{
hints = (
{
horizontal = 1;
place = (-123, 21);
target = up;
type = BottomGhost;
},
{
horizontal = 1;
place = (35, -26);
place = (35, -26);
type = Stem;
},
{
horizontal = 1;
place = (574, -20);
target = down;
type = TopGhost;
},
{
horizontal = 1;
place = (646, -63);
place = (646, -63);
type = Stem;
},
{
place = (52, -50);
place = (52, -50);
type = Stem;
},
{
place = (287, -50);
place = (287, -50);
type = Stem;
},
{
horizontal = 1;
place = (-307, 13);
place = (-307, 13);
type = Stem;
},
{
place = (138, 12);
place = (138, 12);
type = Stem;
}
);
layerId = m01;
shapes = (
{
closed = 1;
nodes = (
(443,769,o),
(503,812,o),
(519,901,c),
(446,901,l),
(438,855,o),
(400,829,o),
(352,829,cs),
(306,829,o),
(276,853,o),
(284,901,c),
(211,901,l),
(196,815,o),
(236,769,o),
(342,769,cs)
);
},
{
closed = 1;
nodes = (
(519,0,l),
(370,697,l),
(287,697,l),
(-108,0,l),
(8,0,l),
(94,158,l),
(373,158,l),
(402,0,l)
);
},
{
closed = 1;
nodes = (
(146,255,l),
(301,541,l),
(355,255,l)
);
},
{
closed = 1;
nodes = (
(159,-48,o),
(125,-77,o),
(118,-115,cs),
(111,-154,o),
(136,-184,o),
(173,-184,cs),
(212,-184,o),
(246,-154,o),
(253,-115,cs),
(260,-77,o),
(236,-48,o),
(197,-48,cs)
);
}
);
width = 657;
}
);
note = uni1EB6.ss03;
},
{
glyphname = uni1EAC.ss03;
kernLeft = A;
kernRight = A;
lastChange = "2022-12-26 08:52:03 +0000";
layers = (
{
hints = (
{
horizontal = 1;
place = (-307, 13);
place = (-307, 13);
type = Stem;
},
{
horizontal = 1;
place = (-123, 21);
target = up;
type = BottomGhost;
},
{
horizontal = 1;
place = (35, -26);
place = (35, -26);
type = Stem;
},
{
horizontal = 1;
place = (574, -20);
target = down;
type = TopGhost;
},
{
place = (138, 12);
place = (138, 12);
type = Stem;
}
);
layerId = m01;
shapes = (
{
closed = 1;
nodes = (
(352,828,l),
(411,747,l),
(492,747,l),
(368,916,l),
(184,747,l),
(266,747,l)
);
},
{
closed = 1;
nodes = (
(519,0,l),
(370,697,l),
(287,697,l),
(-108,0,l),
(8,0,l),
(94,158,l),
(373,158,l),
(402,0,l)
);
},
{
closed = 1;
nodes = (
(146,255,l),
(301,541,l),
(355,255,l)
);
},
{
closed = 1;
nodes = (
(159,-48,o),
(125,-77,o),
(118,-115,cs),
(111,-154,o),
(136,-184,o),
(173,-184,cs),
(212,-184,o),
(246,-154,o),
(253,-115,cs),
(260,-77,o),
(236,-48,o),
(197,-48,cs)
);
}
);
width = 657;
}
);
note = uni1EAC.ss03;
},
{
glyphname = Adieresis.ss03;
kernLeft = A;
kernRight = A;
lastChange = "2022-12-26 08:52:03 +0000";
layers = (
{
hints = (
{
horizontal = 1;
place = (-123, 21);
target = up;
type = BottomGhost;
},
{
horizontal = 1;
place = (35, -26);
place = (35, -26);
type = Stem;
},
{
horizontal = 1;
place = (574, -20);
target = down;
type = TopGhost;
},
{
horizontal = 1;
place = (651, 13);
place = (651, 13);
type = Stem;
},
{
place = (44, 12);
place = (44, 12);
type = Stem;
},
{
place = (232, 13);
place = (232, 13);
type = Stem;
}
);
layerId = m01;
shapes = (
{
closed = 1;
nodes = (
(287,774,o),
(321,804,o),
(328,842,cs),
(334,881,o),
(311,910,o),
(272,910,cs),
(234,910,o),
(199,881,o),
(193,842,cs),
(186,804,o),
(211,774,o),
(248,774,cs)
);
},
{
closed = 1;
nodes = (
(475,774,o),
(510,804,o),
(517,842,cs),
(523,881,o),
(499,910,o),
(461,910,cs),
(423,910,o),
(387,881,o),
(381,842,cs),
(374,804,o),
(400,774,o),
(437,774,cs)
);
},
{
closed = 1;
nodes = (
(402,0,l),
(519,0,l),
(370,697,l),
(287,697,l),
(-108,0,l),
(8,0,l),
(94,158,l),
(373,158,l)
);
},
{
closed = 1;
nodes = (
(146,255,l),
(301,541,l),
(355,255,l)
);
}
);
width = 657;
}
);
note = Adieresis.ss03;
},
{
glyphname = uni1EA0.ss03;
kernLeft = A;
kernRight = A;
lastChange = "2022-12-26 08:52:03 +0000";
layers = (
{
hints = (
{
horizontal = 1;
place = (-307, 13);
place = (-307, 13);
type = Stem;
},
{
horizontal = 1;
place = (-123, 21);
target = up;
type = BottomGhost;
},
{
horizontal = 1;
place = (35, -26);
place = (35, -26);
type = Stem;
},
{
horizontal = 1;
place = (574, -20);
target = down;
type = TopGhost;
},
{
place = (138, 12);
place = (138, 12);
type = Stem;
}
);
layerId = m01;
shapes = (
{
closed = 1;
nodes = (
(519,0,l),
(370,697,l),
(287,697,l),
(-108,0,l),
(8,0,l),
(94,158,l),
(373,158,l),
(402,0,l)
);
},
{
closed = 1;
nodes = (
(146,255,l),
(301,541,l),
(355,255,l)
);
},
{
closed = 1;
nodes = (
(159,-48,o),
(125,-77,o),
(118,-115,cs),
(111,-154,o),
(136,-184,o),
(173,-184,cs),
(212,-184,o),
(246,-154,o),
(253,-115,cs),
(260,-77,o),
(236,-48,o),
(197,-48,cs)
);
}
);
width = 657;
}
);
note = uni1EA0.ss03;
},
{
glyphname = Cdotaccent.ss03;
kernLeft = C;
kernRight = C;
lastChange = "2022-12-26 08:52:03 +0000";
layers = (
{
hints = (
{
horizontal = 1;
place = (-136, -21);
place = (-136, -21);
type = Stem;
},
{
horizontal = 1;
place = (486, -21);
place = (486, -21);
type = Stem;
},
{
horizontal = 1;
place = (651, 13);
place = (651, 13);
type = Stem;
},
{
place = (-74, -16);
place = (-74, -16);
type = Stem;
},
{
place = (196, 12);
place = (196, 12);
type = Stem;
}
);
layerId = m01;
shapes = (
{
closed = 1;
nodes = (
(439,774,o),
(473,804,o),
(480,842,cs),
(486,881,o),
(463,910,o),
(424,910,cs),
(386,910,o),
(351,881,o),
(345,842,cs),
(338,804,o),
(363,774,o),
(400,774,cs)
);
},
{
closed = 1;
nodes = (
(401,-13,o),
(522,58,o),
(597,190,c),
(502,228,l),
(453,136,o),
(374,89,o),
(273,89,cs),
(132,89,o),
(65,183,o),
(95,350,cs),
(124,516,o),
(223,609,o),
(366,609,cs),
(466,609,o),
(529,564,o),
(546,473,c),
(651,511,l),
(623,642,o),
(529,711,o),
(384,711,cs),
(180,711,o),
(27,573,o),
(-12,349,cs),
(-52,126,o),
(52,-13,o),
(255,-13,cs)
);
}
);
width = 717;
}
);
note = Cdotaccent.ss03;
},
{
glyphname = uni1EC6.ss03;
lastChange = "2022-12-26 08:52:03 +0000";
layers = (
{
hints = (
{
horizontal = 1;
place = (-307, 13);
place = (-307, 13);
type = Stem;
},
{
horizontal = 1;
place = (-123, -24);
place = (-123, -24);
type = Stem;
},
{
horizontal = 1;
place = (185, -24);
place = (185, -24);
type = Stem;
},
{
horizontal = 1;
place = (475, -24);
place = (475, -24);
type = Stem;
},
{
place = (-26, -16);
place = (-26, -16);
type = Stem;
},
{
place = (137, 12);
place = (137, 12);
type = Stem;
}
);
layerId = m01;
shapes = (
{
closed = 1;
nodes = (
(182,747,l),
(264,747,l),
(350,828,l),
(409,747,l),
(490,747,l),
(366,916,l)
);
},
{
closed = 1;
nodes = (
(-26,0,l),
(435,0,l),
(453,99,l),
(99,99,l),
(135,308,l),
(460,308,l),
(478,407,l),
(153,407,l),
(187,598,l),
(541,598,l),
(558,697,l),
(97,697,l)
);
},
{
closed = 1;
nodes = (
(211,-184,o),
(245,-154,o),
(252,-115,cs),
(259,-77,o),
(235,-48,o),
(196,-48,cs),
(158,-48,o),
(124,-77,o),
(117,-115,cs),
(110,-154,o),
(135,-184,o),
(172,-184,cs)
);
}
);
width = 617;
}
);
note = uni1EC6.ss03;
},
{
glyphname = Edieresis.ss03;
lastChange = "2022-12-26 08:52:03 +0000";
layers = (
{
hints = (
{
horizontal = 1;
place = (-123, -24);
place = (-123, -24);
type = Stem;
},
{
horizontal = 1;
place = (185, -24);
place = (185, -24);
type = Stem;
},
{
horizontal = 1;
place = (475, -24);
place = (475, -24);
type = Stem;
},
{
horizontal = 1;
place = (651, 13);
place = (651, 13);
type = Stem;
},
{
place = (43, 12);
place = (43, 12);
type = Stem;
},
{
place = (231, 13);
place = (231, 13);
type = Stem;
},
{
place = (-26, -16);
place = (-26, -16);
type = Stem;
}
);
layerId = m01;
shapes = (
{
closed = 1;
nodes = (
(286,774,o),
(320,804,o),
(327,842,cs),
(333,881,o),
(310,910,o),
(271,910,cs),
(233,910,o),
(198,881,o),
(192,842,cs),
(185,804,o),
(210,774,o),
(247,774,cs)
);
},
{
closed = 1;
nodes = (
(474,774,o),
(509,804,o),
(516,842,cs),
(522,881,o),
(498,910,o),
(460,910,cs),
(422,910,o),
(386,881,o),
(380,842,cs),
(373,804,o),
(399,774,o),
(436,774,cs)
);
},
{
closed = 1;
nodes = (
(-26,0,l),
(435,0,l),
(453,99,l),
(99,99,l),
(135,308,l),
(460,308,l),
(478,407,l),
(153,407,l),
(187,598,l),
(541,598,l),
(558,697,l),
(97,697,l)
);
}
);
width = 617;
}
);
note = Edieresis.ss03;
},
{
glyphname = Edotaccent.ss03;
lastChange = "2022-12-26 08:52:03 +0000";
layers = (
{
hints = (
{
horizontal = 1;
place = (-123, -24);
place = (-123, -24);
type = Stem;
},
{
horizontal = 1;
place = (185, -24);
place = (185, -24);
type = Stem;
},
{
horizontal = 1;
place = (475, -24);
place = (475, -24);
type = Stem;
},
{
horizontal = 1;
place = (651, 13);
place = (651, 13);
type = Stem;
},
{
place = (-26, -16);
place = (-26, -16);
type = Stem;
},
{
place = (137, 12);
place = (137, 12);
type = Stem;
}
);
layerId = m01;
shapes = (
{
closed = 1;
nodes = (
(380,774,o),
(414,804,o),
(421,842,cs),
(427,881,o),
(404,910,o),
(365,910,cs),
(327,910,o),
(292,881,o),
(286,842,cs),
(279,804,o),
(304,774,o),
(341,774,cs)
);
},
{
closed = 1;
nodes = (
(-26,0,l),
(435,0,l),
(453,99,l),
(99,99,l),
(135,308,l),
(460,308,l),
(478,407,l),
(153,407,l),
(187,598,l),
(541,598,l),
(558,697,l),
(97,697,l)
);
}
);
width = 617;
}
);
note = Edotaccent.ss03;
},
{
glyphname = uni1EB8.ss03;
lastChange = "2022-12-26 08:52:03 +0000";
layers = (
{
hints = (
{
horizontal = 1;
place = (-307, 13);
place = (-307, 13);
type = Stem;
},
{
horizontal = 1;
place = (-123, -24);
place = (-123, -24);
type = Stem;
},
{
horizontal = 1;
place = (185, -24);
place = (185, -24);
type = Stem;
},
{
horizontal = 1;
place = (475, -24);
place = (475, -24);
type = Stem;
},
{
place = (-26, -16);
place = (-26, -16);
type = Stem;
},
{
place = (137, 12);
place = (137, 12);
type = Stem;
}
);
layerId = m01;
shapes = (
{
closed = 1;
nodes = (
(-26,0,l),
(435,0,l),
(453,99,l),
(99,99,l),
(135,308,l),
(460,308,l),
(478,407,l),
(153,407,l),
(187,598,l),
(541,598,l),
(558,697,l),
(97,697,l)
);
},
{
closed = 1;
nodes = (
(211,-184,o),
(245,-154,o),
(252,-115,cs),
(259,-77,o),
(235,-48,o),
(196,-48,cs),
(158,-48,o),
(124,-77,o),
(117,-115,cs),
(110,-154,o),
(135,-184,o),
(172,-184,cs)
);
}
);
width = 617;
}
);
note = uni1EB8.ss03;
},
{
glyphname = Gdotaccent.ss03;
kernRight = G;
lastChange = "2022-12-26 08:52:03 +0000";
layers = (
{
hints = (
{
horizontal = 1;
place = (-136, -21);
place = (-136, -21);
type = Stem;
},
{
horizontal = 1;
place = (152, -27);
place = (152, -27);
type = Stem;
},
{
horizontal = 1;
place = (486, -21);
place = (486, -21);
type = Stem;
},
{
horizontal = 1;
place = (651, 13);
place = (651, 13);
type = Stem;
},
{
place = (-75, -16);
place = (-75, -16);
type = Stem;
},
{
place = (189, 12);
place = (189, 12);
type = Stem;
},
{
place = (459, -18);
place = (459, -18);
type = Stem;
},
{
horizontal = 1;
place = (-123, 21);
target = up;
type = BottomGhost;
}
);
layerId = m01;
shapes = (
{
closed = 1;
nodes = (
(432,774,o),
(466,804,o),
(473,842,cs),
(479,881,o),
(456,910,o),
(417,910,cs),
(379,910,o),
(344,881,o),
(338,842,cs),
(331,804,o),
(356,774,o),
(393,774,cs)
);
},
{
closed = 1;
nodes = (
(365,371,l),
(348,275,l),
(508,275,l),
(505,262,ls),
(485,146,o),
(396,89,o),
(281,89,cs),
(129,89,o),
(66,190,o),
(94,352,cs),
(122,511,o),
(219,609,o),
(365,609,cs),
(466,609,o),
(527,562,o),
(545,473,c),
(649,511,l),
(623,639,o),
(528,711,o),
(384,711,cs),
(173,711,o),
(23,557,o),
(-13,350,cs),
(-51,133,o),
(59,-13,o),
(256,-13,cs),
(352,-13,o),
(436,21,o),
(487,82,c),
(486,0,l),
(564,0,l),
(630,371,l)
);
}
);
width = 759;
}
);
note = Gdotaccent.ss03;
},
{
glyphname = Idieresis.ss03;
lastChange = "2022-12-26 08:52:03 +0000";
layers = (
{
hints = (
{
horizontal = 1;
place = (-123, 21);
target = up;
type = BottomGhost;
},
{
horizontal = 1;
place = (574, -20);
target = down;
type = TopGhost;
},
{
horizontal = 1;
place = (651, 13);
place = (651, 13);
type = Stem;
},
{
place = (-134, 12);
place = (-134, 12);
type = Stem;
},
{
place = (54, 13);
place = (54, 13);
type = Stem;
},
{
place = (-26, -16);
place = (-26, -16);
type = Stem;
}
);
layerId = m01;
shapes = (
{
closed = 1;
nodes = (
(109,774,o),
(143,804,o),
(150,842,cs),
(156,881,o),
(133,910,o),
(94,910,cs),
(56,910,o),
(21,881,o),
(15,842,cs),
(8,804,o),
(33,774,o),
(70,774,cs)
);
},
{
closed = 1;
nodes = (
(297,774,o),
(332,804,o),
(339,842,cs),
(345,881,o),
(321,910,o),
(283,910,cs),
(245,910,o),
(209,881,o),
(203,842,cs),
(196,804,o),
(222,774,o),
(259,774,cs)
);
},
{
closed = 1;
nodes = (
(-26,0,l),
(81,0,l),
(204,697,l),
(97,697,l)
);
}
);
width = 300;
}
);
note = Idieresis.ss03;
},
{
glyphname = uni1ECA.ss03;
lastChange = "2022-12-26 08:52:03 +0000";
layers = (
{
hints = (
{
horizontal = 1;
place = (-307, 13);
place = (-307, 13);
type = Stem;
},
{
horizontal = 1;
place = (-123, 21);
target = up;
type = BottomGhost;
},
{
horizontal = 1;
place = (574, -20);
target = down;
type = TopGhost;
},
{
place = (-26, -16);
place = (-26, -16);
type = Stem;
}
);
layerId = m01;
shapes = (
{
closed = 1;
nodes = (
(-26,0,l),
(81,0,l),
(204,697,l),
(97,697,l)
);
},
{
closed = 1;
nodes = (
(34,-184,o),
(68,-154,o),
(75,-115,cs),
(82,-77,o),
(58,-48,o),
(19,-48,cs),
(-19,-48,o),
(-53,-77,o),
(-60,-115,cs),
(-67,-154,o),
(-42,-184,o),
(-5,-184,cs)
);
}
);
width = 300;
}
);
note = uni1ECA.ss03;
},
{
glyphname = uni1ED8.ss03;
lastChange = "2022-12-26 08:52:03 +0000";
layers = (
{
hints = (
{
horizontal = 1;
place = (-307, 13);
place = (-307, 13);
type = Stem;
},
{
horizontal = 1;
place = (-136, -21);
place = (-136, -21);
type = Stem;
},
{
horizontal = 1;
place = (485, -21);
place = (485, -21);
type = Stem;
},
{
place = (-75, -16);
place = (-75, -16);
type = Stem;
},
{
place = (186, 12);
place = (186, 12);
type = Stem;
},
{
place = (475, -16);
place = (475, -16);
type = Stem;
}
);
layerId = m01;
shapes = (
{
closed = 1;
nodes = (
(232,747,l),
(314,747,l),
(400,828,l),
(459,747,l),
(540,747,l),
(416,916,l)
);
},
{
closed = 1;
nodes = (
(447,-13,o),
(605,131,o),
(643,348,cs),
(682,566,o),
(575,710,o),
(379,710,cs),
(183,710,o),
(25,566,o),
(-14,348,cs),
(-52,131,o),
(56,-13,o),
(252,-13,cs)
);
},
{
closed = 1;
nodes = (
(135,89,o),
(65,188,o),
(93,348,cs),
(122,509,o),
(226,608,o),
(361,608,cs),
(496,608,o),
(565,508,o),
(536,348,cs),
(508,189,o),
(405,89,o),
(270,89,cs)
);
},
{
closed = 1;
nodes = (
(260,-184,o),
(294,-154,o),
(301,-115,cs),
(308,-77,o),
(284,-48,o),
(245,-48,cs),
(207,-48,o),
(173,-77,o),
(166,-115,cs),
(159,-154,o),
(184,-184,o),
(221,-184,cs)
);
}
);
width = 753;
}
);
note = uni1ED8.ss03;
},
{
glyphname = Odieresis.ss03;
lastChange = "2022-12-26 08:52:03 +0000";
layers = (
{
hints = (
{
horizontal = 1;
place = (-136, -21);
place = (-136, -21);
type = Stem;
},
{
horizontal = 1;
place = (485, -21);
place = (485, -21);
type = Stem;
},
{
horizontal = 1;
place = (651, 13);
place = (651, 13);
type = Stem;
},
{
place = (-75, -16);
place = (-75, -16);
type = Stem;
},
{
place = (92, 12);
place = (92, 12);
type = Stem;
},
{
place = (280, 13);
place = (280, 13);
type = Stem;
},
{
place = (475, -16);
place = (475, -16);
type = Stem;
}
);
layerId = m01;
shapes = (
{
closed = 1;
nodes = (
(335,774,o),
(369,804,o),
(376,842,cs),
(382,881,o),
(359,910,o),
(320,910,cs),
(282,910,o),
(247,881,o),
(241,842,cs),
(234,804,o),
(259,774,o),
(296,774,cs)
);
},
{
closed = 1;
nodes = (
(523,774,o),
(558,804,o),
(565,842,cs),
(571,881,o),
(547,910,o),
(509,910,cs),
(471,910,o),
(435,881,o),
(429,842,cs),
(422,804,o),
(448,774,o),
(485,774,cs)
);
},
{
closed = 1;
nodes = (
(447,-13,o),
(605,131,o),
(643,348,cs),
(682,566,o),
(575,710,o),
(379,710,cs),
(183,710,o),
(25,566,o),
(-14,348,cs),
(-52,131,o),
(56,-13,o),
(252,-13,cs)
);
},
{
closed = 1;
nodes = (
(135,89,o),
(65,188,o),
(93,348,cs),
(122,509,o),
(226,608,o),
(361,608,cs),
(496,608,o),
(565,508,o),
(536,348,cs),
(508,189,o),
(405,89,o),
(270,89,cs)
);
}
);
width = 753;
}
);
note = Odieresis.ss03;
},
{
glyphname = uni1ECC.ss03;
lastChange = "2022-12-26 08:52:03 +0000";
layers = (
{
hints = (
{
horizontal = 1;
place = (-307, 13);
place = (-307, 13);
type = Stem;
},
{
horizontal = 1;
place = (-136, -21);
place = (-136, -21);
type = Stem;
},
{
horizontal = 1;
place = (485, -21);
place = (485, -21);
type = Stem;
},
{
place = (-75, -16);
place = (-75, -16);
type = Stem;
},
{
place = (186, 12);
place = (186, 12);
type = Stem;
},
{
place = (475, -16);
place = (475, -16);
type = Stem;
}
);
layerId = m01;
shapes = (
{
closed = 1;
nodes = (
(447,-13,o),
(605,131,o),
(643,348,cs),
(682,566,o),
(575,710,o),
(379,710,cs),
(183,710,o),
(25,566,o),
(-14,348,cs),
(-52,131,o),
(56,-13,o),
(252,-13,cs)
);
},
{
closed = 1;
nodes = (
(135,89,o),
(65,188,o),
(93,348,cs),
(122,509,o),
(226,608,o),
(361,608,cs),
(496,608,o),
(565,508,o),
(536,348,cs),
(508,189,o),
(405,89,o),
(270,89,cs)
);
},
{
closed = 1;
nodes = (
(260,-184,o),
(294,-154,o),
(301,-115,cs),
(308,-77,o),
(284,-48,o),
(245,-48,cs),
(207,-48,o),
(173,-77,o),
(166,-115,cs),
(159,-154,o),
(184,-184,o),
(221,-184,cs)
);
}
);
width = 753;
}
);
note = uni1ECC.ss03;
},
{
glyphname = uni1EE2.ss03;
lastChange = "2022-12-26 08:52:03 +0000";
layers = (
{
hints = (
{
horizontal = 1;
place = (-307, 13);
place = (-307, 13);
type = Stem;
},
{
horizontal = 1;
place = (-136, -21);
place = (-136, -21);
type = Stem;
},
{
horizontal = 1;
place = (380, -20);
target = down;
type = TopGhost;
},
{
horizontal = 1;
place = (574, -20);
target = down;
type = TopGhost;
},
{
place = (-75, -16);
place = (-75, -16);
type = Stem;
},
{
place = (567, -44);
place = (567, -44);
type = Stem;
},
{
horizontal = 1;
place = (485, -21);
place = (485, -21);
type = Stem;
},
{
place = (475, -16);
place = (475, -16);
type = Stem;
},
{
place = (186, 12);
place = (186, 12);
type = Stem;
}
);
layerId = m01;
shapes = (
{
closed = 1;
nodes = (
(690,697,l),
(681,647,ls),
(676,615,o),
(660,580,o),
(624,568,c),
(584,657,o),
(498,710,o),
(379,710,cs),
(183,710,o),
(25,566,o),
(-14,348,cs),
(-52,131,o),
(56,-13,o),
(252,-13,cs),
(447,-13,o),
(605,131,o),
(643,348,cs),
(654,405,o),
(654,457,o),
(645,503,c),
(712,525,o),
(749,584,o),
(762,655,cs),
(769,697,l)
);
},
{
closed = 1;
nodes = (
(135,89,o),
(65,188,o),
(93,348,cs),
(122,509,o),
(226,608,o),
(361,608,cs),
(496,608,o),
(565,508,o),
(536,348,cs),
(508,189,o),
(405,89,o),
(270,89,cs)
);
},
{
closed = 1;
nodes = (
(207,-48,o),
(173,-77,o),
(166,-115,cs),
(159,-154,o),
(184,-184,o),
(221,-184,cs),
(260,-184,o),
(294,-154,o),
(301,-115,cs),
(308,-77,o),
(284,-48,o),
(245,-48,cs)
);
}
);
width = 753;
}
);
note = uni1EE2.ss03;
},
{
glyphname = Udieresis.ss03;
kernLeft = U;
lastChange = "2022-12-26 08:52:03 +0000";
layers = (
{
hints = (
{
horizontal = 1;
place = (-136, -19);
place = (-136, -19);
type = Stem;
},
{
horizontal = 1;
place = (574, -20);
target = down;
type = TopGhost;
},
{
horizontal = 1;
place = (651, 13);
place = (651, 13);
type = Stem;
},
{
place = (59, 12);
place = (59, 12);
type = Stem;
},
{
place = (247, 13);
place = (247, 13);
type = Stem;
},
{
place = (-41, -16);
place = (-41, -16);
type = Stem;
},
{
place = (375, -16);
place = (375, -16);
type = Stem;
}
);
layerId = m01;
shapes = (
{
closed = 1;
nodes = (
(302,774,o),
(336,804,o),
(343,842,cs),
(349,881,o),
(326,910,o),
(287,910,cs),
(249,910,o),
(214,881,o),
(208,842,cs),
(201,804,o),
(226,774,o),
(263,774,cs)
);
},
{
closed = 1;
nodes = (
(490,774,o),
(525,804,o),
(532,842,cs),
(538,881,o),
(514,910,o),
(476,910,cs),
(438,910,o),
(402,881,o),
(396,842,cs),
(389,804,o),
(415,774,o),
(452,774,cs)
);
},
{
closed = 1;
nodes = (
(390,-13,o),
(496,78,o),
(527,257,cs),
(605,697,l),
(498,697,l),
(422,265,ls),
(400,141,o),
(345,91,o),
(236,91,cs),
(127,91,o),
(91,140,o),
(113,264,cs),
(189,697,l),
(82,697,l),
(4,252,ls),
(-27,76,o),
(47,-13,o),
(218,-13,cs)
);
}
);
width = 687;
}
);
note = Udieresis.ss03;
},
{
glyphname = uni01D7.ss03;
kernLeft = U;
lastChange = "2022-12-26 08:52:03 +0000";
layers = (
{
hints = (
{
horizontal = 1;
place = (-136, -19);
place = (-136, -19);
type = Stem;
},
{
horizontal = 1;
place = (574, -20);
target = down;
type = TopGhost;
},
{
horizontal = 1;
place = (651, 13);
place = (651, 13);
type = Stem;
},
{
horizontal = 1;
place = (849, 19);
place = (849, 19);
type = Stem;
},
{
place = (-41, -16);
place = (-41, -16);
type = Stem;
},
{
place = (375, -16);
place = (375, -16);
type = Stem;
},
{
place = (59, 12);
place = (59, 12);
type = Stem;
},
{
place = (247, 13);
place = (247, 13);
type = Stem;
}
);
layerId = m01;
shapes = (
{
closed = 1;
nodes = (
(354,972,l),
(431,972,l),
(601,1114,l),
(490,1114,l)
);
},
{
closed = 1;
nodes = (
(302,774,o),
(336,804,o),
(343,842,cs),
(349,881,o),
(326,910,o),
(287,910,cs),
(249,910,o),
(214,881,o),
(208,842,cs),
(201,804,o),
(226,774,o),
(263,774,cs)
);
},
{
closed = 1;
nodes = (
(490,774,o),
(525,804,o),
(532,842,cs),
(538,881,o),
(514,910,o),
(476,910,cs),
(438,910,o),
(402,881,o),
(396,842,cs),
(389,804,o),
(415,774,o),
(452,774,cs)
);
},
{
closed = 1;
nodes = (
(390,-13,o),
(496,78,o),
(527,257,cs),
(605,697,l),
(498,697,l),
(422,265,ls),
(400,141,o),
(345,91,o),
(236,91,cs),
(127,91,o),
(91,140,o),
(113,264,cs),
(189,697,l),
(82,697,l),
(4,252,ls),
(-27,76,o),
(47,-13,o),
(218,-13,cs)
);
}
);
width = 687;
}
);
note = uni01D7.ss03;
},
{
glyphname = uni01D9.ss03;
kernLeft = U;
lastChange = "2022-12-26 08:52:03 +0000";
layers = (
{
hints = (
{
horizontal = 1;
place = (-136, -19);
place = (-136, -19);
type = Stem;
},
{
horizontal = 1;
place = (574, -20);
target = down;
type = TopGhost;
},
{
horizontal = 1;
place = (651, 13);
place = (651, 13);
type = Stem;
},
{
place = (-41, -16);
place = (-41, -16);
type = Stem;
},
{
place = (375, -16);
place = (375, -16);
type = Stem;
},
{
place = (59, 12);
place = (59, 12);
type = Stem;
},
{
place = (247, 13);
place = (247, 13);
type = Stem;
}
);
layerId = m01;
shapes = (
{
closed = 1;
nodes = (
(389,954,l),
(572,1114,l),
(491,1114,l),
(404,1038,l),
(345,1114,l),
(264,1114,l)
);
},
{
closed = 1;
nodes = (
(302,774,o),
(336,804,o),
(343,842,cs),
(349,881,o),
(326,910,o),
(287,910,cs),
(249,910,o),
(214,881,o),
(208,842,cs),
(201,804,o),
(226,774,o),
(263,774,cs)
);
},
{
closed = 1;
nodes = (
(490,774,o),
(525,804,o),
(532,842,cs),
(538,881,o),
(514,910,o),
(476,910,cs),
(438,910,o),
(402,881,o),
(396,842,cs),
(389,804,o),
(415,774,o),
(452,774,cs)
);
},
{
closed = 1;
nodes = (
(390,-13,o),
(496,78,o),
(527,257,cs),
(605,697,l),
(498,697,l),
(422,265,ls),
(400,141,o),
(345,91,o),
(236,91,cs),
(127,91,o),
(91,140,o),
(113,264,cs),
(189,697,l),
(82,697,l),
(4,252,ls),
(-27,76,o),
(47,-13,o),
(218,-13,cs)
);
}
);
width = 687;
}
);
note = uni01D9.ss03;
},
{
glyphname = uni01DB.ss03;
kernLeft = U;
lastChange = "2022-12-26 08:52:03 +0000";
layers = (
{
hints = (
{
horizontal = 1;
place = (-136, -19);
place = (-136, -19);
type = Stem;
},
{
horizontal = 1;
place = (574, -20);
target = down;
type = TopGhost;
},
{
horizontal = 1;
place = (651, 13);
place = (651, 13);
type = Stem;
},
{
horizontal = 1;
place = (849, 19);
place = (849, 19);
type = Stem;
},
{
place = (-41, -16);
place = (-41, -16);
type = Stem;
},
{
place = (375, -16);
place = (375, -16);
type = Stem;
},
{
place = (59, 12);
place = (59, 12);
type = Stem;
},
{
place = (247, 13);
place = (247, 13);
type = Stem;
}
);
layerId = m01;
shapes = (
{
closed = 1;
nodes = (
(353,972,l),
(431,972,l),
(353,1114,l),
(243,1114,l)
);
},
{
closed = 1;
nodes = (
(302,774,o),
(336,804,o),
(343,842,cs),
(349,881,o),
(326,910,o),
(287,910,cs),
(249,910,o),
(214,881,o),
(208,842,cs),
(201,804,o),
(226,774,o),
(263,774,cs)
);
},
{
closed = 1;
nodes = (
(490,774,o),
(525,804,o),
(532,842,cs),
(538,881,o),
(514,910,o),
(476,910,cs),
(438,910,o),
(402,881,o),
(396,842,cs),
(389,804,o),
(415,774,o),
(452,774,cs)
);
},
{
closed = 1;
nodes = (
(390,-13,o),
(496,78,o),
(527,257,cs),
(605,697,l),
(498,697,l),
(422,265,ls),
(400,141,o),
(345,91,o),
(236,91,cs),
(127,91,o),
(91,140,o),
(113,264,cs),
(189,697,l),
(82,697,l),
(4,252,ls),
(-27,76,o),
(47,-13,o),
(218,-13,cs)
);
}
);
width = 687;
}
);
note = uni01DB.ss03;
},
{
glyphname = uni01D5.ss03;
kernLeft = U;
lastChange = "2022-12-26 08:52:03 +0000";
layers = (
{
hints = (
{
horizontal = 1;
place = (-136, -19);
place = (-136, -19);
type = Stem;
},
{
horizontal = 1;
place = (574, -20);
target = down;
type = TopGhost;
},
{
horizontal = 1;
place = (651, 13);
place = (651, 13);
type = Stem;
},
{
horizontal = 1;
place = (871, -62);
place = (871, -62);
type = Stem;
},
{
place = (-41, -16);
place = (-41, -16);
type = Stem;
},
{
place = (84, 150);
place = (84, 150);
type = Stem;
},
{
place = (375, -16);
place = (375, -16);
type = Stem;
},
{
place = (59, 12);
place = (59, 12);
type = Stem;
},
{
place = (247, 13);
place = (247, 13);
type = Stem;
}
);
layerId = m01;
shapes = (
{
closed = 1;
nodes = (
(259,994,l),
(532,994,l),
(543,1055,l),
(270,1055,l)
);
},
{
closed = 1;
nodes = (
(302,774,o),
(336,804,o),
(343,842,cs),
(349,881,o),
(326,910,o),
(287,910,cs),
(249,910,o),
(214,881,o),
(208,842,cs),
(201,804,o),
(226,774,o),
(263,774,cs)
);
},
{
closed = 1;
nodes = (
(490,774,o),
(525,804,o),
(532,842,cs),
(538,881,o),
(514,910,o),
(476,910,cs),
(438,910,o),
(402,881,o),
(396,842,cs),
(389,804,o),
(415,774,o),
(452,774,cs)
);
},
{
closed = 1;
nodes = (
(390,-13,o),
(496,78,o),
(527,257,cs),
(605,697,l),
(498,697,l),
(422,265,ls),
(400,141,o),
(345,91,o),
(236,91,cs),
(127,91,o),
(91,140,o),
(113,264,cs),
(189,697,l),
(82,697,l),
(4,252,ls),
(-27,76,o),
(47,-13,o),
(218,-13,cs)
);
}
);
width = 687;
}
);
note = uni01D5.ss03;
},
{
glyphname = uni1EE4.ss03;
kernLeft = U;
lastChange = "2022-12-26 08:52:03 +0000";
layers = (
{
hints = (
{
horizontal = 1;
place = (-307, 13);
place = (-307, 13);
type = Stem;
},
{
horizontal = 1;
place = (-136, -19);
place = (-136, -19);
type = Stem;
},
{
horizontal = 1;
place = (574, -20);
target = down;
type = TopGhost;
},
{
place = (-41, -16);
place = (-41, -16);
type = Stem;
},
{
place = (154, 12);
place = (154, 12);
type = Stem;
},
{
place = (375, -16);
place = (375, -16);
type = Stem;
}
);
layerId = m01;
shapes = (
{
closed = 1;
nodes = (
(390,-13,o),
(496,78,o),
(527,257,cs),
(605,697,l),
(498,697,l),
(422,265,ls),
(400,141,o),
(345,91,o),
(236,91,cs),
(127,91,o),
(91,140,o),
(113,264,cs),
(189,697,l),
(82,697,l),
(4,252,ls),
(-27,76,o),
(47,-13,o),
(218,-13,cs)
);
},
{
closed = 1;
nodes = (
(228,-184,o),
(262,-154,o),
(269,-115,cs),
(276,-77,o),
(252,-48,o),
(213,-48,cs),
(175,-48,o),
(141,-77,o),
(134,-115,cs),
(127,-154,o),
(152,-184,o),
(189,-184,cs)
);
}
);
width = 687;
}
);
note = uni1EE4.ss03;
},
{
glyphname = uni1EF0.ss03;
kernLeft = U;
lastChange = "2022-12-26 08:52:03 +0000";
layers = (
{
hints = (
{
horizontal = 1;
place = (-307, 13);
place = (-307, 13);
type = Stem;
},
{
horizontal = 1;
place = (-136, -19);
place = (-136, -19);
type = Stem;
},
{
horizontal = 1;
place = (574, -20);
target = down;
type = TopGhost;
},
{
place = (-41, -16);
place = (-41, -16);
type = Stem;
},
{
place = (154, 12);
place = (154, 12);
type = Stem;
},
{
place = (375, -16);
place = (375, -16);
type = Stem;
},
{
place = (545, -44);
place = (545, -44);
type = Stem;
}
);
layerId = m01;
shapes = (
{
closed = 1;
nodes = (
(668,697,l),
(659,647,ls),
(652,609,o),
(632,567,o),
(581,563,c),
(605,697,l),
(498,697,l),
(422,265,ls),
(400,141,o),
(345,91,o),
(236,91,cs),
(127,91,o),
(91,140,o),
(113,264,cs),
(189,697,l),
(82,697,l),
(4,252,ls),
(-27,76,o),
(47,-13,o),
(218,-13,cs),
(390,-13,o),
(496,78,o),
(527,257,cs),
(569,494,l),
(671,498,o),
(724,567,o),
(740,655,cs),
(747,697,l)
);
},
{
closed = 1;
nodes = (
(175,-48,o),
(141,-77,o),
(134,-115,cs),
(127,-154,o),
(152,-184,o),
(189,-184,cs),
(228,-184,o),
(262,-154,o),
(269,-115,cs),
(276,-77,o),
(252,-48,o),
(213,-48,cs)
);
}
);
width = 687;
}
);
note = uni1EF0.ss03;
},
{
glyphname = Wdieresis.ss03;
kernLeft = W;
kernRight = W;
lastChange = "2022-12-26 08:52:03 +0000";
layers = (
{
hints = (
{
horizontal = 1;
place = (-123, 21);
target = up;
type = BottomGhost;
},
{
horizontal = 1;
place = (574, -20);
target = down;
type = TopGhost;
},
{
horizontal = 1;
place = (651, 13);
place = (651, 13);
type = Stem;
},
{
place = (209, 12);
place = (209, 12);
type = Stem;
},
{
place = (397, 13);
place = (397, 13);
type = Stem;
},
{
horizontal = 1;
place = (-123, 40);
place = (-123, 40);
type = Stem;
}
);
layerId = m01;
shapes = (
{
closed = 1;
nodes = (
(452,774,o),
(486,804,o),
(493,842,cs),
(499,881,o),
(476,910,o),
(437,910,cs),
(399,910,o),
(364,881,o),
(358,842,cs),
(351,804,o),
(376,774,o),
(413,774,cs)
);
},
{
closed = 1;
nodes = (
(640,774,o),
(675,804,o),
(682,842,cs),
(688,881,o),
(664,910,o),
(626,910,cs),
(588,910,o),
(552,881,o),
(546,842,cs),
(539,804,o),
(565,774,o),
(602,774,cs)
);
},
{
closed = 1;
nodes = (
(105,0,l),
(210,0,l),
(456,488,l),
(530,0,l),
(635,0,l),
(965,697,l),
(853,697,l),
(606,163,l),
(532,658,l),
(440,658,l),
(193,163,l),
(133,697,l),
(21,697,l)
);
}
);
width = 986;
}
);
note = Wdieresis.ss03;
},
{
glyphname = Ydieresis.ss03;
kernLeft = Y;
kernRight = Y;
lastChange = "2022-12-26 08:52:03 +0000";
layers = (
{
hints = (
{
horizontal = 1;
place = (-123, 21);
target = up;
type = BottomGhost;
},
{
horizontal = 1;
place = (574, -20);
target = down;
type = TopGhost;
},
{
horizontal = 1;
place = (651, 13);
place = (651, 13);
type = Stem;
},
{
place = (42, 12);
place = (42, 12);
type = Stem;
},
{
place = (230, 13);
place = (230, 13);
type = Stem;
},
{
place = (150, -15);
place = (150, -15);
type = Stem;
}
);
layerId = m01;
shapes = (
{
closed = 1;
nodes = (
(285,774,o),
(319,804,o),
(326,842,cs),
(332,881,o),
(309,910,o),
(270,910,cs),
(232,910,o),
(197,881,o),
(191,842,cs),
(184,804,o),
(209,774,o),
(246,774,cs)
);
},
{
closed = 1;
nodes = (
(473,774,o),
(508,804,o),
(515,842,cs),
(521,881,o),
(497,910,o),
(459,910,cs),
(421,910,o),
(385,881,o),
(379,842,cs),
(372,804,o),
(398,774,o),
(435,774,cs)
);
},
{
closed = 1;
nodes = (
(150,0,l),
(258,0,l),
(306,270,l),
(645,697,l),
(518,697,l),
(268,373,l),
(134,697,l),
(8,697,l),
(198,270,l)
);
}
);
width = 653;
}
);
note = Ydieresis.ss03;
},
{
glyphname = uni1EF4.ss03;
kernLeft = Y;
kernRight = Y;
lastChange = "2022-12-26 08:52:03 +0000";
layers = (
{
hints = (
{
horizontal = 1;
place = (-307, 13);
place = (-307, 13);
type = Stem;
},
{
horizontal = 1;
place = (-123, 21);
target = up;
type = BottomGhost;
},
{
horizontal = 1;
place = (574, -20);
target = down;
type = TopGhost;
},
{
place = (150, -15);
place = (150, -15);
type = Stem;
},
{
place = (136, 12);
place = (136, 12);
type = Stem;
}
);
layerId = m01;
shapes = (
{
closed = 1;
nodes = (
(150,0,l),
(258,0,l),
(306,270,l),
(645,697,l),
(518,697,l),
(268,373,l),
(134,697,l),
(8,697,l),
(198,270,l)
);
},
{
closed = 1;
nodes = (
(210,-184,o),
(244,-154,o),
(251,-115,cs),
(258,-77,o),
(234,-48,o),
(195,-48,cs),
(157,-48,o),
(123,-77,o),
(116,-115,cs),
(109,-154,o),
(134,-184,o),
(171,-184,cs)
);
}
);
width = 653;
}
);
note = uni1EF4.ss03;
},
{
glyphname = Zdotaccent.ss03;
kernLeft = Z;
kernRight = Z;
lastChange = "2022-12-26 08:52:03 +0000";
layers = (
{
hints = (
{
horizontal = 1;
place = (-123, -24);
place = (-123, -24);
type = Stem;
},
{
horizontal = 1;
place = (475, -24);
place = (475, -24);
type = Stem;
},
{
horizontal = 1;
place = (651, 13);
place = (651, 13);
type = Stem;
},
{
place = (126, 12);
place = (126, 12);
type = Stem;
}
);
layerId = m01;
shapes = (
{
closed = 1;
nodes = (
(369,774,o),
(403,804,o),
(410,842,cs),
(416,881,o),
(393,910,o),
(354,910,cs),
(316,910,o),
(281,881,o),
(275,842,cs),
(268,804,o),
(293,774,o),
(330,774,cs)
);
},
{
closed = 1;
nodes = (
(591,697,l),
(56,697,l),
(39,598,l),
(432,598,l),
(-76,76,l),
(-90,0,l),
(468,0,l),
(486,99,l),
(74,99,l),
(577,618,l)
);
}
);
width = 632;
}
);
note = Zdotaccent.ss03;
},
{
glyphname = a;
kernLeft = a;
kernRight = a;
lastChange = "2022-12-26 08:52:03 +0000";
layers = (
{
hints = (
{
horizontal = 1;
place = (-132, -36);
place = (-132, -36);
type = Stem;
},
{
horizontal = 1;
place = (91, -44);
place = (91, -44);
type = Stem;
},
{
horizontal = 1;
place = (289, -33);
place = (289, -33);
type = Stem;
},
{
place = (-92, -20);
place = (-92, -20);
type = Stem;
},
{
place = (241, -20);
place = (241, -20);
type = Stem;
},
{
place = (246, -25);
place = (246, -25);
type = Stem;
},
{
horizontal = 1;
place = (-123, 21);
target = up;
type = BottomGhost;
}
);
layerId = m01;
shapes = (
{
closed = 1;
nodes = (
(144,502,o),
(71,472,o),
(5,410,cs),
(-2,403,o),
(-3,393,o),
(4,388,cs),
(57,335,l),
(103,386,o),
(156,412,o),
(210,412,cs),
(275,412,o),
(307,374,o),
(296,310,cs),
(293,293,l),
(178,293,ls),
(108,293,o),
(60,285,o),
(23,268,cs),
(-25,246,o),
(-56,204,o),
(-66,148,cs),
(-82,54,o),
(-23,-9,o),
(82,-9,cs),
(152,-9,o),
(214,20,o),
(254,70,c),
(261,0,l),
(305,0,l),
(357,75,l),
(399,310,ls),
(420,430,o),
(355,502,o),
(227,502,cs)
);
},
{
closed = 1;
nodes = (
(60,78,o),
(29,104,o),
(37,146,cs),
(41,167,o),
(51,184,o),
(67,194,cs),
(89,209,o),
(119,214,o),
(176,214,cs),
(279,214,l),
(278,212,ls),
(265,134,o),
(196,78,o),
(116,78,cs)
);
}
);
width = 530;
}
);
note = a;
unicode = 97;
},
{
glyphname = aacute;
kernLeft = a;
kernRight = a;
lastChange = "2022-12-26 08:52:03 +0000";
layers = (
{
hints = (
{
horizontal = 1;
place = (-132, -36);
place = (-132, -36);
type = Stem;
},
{
horizontal = 1;
place = (91, -44);
place = (91, -44);
type = Stem;
},
{
horizontal = 1;
place = (289, -33);
place = (289, -33);
type = Stem;
},
{
horizontal = 1;
place = (432, 19);
place = (432, 19);
type = Stem;
},
{
place = (-92, -20);
place = (-92, -20);
type = Stem;
},
{
place = (241, -20);
place = (241, -20);
type = Stem;
},
{
place = (246, -25);
place = (246, -25);
type = Stem;
},
{
horizontal = 1;
place = (-123, 21);
target = up;
type = BottomGhost;
}
);
layerId = m01;
shapes = (
{
closed = 1;
nodes = (
(443,697,l),
(332,697,l),
(197,555,l),
(274,555,l)
);
},
{
closed = 1;
nodes = (
(139,502,o),
(63,468,o),
(-7,398,c),
(57,335,l),
(103,386,o),
(156,412,o),
(210,412,cs),
(275,412,o),
(307,374,o),
(296,310,cs),
(293,293,l),
(178,293,ls),
(108,293,o),
(60,285,o),
(23,268,cs),
(-25,246,o),
(-56,204,o),
(-66,148,cs),
(-82,54,o),
(-23,-9,o),
(82,-9,cs),
(152,-9,o),
(214,20,o),
(254,70,c),
(250,0,l),
(344,0,l),
(399,310,ls),
(420,430,o),
(355,502,o),
(227,502,cs)
);
},
{
closed = 1;
nodes = (
(60,78,o),
(29,104,o),
(37,146,cs),
(41,167,o),
(51,184,o),
(67,194,cs),
(89,209,o),
(119,214,o),
(176,214,cs),
(279,214,l),
(278,212,ls),
(265,134,o),
(196,78,o),
(116,78,cs)
);
}
);
width = 530;
}
);
note = aacute;
unicode = 225;
},
